<svg width="84" height="18" viewBox="0 0 84 18" fill="none" xmlns="http://www.w3.org/2000/svg">
<g filter="url(#filter0_d_3_6)">
<mask id="path-1-outside-1_3_6" maskUnits="userSpaceOnUse" x="1" y="-1" width="83" height="18" fill="black">
<rect fill="white" x="1" y="-1" width="83" height="18"/>
<path d="M9.83594 11.8242V0.5625H11.8047V11.8242H9.83594ZM2.99219 11.8242V0.5625H4.96094V11.8242H2.99219ZM3.85938 6.72656V5.57812H10.8555V6.72656H3.85938ZM1.67969 12L1.73828 11.25C2.14453 11.0859 2.64062 10.9336 3.22656 10.793L2.99219 11.6719V10.0312H4.96094V11.6719L4.76172 10.8867L6.32031 11.2266L6.26172 12H1.67969ZM8.52344 12L8.58203 11.25C8.98828 11.0859 9.48438 10.9336 10.0703 10.793L9.83594 11.6719V10.0312H11.8047V11.6719L11.6055 10.8867L13.1641 11.2266L13.1055 12H8.52344ZM13.1172 0.398438L13.0586 1.14844C12.6523 1.3125 12.1562 1.46484 11.5703 1.60547L11.8047 0.726562V2.36719H9.83594V0.726562L10.0352 1.51172L8.47656 1.17188L8.53516 0.398438H13.1172ZM6.27344 0.398438L6.21484 1.14844C5.80859 1.3125 5.3125 1.46484 4.72656 1.60547L4.96094 0.726562V2.36719H2.99219V0.726562L3.19141 1.51172L1.63281 1.17188L1.69141 0.398438H6.27344ZM17.8984 16.125C17.2578 16.0391 16.6602 15.8672 16.1055 15.6094L18.1094 11.7422L18.4844 11.4375L21.2266 4.05469L21.2969 4.37109L19.9961 4.03125L20.0547 3.25781H23.4062L23.3477 4.00781C23.1836 4.10938 22.9922 4.19922 22.7734 4.27734C22.5547 4.34766 22.332 4.41016 22.1055 4.46484L22.6328 4.06641L17.8984 16.125ZM18.0625 12.6094L14.7812 4.04297L15.3086 4.37109L13.8789 4.03125L13.9375 3.25781H18.0156L17.957 4.03125C17.793 4.10938 17.5977 4.18359 17.3711 4.25391C17.1445 4.32422 16.918 4.38672 16.6914 4.44141L16.832 4.14844L19.3164 11.2617V12.0117L18.0625 12.6094ZM28.2227 12.1875C26.8086 12.1875 25.7188 11.8047 24.9531 11.0391C24.1875 10.2734 23.8047 9.17969 23.8047 7.75781C23.8047 6.3125 24.1797 5.16797 24.9297 4.32422C25.6797 3.47266 26.6914 3.04688 27.9648 3.04688C29.1055 3.04688 29.9844 3.40625 30.6016 4.125C31.2188 4.83594 31.5273 5.85938 31.5273 7.19531C31.5273 7.3125 31.5234 7.42969 31.5156 7.54688C31.5078 7.66406 31.4961 7.77734 31.4805 7.88672L29.5117 7.51172C29.5117 6.31641 29.3672 5.45312 29.0781 4.92188C28.7969 4.39062 28.3359 4.125 27.6953 4.125C26.4453 4.125 25.8203 5.11328 25.8203 7.08984C25.8203 9.58203 26.8164 10.8281 28.8086 10.8281C29.5898 10.8281 30.4062 10.668 31.2578 10.3477L31.1758 11.4492C30.8086 11.6836 30.3672 11.8672 29.8516 12C29.3438 12.125 28.8008 12.1875 28.2227 12.1875ZM24.5664 7.88672V6.92578H31.293L31.4805 7.88672H24.5664ZM40.9141 12L36.7305 6.63281V5.97656L40.832 1.00781L40.5859 1.51172L39.0156 1.17188L39.0742 0.398438H43.3516L43.293 1.14844C43.0977 1.25 42.8789 1.33984 42.6367 1.41797C42.3945 1.48828 42.1445 1.54688 41.8867 1.59375L42.5781 1.07812L38.2188 6.32812L38.125 5.42578L42.8594 11.2383L42.0391 10.8633L43.6094 11.1797L43.5508 12H40.9141ZM34.2109 11.8242V0.585938H36.1797V11.8242H34.2109ZM35.207 6.90234V5.68359H38.2773V6.90234H35.207ZM32.8984 12L32.957 11.25C33.3633 11.0859 33.8594 10.9336 34.4453 10.793L34.2109 11.6719V10.0312H36.1797V11.6719L35.9805 10.8867L37.5391 11.2266L37.4805 12H32.8984ZM37.4922 0.398438L37.4336 1.14844C37.0273 1.3125 36.5312 1.46484 35.9453 1.60547L36.1797 0.726562V2.36719H34.2109V0.726562L34.4102 1.51172L32.8516 1.17188L32.9102 0.398438H37.4922ZM47.5234 16.125C46.8828 16.0391 46.2852 15.8672 45.7305 15.6094L47.7344 11.7422L48.1094 11.4375L50.8516 4.05469L50.9219 4.37109L49.6211 4.03125L49.6797 3.25781H53.0312L52.9727 4.00781C52.8086 4.10938 52.6172 4.19922 52.3984 4.27734C52.1797 4.34766 51.957 4.41016 51.7305 4.46484L52.2578 4.06641L47.5234 16.125ZM47.6875 12.6094L44.4062 4.04297L44.9336 4.37109L43.5039 4.03125L43.5625 3.25781H47.6406L47.582 4.03125C47.418 4.10938 47.2227 4.18359 46.9961 4.25391C46.7695 4.32422 46.543 4.38672 46.3164 4.44141L46.457 4.14844L48.9414 11.2617V12.0117L47.6875 12.6094ZM56.9453 12.1992C55.3125 12.1992 54.4961 11.2852 54.4961 9.45703V4.14844L56.3711 4.27734V9.08203C56.3711 9.70703 56.4844 10.1602 56.7109 10.4414C56.9453 10.7227 57.3125 10.8633 57.8125 10.8633C58.6172 10.8633 59.4531 10.5156 60.3203 9.82031L60.543 10.3477C59.4961 11.582 58.2969 12.1992 56.9453 12.1992ZM54.4961 5.51953V4.3125L54.7773 4.78125L53.3828 4.11328L53.4414 3.52734C54.1289 3.30078 54.9336 3.17578 55.8555 3.15234H56.3711V5.07422L54.4961 5.51953ZM61.5977 11.3086L59.7227 10.8398V4.17188L61.5977 4.28906V11.3086ZM59.7227 5.51953V4.3125L60.0039 4.79297L58.5039 4.07812L58.5508 3.5625C58.9258 3.42969 59.332 3.33203 59.7695 3.26953C60.207 3.19922 60.6445 3.16016 61.082 3.15234H61.5977V5.05078L59.7227 5.51953ZM60.2383 12.0352L59.8398 10.5117L61.5977 10.0078V11.2852L61.3398 10.8164L62.7695 11.2266L62.7109 11.9062C62.0703 12.0078 61.2461 12.0508 60.2383 12.0352ZM70.5391 11.9297V6.02344C70.5391 4.95312 70.0234 4.41797 68.9922 4.41797C68.1797 4.41797 67.3594 4.74609 66.5312 5.40234L66.2969 4.81641C66.7734 4.25391 67.3203 3.82031 67.9375 3.51562C68.5547 3.21094 69.2031 3.05859 69.8828 3.05859C70.6953 3.05859 71.3203 3.28516 71.7578 3.73828C72.1953 4.18359 72.4141 4.82422 72.4141 5.66016V11.9297H70.5391ZM65.2422 11.9297V4.10156L67.1172 4.59375V11.9297H65.2422ZM64.0469 12L64.1055 11.2969C64.332 11.1875 64.5586 11.0977 64.7852 11.0273C65.0117 10.957 65.2383 10.8945 65.4648 10.8398L65.2422 11.707V10.1016H67.1172V11.707L66.9297 10.9336L68.3594 11.2734L68.3008 12H64.0469ZM69.5547 12L69.6133 11.25C69.7773 11.1641 69.9531 11.0898 70.1406 11.0273C70.3281 10.957 70.5352 10.8945 70.7617 10.8398L70.5391 11.707V10.1016H72.4141V11.707L72.2266 10.9336L73.6562 11.2734L73.5977 12H69.5547ZM65.2422 6.03516V4.53516L65.5234 5.05078L63.9062 4.27734L63.9531 3.78516C64.2969 3.62891 64.6953 3.49609 65.1484 3.38672C65.6016 3.27734 66.0859 3.19922 66.6016 3.15234L67.0469 5.01562L65.2422 6.03516ZM78.3789 9.24609C77.3242 9.24609 76.4844 8.96875 75.8594 8.41406C75.2344 7.85938 74.9219 7.10938 74.9219 6.16406C74.9219 5.21094 75.2344 4.45703 75.8594 3.90234C76.4922 3.33984 77.3398 3.05859 78.4023 3.05859C79.0195 3.05859 79.5859 3.19141 80.1016 3.45703C80.625 3.72266 81.0469 4.08594 81.3672 4.54688C81.6875 5.00781 81.8477 5.53906 81.8477 6.14062C81.8477 7.08594 81.5352 7.83984 80.9102 8.40234C80.2852 8.96484 79.4414 9.24609 78.3789 9.24609ZM78.5312 8.26172C79.4922 8.26172 79.9727 7.62891 79.9727 6.36328C79.9727 4.81641 79.3945 4.04297 78.2383 4.04297C77.2773 4.04297 76.7969 4.67969 76.7969 5.95312C76.7969 6.69531 76.9453 7.26562 77.2422 7.66406C77.5469 8.0625 77.9766 8.26172 78.5312 8.26172ZM82.7852 4.45312L80.1016 4.3125L78.4023 3.05859C78.7695 3.05859 79.0547 3.08203 79.2578 3.12891C79.4609 3.16797 79.6484 3.21094 79.8203 3.25781C79.9922 3.30469 80.2148 3.32812 80.4883 3.32812C80.6836 3.32812 80.9883 3.31641 81.4023 3.29297C81.8242 3.26172 82.3242 3.21875 82.9023 3.16406L82.7852 4.45312ZM78.2383 16.1016C77.1055 16.1016 76.1992 15.8867 75.5195 15.457C74.8477 15.0352 74.5117 14.4648 74.5117 13.7461C74.5117 12.8633 75.0781 12.1445 76.2109 11.5898L76.8672 11.9648C76.3828 12.3477 76.1406 12.8125 76.1406 13.3594C76.1406 13.9062 76.3555 14.3242 76.7852 14.6133C77.2148 14.9023 77.8281 15.0469 78.625 15.0469C79.4688 15.0469 80.1367 14.8906 80.6289 14.5781C81.1289 14.2734 81.3789 13.8594 81.3789 13.3359C81.3789 12.7891 81.0117 12.5156 80.2773 12.5156H77.6055C76.9258 12.5156 76.4023 12.3594 76.0352 12.0469C75.668 11.7422 75.4844 11.3047 75.4844 10.7344C75.4844 9.79688 76.0078 9.06641 77.0547 8.54297L77.7695 8.66016C77.1914 9.08984 76.9023 9.55469 76.9023 10.0547C76.9023 10.5859 77.2695 10.8516 78.0039 10.8516H80.6758C81.457 10.8516 82.0547 11.0195 82.4688 11.3555C82.8906 11.6836 83.1016 12.1602 83.1016 12.7852C83.1016 13.4258 82.8906 13.9961 82.4688 14.4961C82.0547 14.9961 81.4805 15.3867 80.7461 15.668C80.0195 15.957 79.1836 16.1016 78.2383 16.1016Z"/>
</mask>
<path d="M9.83594 11.8242V0.5625H11.8047V11.8242H9.83594ZM2.99219 11.8242V0.5625H4.96094V11.8242H2.99219ZM3.85938 6.72656V5.57812H10.8555V6.72656H3.85938ZM1.67969 12L1.73828 11.25C2.14453 11.0859 2.64062 10.9336 3.22656 10.793L2.99219 11.6719V10.0312H4.96094V11.6719L4.76172 10.8867L6.32031 11.2266L6.26172 12H1.67969ZM8.52344 12L8.58203 11.25C8.98828 11.0859 9.48438 10.9336 10.0703 10.793L9.83594 11.6719V10.0312H11.8047V11.6719L11.6055 10.8867L13.1641 11.2266L13.1055 12H8.52344ZM13.1172 0.398438L13.0586 1.14844C12.6523 1.3125 12.1562 1.46484 11.5703 1.60547L11.8047 0.726562V2.36719H9.83594V0.726562L10.0352 1.51172L8.47656 1.17188L8.53516 0.398438H13.1172ZM6.27344 0.398438L6.21484 1.14844C5.80859 1.3125 5.3125 1.46484 4.72656 1.60547L4.96094 0.726562V2.36719H2.99219V0.726562L3.19141 1.51172L1.63281 1.17188L1.69141 0.398438H6.27344ZM17.8984 16.125C17.2578 16.0391 16.6602 15.8672 16.1055 15.6094L18.1094 11.7422L18.4844 11.4375L21.2266 4.05469L21.2969 4.37109L19.9961 4.03125L20.0547 3.25781H23.4062L23.3477 4.00781C23.1836 4.10938 22.9922 4.19922 22.7734 4.27734C22.5547 4.34766 22.332 4.41016 22.1055 4.46484L22.6328 4.06641L17.8984 16.125ZM18.0625 12.6094L14.7812 4.04297L15.3086 4.37109L13.8789 4.03125L13.9375 3.25781H18.0156L17.957 4.03125C17.793 4.10938 17.5977 4.18359 17.3711 4.25391C17.1445 4.32422 16.918 4.38672 16.6914 4.44141L16.832 4.14844L19.3164 11.2617V12.0117L18.0625 12.6094ZM28.2227 12.1875C26.8086 12.1875 25.7188 11.8047 24.9531 11.0391C24.1875 10.2734 23.8047 9.17969 23.8047 7.75781C23.8047 6.3125 24.1797 5.16797 24.9297 4.32422C25.6797 3.47266 26.6914 3.04688 27.9648 3.04688C29.1055 3.04688 29.9844 3.40625 30.6016 4.125C31.2188 4.83594 31.5273 5.85938 31.5273 7.19531C31.5273 7.3125 31.5234 7.42969 31.5156 7.54688C31.5078 7.66406 31.4961 7.77734 31.4805 7.88672L29.5117 7.51172C29.5117 6.31641 29.3672 5.45312 29.0781 4.92188C28.7969 4.39062 28.3359 4.125 27.6953 4.125C26.4453 4.125 25.8203 5.11328 25.8203 7.08984C25.8203 9.58203 26.8164 10.8281 28.8086 10.8281C29.5898 10.8281 30.4062 10.668 31.2578 10.3477L31.1758 11.4492C30.8086 11.6836 30.3672 11.8672 29.8516 12C29.3438 12.125 28.8008 12.1875 28.2227 12.1875ZM24.5664 7.88672V6.92578H31.293L31.4805 7.88672H24.5664ZM40.9141 12L36.7305 6.63281V5.97656L40.832 1.00781L40.5859 1.51172L39.0156 1.17188L39.0742 0.398438H43.3516L43.293 1.14844C43.0977 1.25 42.8789 1.33984 42.6367 1.41797C42.3945 1.48828 42.1445 1.54688 41.8867 1.59375L42.5781 1.07812L38.2188 6.32812L38.125 5.42578L42.8594 11.2383L42.0391 10.8633L43.6094 11.1797L43.5508 12H40.9141ZM34.2109 11.8242V0.585938H36.1797V11.8242H34.2109ZM35.207 6.90234V5.68359H38.2773V6.90234H35.207ZM32.8984 12L32.957 11.25C33.3633 11.0859 33.8594 10.9336 34.4453 10.793L34.2109 11.6719V10.0312H36.1797V11.6719L35.9805 10.8867L37.5391 11.2266L37.4805 12H32.8984ZM37.4922 0.398438L37.4336 1.14844C37.0273 1.3125 36.5312 1.46484 35.9453 1.60547L36.1797 0.726562V2.36719H34.2109V0.726562L34.4102 1.51172L32.8516 1.17188L32.9102 0.398438H37.4922ZM47.5234 16.125C46.8828 16.0391 46.2852 15.8672 45.7305 15.6094L47.7344 11.7422L48.1094 11.4375L50.8516 4.05469L50.9219 4.37109L49.6211 4.03125L49.6797 3.25781H53.0312L52.9727 4.00781C52.8086 4.10938 52.6172 4.19922 52.3984 4.27734C52.1797 4.34766 51.957 4.41016 51.7305 4.46484L52.2578 4.06641L47.5234 16.125ZM47.6875 12.6094L44.4062 4.04297L44.9336 4.37109L43.5039 4.03125L43.5625 3.25781H47.6406L47.582 4.03125C47.418 4.10938 47.2227 4.18359 46.9961 4.25391C46.7695 4.32422 46.543 4.38672 46.3164 4.44141L46.457 4.14844L48.9414 11.2617V12.0117L47.6875 12.6094ZM56.9453 12.1992C55.3125 12.1992 54.4961 11.2852 54.4961 9.45703V4.14844L56.3711 4.27734V9.08203C56.3711 9.70703 56.4844 10.1602 56.7109 10.4414C56.9453 10.7227 57.3125 10.8633 57.8125 10.8633C58.6172 10.8633 59.4531 10.5156 60.3203 9.82031L60.543 10.3477C59.4961 11.582 58.2969 12.1992 56.9453 12.1992ZM54.4961 5.51953V4.3125L54.7773 4.78125L53.3828 4.11328L53.4414 3.52734C54.1289 3.30078 54.9336 3.17578 55.8555 3.15234H56.3711V5.07422L54.4961 5.51953ZM61.5977 11.3086L59.7227 10.8398V4.17188L61.5977 4.28906V11.3086ZM59.7227 5.51953V4.3125L60.0039 4.79297L58.5039 4.07812L58.5508 3.5625C58.9258 3.42969 59.332 3.33203 59.7695 3.26953C60.207 3.19922 60.6445 3.16016 61.082 3.15234H61.5977V5.05078L59.7227 5.51953ZM60.2383 12.0352L59.8398 10.5117L61.5977 10.0078V11.2852L61.3398 10.8164L62.7695 11.2266L62.7109 11.9062C62.0703 12.0078 61.2461 12.0508 60.2383 12.0352ZM70.5391 11.9297V6.02344C70.5391 4.95312 70.0234 4.41797 68.9922 4.41797C68.1797 4.41797 67.3594 4.74609 66.5312 5.40234L66.2969 4.81641C66.7734 4.25391 67.3203 3.82031 67.9375 3.51562C68.5547 3.21094 69.2031 3.05859 69.8828 3.05859C70.6953 3.05859 71.3203 3.28516 71.7578 3.73828C72.1953 4.18359 72.4141 4.82422 72.4141 5.66016V11.9297H70.5391ZM65.2422 11.9297V4.10156L67.1172 4.59375V11.9297H65.2422ZM64.0469 12L64.1055 11.2969C64.332 11.1875 64.5586 11.0977 64.7852 11.0273C65.0117 10.957 65.2383 10.8945 65.4648 10.8398L65.2422 11.707V10.1016H67.1172V11.707L66.9297 10.9336L68.3594 11.2734L68.3008 12H64.0469ZM69.5547 12L69.6133 11.25C69.7773 11.1641 69.9531 11.0898 70.1406 11.0273C70.3281 10.957 70.5352 10.8945 70.7617 10.8398L70.5391 11.707V10.1016H72.4141V11.707L72.2266 10.9336L73.6562 11.2734L73.5977 12H69.5547ZM65.2422 6.03516V4.53516L65.5234 5.05078L63.9062 4.27734L63.9531 3.78516C64.2969 3.62891 64.6953 3.49609 65.1484 3.38672C65.6016 3.27734 66.0859 3.19922 66.6016 3.15234L67.0469 5.01562L65.2422 6.03516ZM78.3789 9.24609C77.3242 9.24609 76.4844 8.96875 75.8594 8.41406C75.2344 7.85938 74.9219 7.10938 74.9219 6.16406C74.9219 5.21094 75.2344 4.45703 75.8594 3.90234C76.4922 3.33984 77.3398 3.05859 78.4023 3.05859C79.0195 3.05859 79.5859 3.19141 80.1016 3.45703C80.625 3.72266 81.0469 4.08594 81.3672 4.54688C81.6875 5.00781 81.8477 5.53906 81.8477 6.14062C81.8477 7.08594 81.5352 7.83984 80.9102 8.40234C80.2852 8.96484 79.4414 9.24609 78.3789 9.24609ZM78.5312 8.26172C79.4922 8.26172 79.9727 7.62891 79.9727 6.36328C79.9727 4.81641 79.3945 4.04297 78.2383 4.04297C77.2773 4.04297 76.7969 4.67969 76.7969 5.95312C76.7969 6.69531 76.9453 7.26562 77.2422 7.66406C77.5469 8.0625 77.9766 8.26172 78.5312 8.26172ZM82.7852 4.45312L80.1016 4.3125L78.4023 3.05859C78.7695 3.05859 79.0547 3.08203 79.2578 3.12891C79.4609 3.16797 79.6484 3.21094 79.8203 3.25781C79.9922 3.30469 80.2148 3.32812 80.4883 3.32812C80.6836 3.32812 80.9883 3.31641 81.4023 3.29297C81.8242 3.26172 82.3242 3.21875 82.9023 3.16406L82.7852 4.45312ZM78.2383 16.1016C77.1055 16.1016 76.1992 15.8867 75.5195 15.457C74.8477 15.0352 74.5117 14.4648 74.5117 13.7461C74.5117 12.8633 75.0781 12.1445 76.2109 11.5898L76.8672 11.9648C76.3828 12.3477 76.1406 12.8125 76.1406 13.3594C76.1406 13.9062 76.3555 14.3242 76.7852 14.6133C77.2148 14.9023 77.8281 15.0469 78.625 15.0469C79.4688 15.0469 80.1367 14.8906 80.6289 14.5781C81.1289 14.2734 81.3789 13.8594 81.3789 13.3359C81.3789 12.7891 81.0117 12.5156 80.2773 12.5156H77.6055C76.9258 12.5156 76.4023 12.3594 76.0352 12.0469C75.668 11.7422 75.4844 11.3047 75.4844 10.7344C75.4844 9.79688 76.0078 9.06641 77.0547 8.54297L77.7695 8.66016C77.1914 9.08984 76.9023 9.55469 76.9023 10.0547C76.9023 10.5859 77.2695 10.8516 78.0039 10.8516H80.6758C81.457 10.8516 82.0547 11.0195 82.4688 11.3555C82.8906 11.6836 83.1016 12.1602 83.1016 12.7852C83.1016 13.4258 82.8906 13.9961 82.4688 14.4961C82.0547 14.9961 81.4805 15.3867 80.7461 15.668C80.0195 15.957 79.1836 16.1016 78.2383 16.1016Z" fill="#FADF70"/>
<path d="M9.83594 11.8242H9.33594C9.33594 12.1004 9.5598 12.3242 9.83594 12.3242V11.8242ZM9.83594 0.5625V0.0625C9.5598 0.0625 9.33594 0.286358 9.33594 0.5625H9.83594ZM11.8047 0.5625H12.3047C12.3047 0.286358 12.0808 0.0625 11.8047 0.0625V0.5625ZM11.8047 11.8242V12.3242C12.0808 12.3242 12.3047 12.1004 12.3047 11.8242H11.8047ZM2.99219 11.8242H2.49219C2.49219 12.1004 2.71605 12.3242 2.99219 12.3242V11.8242ZM2.99219 0.5625V0.0625C2.71605 0.0625 2.49219 0.286358 2.49219 0.5625H2.99219ZM4.96094 0.5625H5.46094C5.46094 0.286358 5.23708 0.0625 4.96094 0.0625V0.5625ZM4.96094 11.8242V12.3242C5.23708 12.3242 5.46094 12.1004 5.46094 11.8242H4.96094ZM3.85938 6.72656H3.35938C3.35938 7.0027 3.58323 7.22656 3.85938 7.22656V6.72656ZM3.85938 5.57812V5.07812C3.58323 5.07812 3.35938 5.30198 3.35938 5.57812H3.85938ZM10.8555 5.57812H11.3555C11.3555 5.30198 11.1316 5.07812 10.8555 5.07812V5.57812ZM10.8555 6.72656V7.22656C11.1316 7.22656 11.3555 7.0027 11.3555 6.72656H10.8555ZM1.67969 12L1.18121 11.9611C1.17035 12.1 1.21799 12.2372 1.31262 12.3395C1.40726 12.4418 1.54031 12.5 1.67969 12.5V12ZM1.73828 11.25L1.55105 10.7864C1.37513 10.8574 1.25458 11.0219 1.2398 11.2111L1.73828 11.25ZM3.22656 10.793L3.70968 10.9218C3.75508 10.7516 3.70753 10.57 3.58452 10.4439C3.46151 10.3177 3.28119 10.2657 3.10988 10.3068L3.22656 10.793ZM2.99219 11.6719H2.49219C2.49219 11.9229 2.67832 12.135 2.92722 12.1676C3.17612 12.2003 3.41062 12.0433 3.4753 11.8007L2.99219 11.6719ZM2.99219 10.0312V9.53125C2.71605 9.53125 2.49219 9.75511 2.49219 10.0312H2.99219ZM4.96094 10.0312H5.46094C5.46094 9.75511 5.23708 9.53125 4.96094 9.53125V10.0312ZM4.96094 11.6719L4.47629 11.7948C4.53832 12.0393 4.77266 12.1993 5.0229 12.168C5.27314 12.1368 5.46094 11.9241 5.46094 11.6719H4.96094ZM4.76172 10.8867L4.86824 10.3982C4.69897 10.3613 4.52266 10.4146 4.40224 10.5392C4.28182 10.6637 4.23447 10.8418 4.27708 11.0097L4.76172 10.8867ZM6.32031 11.2266L6.81888 11.2643C6.83772 11.0157 6.67047 10.7912 6.42683 10.738L6.32031 11.2266ZM6.26172 12V12.5C6.52321 12.5 6.74054 12.2985 6.76029 12.0378L6.26172 12ZM8.52344 12L8.02496 11.9611C8.0141 12.1 8.06174 12.2372 8.15637 12.3395C8.25101 12.4418 8.38406 12.5 8.52344 12.5V12ZM8.58203 11.25L8.3948 10.7864C8.21888 10.8574 8.09833 11.0219 8.08355 11.2111L8.58203 11.25ZM10.0703 10.793L10.5534 10.9218C10.5988 10.7516 10.5513 10.57 10.4283 10.4439C10.3053 10.3177 10.1249 10.2657 9.95363 10.3068L10.0703 10.793ZM9.83594 11.6719H9.33594C9.33594 11.9229 9.52207 12.135 9.77097 12.1676C10.0199 12.2003 10.2544 12.0433 10.3191 11.8007L9.83594 11.6719ZM9.83594 10.0312V9.53125C9.5598 9.53125 9.33594 9.75511 9.33594 10.0312H9.83594ZM11.8047 10.0312H12.3047C12.3047 9.75511 12.0808 9.53125 11.8047 9.53125V10.0312ZM11.8047 11.6719L11.32 11.7948C11.3821 12.0393 11.6164 12.1993 11.8666 12.168C12.1169 12.1368 12.3047 11.9241 12.3047 11.6719H11.8047ZM11.6055 10.8867L11.712 10.3982C11.5427 10.3613 11.3664 10.4146 11.246 10.5392C11.1256 10.6637 11.0782 10.8418 11.1208 11.0097L11.6055 10.8867ZM13.1641 11.2266L13.6626 11.2643C13.6815 11.0157 13.5142 10.7912 13.2706 10.738L13.1641 11.2266ZM13.1055 12V12.5C13.367 12.5 13.5843 12.2985 13.604 12.0378L13.1055 12ZM13.1172 0.398438L13.6157 0.437381C13.6265 0.298429 13.5789 0.161252 13.4843 0.0589319C13.3896 -0.0433878 13.2566 -0.101562 13.1172 -0.101562V0.398438ZM13.0586 1.14844L13.2458 1.61206C13.4217 1.54101 13.5423 1.37653 13.5571 1.18738L13.0586 1.14844ZM11.5703 1.60547L11.0872 1.47664C11.0418 1.64687 11.0893 1.82843 11.2124 1.95456C11.3354 2.0807 11.5157 2.13278 11.687 2.09166L11.5703 1.60547ZM11.8047 0.726562H12.3047C12.3047 0.475533 12.1186 0.263418 11.8697 0.230801C11.6208 0.198184 11.3863 0.355178 11.3216 0.597731L11.8047 0.726562ZM11.8047 2.36719V2.86719C12.0808 2.86719 12.3047 2.64333 12.3047 2.36719H11.8047ZM9.83594 2.36719H9.33594C9.33594 2.64333 9.5598 2.86719 9.83594 2.86719V2.36719ZM9.83594 0.726562L10.3206 0.603593C10.2586 0.359156 10.0242 0.199165 9.77398 0.230417C9.52374 0.261668 9.33594 0.47438 9.33594 0.726562H9.83594ZM10.0352 1.51172L9.92864 2.00024C10.0979 2.03715 10.2742 1.9838 10.3946 1.85925C10.5151 1.73469 10.5624 1.55668 10.5198 1.38875L10.0352 1.51172ZM8.47656 1.17188L7.97799 1.1341C7.95915 1.38275 8.12641 1.60727 8.37004 1.6604L8.47656 1.17188ZM8.53516 0.398438V-0.101562C8.27367 -0.101562 8.05634 0.0999231 8.03658 0.360667L8.53516 0.398438ZM6.27344 0.398438L6.77192 0.437381C6.78277 0.298429 6.73514 0.161252 6.6405 0.0589319C6.54586 -0.0433878 6.41281 -0.101562 6.27344 -0.101562V0.398438ZM6.21484 1.14844L6.40208 1.61206C6.57799 1.54101 6.69855 1.37653 6.71332 1.18738L6.21484 1.14844ZM4.72656 1.60547L4.24345 1.47664C4.19805 1.64687 4.2456 1.82843 4.36861 1.95456C4.49162 2.0807 4.67193 2.13278 4.84325 2.09166L4.72656 1.60547ZM4.96094 0.726562H5.46094C5.46094 0.475533 5.27481 0.263418 5.0259 0.230801C4.777 0.198184 4.5425 0.355178 4.47782 0.597731L4.96094 0.726562ZM4.96094 2.36719V2.86719C5.23708 2.86719 5.46094 2.64333 5.46094 2.36719H4.96094ZM2.99219 2.36719H2.49219C2.49219 2.64333 2.71605 2.86719 2.99219 2.86719V2.36719ZM2.99219 0.726562L3.47683 0.603593C3.41481 0.359156 3.18046 0.199165 2.93023 0.230417C2.67999 0.261668 2.49219 0.47438 2.49219 0.726562H2.99219ZM3.19141 1.51172L3.08489 2.00024C3.25416 2.03715 3.43047 1.9838 3.55088 1.85925C3.6713 1.73469 3.71866 1.55668 3.67605 1.38875L3.19141 1.51172ZM1.63281 1.17188L1.13424 1.1341C1.1154 1.38275 1.28266 1.60727 1.52629 1.6604L1.63281 1.17188ZM1.69141 0.398438V-0.101562C1.42992 -0.101562 1.21259 0.0999231 1.19283 0.360667L1.69141 0.398438ZM10.3359 11.8242V0.5625H9.33594V11.8242H10.3359ZM9.83594 1.0625H11.8047V0.0625H9.83594V1.0625ZM11.3047 0.5625V11.8242H12.3047V0.5625H11.3047ZM11.8047 11.3242H9.83594V12.3242H11.8047V11.3242ZM3.49219 11.8242V0.5625H2.49219V11.8242H3.49219ZM2.99219 1.0625H4.96094V0.0625H2.99219V1.0625ZM4.46094 0.5625V11.8242H5.46094V0.5625H4.46094ZM4.96094 11.3242H2.99219V12.3242H4.96094V11.3242ZM4.35938 6.72656V5.57812H3.35938V6.72656H4.35938ZM3.85938 6.07812H10.8555V5.07812H3.85938V6.07812ZM10.3555 5.57812V6.72656H11.3555V5.57812H10.3555ZM10.8555 6.22656H3.85938V7.22656H10.8555V6.22656ZM2.17817 12.0389L2.23676 11.2889L1.2398 11.2111L1.18121 11.9611L2.17817 12.0389ZM1.92551 11.7136C2.30214 11.5615 2.77312 11.416 3.34325 11.2792L3.10988 10.3068C2.50813 10.4512 1.98692 10.6104 1.55105 10.7864L1.92551 11.7136ZM2.74345 10.6641L2.50907 11.543L3.4753 11.8007L3.70968 10.9218L2.74345 10.6641ZM3.49219 11.6719V10.0312H2.49219V11.6719H3.49219ZM2.99219 10.5312H4.96094V9.53125H2.99219V10.5312ZM4.46094 10.0312V11.6719H5.46094V10.0312H4.46094ZM5.44558 11.5489L5.24636 10.7637L4.27708 11.0097L4.47629 11.7948L5.44558 11.5489ZM4.6552 11.3752L6.21379 11.7151L6.42683 10.738L4.86824 10.3982L4.6552 11.3752ZM5.82174 11.1888L5.76315 11.9622L6.76029 12.0378L6.81888 11.2643L5.82174 11.1888ZM6.26172 11.5H1.67969V12.5H6.26172V11.5ZM9.02192 12.0389L9.08051 11.2889L8.08355 11.2111L8.02496 11.9611L9.02192 12.0389ZM8.76926 11.7136C9.14589 11.5615 9.61687 11.416 10.187 11.2792L9.95363 10.3068C9.35188 10.4512 8.83067 10.6104 8.3948 10.7864L8.76926 11.7136ZM9.5872 10.6641L9.35282 11.543L10.3191 11.8007L10.5534 10.9218L9.5872 10.6641ZM10.3359 11.6719V10.0312H9.33594V11.6719H10.3359ZM9.83594 10.5312H11.8047V9.53125H9.83594V10.5312ZM11.3047 10.0312V11.6719H12.3047V10.0312H11.3047ZM12.2893 11.5489L12.0901 10.7637L11.1208 11.0097L11.32 11.7948L12.2893 11.5489ZM11.4989 11.3752L13.0575 11.7151L13.2706 10.738L11.712 10.3982L11.4989 11.3752ZM12.6655 11.1888L12.6069 11.9622L13.604 12.0378L13.6626 11.2643L12.6655 11.1888ZM13.1055 11.5H8.52344V12.5H13.1055V11.5ZM12.6187 0.359494L12.5601 1.10949L13.5571 1.18738L13.6157 0.437381L12.6187 0.359494ZM12.8714 0.684817C12.4947 0.836915 12.0238 0.982444 11.4536 1.11928L11.687 2.09166C12.2887 1.94724 12.81 1.78808 13.2458 1.61206L12.8714 0.684817ZM12.0534 1.7343L12.2878 0.855394L11.3216 0.597731L11.0872 1.47664L12.0534 1.7343ZM11.3047 0.726562V2.36719H12.3047V0.726562H11.3047ZM11.8047 1.86719H9.83594V2.86719H11.8047V1.86719ZM10.3359 2.36719V0.726562H9.33594V2.36719H10.3359ZM9.35129 0.849532L9.55051 1.63469L10.5198 1.38875L10.3206 0.603593L9.35129 0.849532ZM10.1417 1.0232L8.58308 0.683353L8.37004 1.6604L9.92864 2.00024L10.1417 1.0232ZM8.97513 1.20965L9.03373 0.436208L8.03658 0.360667L7.97799 1.1341L8.97513 1.20965ZM8.53516 0.898438H13.1172V-0.101562H8.53516V0.898438ZM5.77496 0.359494L5.71636 1.10949L6.71332 1.18738L6.77192 0.437381L5.77496 0.359494ZM6.02761 0.684817C5.65099 0.836915 5.18 0.982444 4.60988 1.11928L4.84325 2.09166C5.445 1.94724 5.9662 1.78808 6.40208 1.61206L6.02761 0.684817ZM5.20968 1.7343L5.44405 0.855394L4.47782 0.597731L4.24345 1.47664L5.20968 1.7343ZM4.46094 0.726562V2.36719H5.46094V0.726562H4.46094ZM4.96094 1.86719H2.99219V2.86719H4.96094V1.86719ZM3.49219 2.36719V0.726562H2.49219V2.36719H3.49219ZM2.50754 0.849532L2.70676 1.63469L3.67605 1.38875L3.47683 0.603593L2.50754 0.849532ZM3.29793 1.0232L1.73933 0.683353L1.52629 1.6604L3.08489 2.00024L3.29793 1.0232ZM2.13138 1.20965L2.18998 0.436208L1.19283 0.360667L1.13424 1.1341L2.13138 1.20965ZM1.69141 0.898438H6.27344V-0.101562H1.69141V0.898438ZM17.8984 16.125L17.832 16.6206C18.0601 16.6512 18.2797 16.522 18.3639 16.3077L17.8984 16.125ZM16.1055 15.6094L15.6615 15.3793C15.5988 15.5004 15.5882 15.6418 15.6323 15.7708C15.6763 15.8999 15.7711 16.0053 15.8947 16.0628L16.1055 15.6094ZM18.1094 11.7422L17.7941 11.3541C17.7408 11.3974 17.697 11.4512 17.6654 11.5121L18.1094 11.7422ZM18.4844 11.4375L18.7997 11.8256C18.869 11.7692 18.922 11.6953 18.9531 11.6116L18.4844 11.4375ZM21.2266 4.05469L21.7147 3.94622C21.6666 3.7299 21.4819 3.57102 21.2608 3.55586C21.0397 3.5407 20.835 3.67286 20.7578 3.88059L21.2266 4.05469ZM21.2969 4.37109L21.1705 4.85486C21.3391 4.8989 21.5184 4.85201 21.6438 4.73111C21.7693 4.6102 21.8228 4.43271 21.785 4.26263L21.2969 4.37109ZM19.9961 4.03125L19.4975 3.99348C19.4793 4.23442 19.6359 4.45393 19.8697 4.51501L19.9961 4.03125ZM20.0547 3.25781V2.75781C19.7932 2.75781 19.5759 2.9593 19.5561 3.22004L20.0547 3.25781ZM23.4062 3.25781L23.9047 3.29676C23.9156 3.1578 23.868 3.02063 23.7733 2.91831C23.6787 2.81599 23.5456 2.75781 23.4062 2.75781V3.25781ZM23.3477 4.00781L23.6108 4.43295C23.7463 4.34907 23.8337 4.20563 23.8461 4.04676L23.3477 4.00781ZM22.7734 4.27734L22.9264 4.75336C22.9315 4.75172 22.9366 4.75001 22.9416 4.74821L22.7734 4.27734ZM22.1055 4.46484L21.8041 4.06591C21.615 4.20872 21.5522 4.46456 21.6535 4.67869C21.7548 4.89283 21.9925 5.00647 22.2228 4.95088L22.1055 4.46484ZM22.6328 4.06641L23.0982 4.24913C23.18 4.04073 23.1134 3.80335 22.935 3.66804C22.7566 3.53274 22.51 3.53251 22.3314 3.66747L22.6328 4.06641ZM18.0625 12.6094L17.5956 12.7882C17.6455 12.9185 17.7475 13.0219 17.877 13.0737C18.0065 13.1254 18.1517 13.1207 18.2776 13.0607L18.0625 12.6094ZM14.7812 4.04297L15.0454 3.61844C14.8631 3.50498 14.6286 3.52064 14.463 3.65734C14.2973 3.79405 14.2375 4.02126 14.3143 4.22182L14.7812 4.04297ZM15.3086 4.37109L15.193 4.85754C15.4314 4.91422 15.6758 4.78971 15.7701 4.56349C15.8644 4.33727 15.7808 4.07605 15.5727 3.94657L15.3086 4.37109ZM13.8789 4.03125L13.3803 3.99348C13.3618 4.23859 13.5241 4.46085 13.7633 4.5177L13.8789 4.03125ZM13.9375 3.25781V2.75781C13.676 2.75781 13.4587 2.9593 13.4389 3.22004L13.9375 3.25781ZM18.0156 3.25781L18.5142 3.29558C18.5247 3.15681 18.4769 3.01993 18.3823 2.91788C18.2877 2.81582 18.1548 2.75781 18.0156 2.75781V3.25781ZM17.957 4.03125L18.172 4.48268C18.3339 4.40561 18.4421 4.24778 18.4556 4.06902L17.957 4.03125ZM16.6914 4.44141L16.2406 4.22504C16.1571 4.3991 16.1812 4.60571 16.3026 4.75583C16.4241 4.90595 16.621 4.97275 16.8087 4.92745L16.6914 4.44141ZM16.832 4.14844L17.3041 3.98357C17.2373 3.79249 17.062 3.66049 16.8599 3.64921C16.6578 3.63794 16.4689 3.7496 16.3813 3.93207L16.832 4.14844ZM19.3164 11.2617H19.8164C19.8164 11.2056 19.807 11.1499 19.7884 11.0969L19.3164 11.2617ZM19.3164 12.0117L19.5315 12.4631C19.7056 12.3801 19.8164 12.2045 19.8164 12.0117H19.3164ZM17.9649 15.6294C17.3714 15.5498 16.8227 15.3914 16.3162 15.156L15.8947 16.0628C16.4976 16.343 17.1442 16.5283 17.832 16.6206L17.9649 15.6294ZM16.5494 15.8394L18.5533 11.9722L17.6654 11.5121L15.6615 15.3793L16.5494 15.8394ZM18.4247 12.1302L18.7997 11.8256L18.1691 11.0494L17.7941 11.3541L18.4247 12.1302ZM18.9531 11.6116L21.6953 4.22878L20.7578 3.88059L18.0157 11.2634L18.9531 11.6116ZM20.7385 4.16315L20.8088 4.47956L21.785 4.26263L21.7147 3.94622L20.7385 4.16315ZM21.4233 3.88733L20.1225 3.54749L19.8697 4.51501L21.1705 4.85486L21.4233 3.88733ZM20.4947 4.06902L20.5533 3.29558L19.5561 3.22004L19.4975 3.99348L20.4947 4.06902ZM20.0547 3.75781H23.4062V2.75781H20.0547V3.75781ZM22.9078 3.21887L22.8492 3.96887L23.8461 4.04676L23.9047 3.29676L22.9078 3.21887ZM23.0845 3.58268C22.9557 3.66239 22.7973 3.73789 22.6053 3.80647L22.9416 4.74821C23.1871 4.66055 23.4115 4.55636 23.6108 4.43295L23.0845 3.58268ZM22.6204 3.80133C22.4136 3.86781 22.2029 3.92697 21.9881 3.9788L22.2228 4.95088C22.4612 4.89334 22.6958 4.82751 22.9264 4.75336L22.6204 3.80133ZM22.4069 4.86378L22.9342 4.46534L22.3314 3.66747L21.8041 4.06591L22.4069 4.86378ZM22.1674 3.88368L17.433 15.9423L18.3639 16.3077L23.0982 4.24913L22.1674 3.88368ZM18.5294 12.4305L15.2482 3.86412L14.3143 4.22182L17.5956 12.7882L18.5294 12.4305ZM14.5171 4.4675L15.0444 4.79562L15.5727 3.94657L15.0454 3.61844L14.5171 4.4675ZM15.4242 3.88465L13.9945 3.5448L13.7633 4.5177L15.193 4.85754L15.4242 3.88465ZM14.3775 4.06902L14.4361 3.29558L13.4389 3.22004L13.3803 3.99348L14.3775 4.06902ZM13.9375 3.75781H18.0156V2.75781H13.9375V3.75781ZM17.5171 3.22004L17.4585 3.99348L18.4556 4.06902L18.5142 3.29558L17.5171 3.22004ZM17.7421 3.57982C17.605 3.6451 17.4331 3.71114 17.2229 3.77637L17.5193 4.73144C17.7622 4.65605 17.981 4.57365 18.172 4.48268L17.7421 3.57982ZM17.2229 3.77637C17.0064 3.84358 16.7901 3.90323 16.5741 3.95537L16.8087 4.92745C17.0459 4.87021 17.2827 4.80486 17.5193 4.73144L17.2229 3.77637ZM17.1422 4.65777L17.2828 4.3648L16.3813 3.93207L16.2406 4.22504L17.1422 4.65777ZM16.36 4.3133L18.8444 11.4266L19.7884 11.0969L17.3041 3.98357L16.36 4.3133ZM18.8164 11.2617V12.0117H19.8164V11.2617H18.8164ZM19.1013 11.5604L17.8474 12.158L18.2776 13.0607L19.5315 12.4631L19.1013 11.5604ZM24.9297 4.32422L25.3034 4.6564L25.3049 4.65469L24.9297 4.32422ZM30.6016 4.125L30.2222 4.45074L30.224 4.45278L30.6016 4.125ZM31.4805 7.88672L31.3869 8.37789C31.5211 8.40345 31.66 8.37298 31.7711 8.29356C31.8823 8.21414 31.9561 8.09268 31.9754 7.95743L31.4805 7.88672ZM29.5117 7.51172H29.0117C29.0117 7.75179 29.1823 7.95797 29.4182 8.00289L29.5117 7.51172ZM29.0781 4.92188L28.6362 5.15583L28.6389 5.16085L29.0781 4.92188ZM31.2578 10.3477L31.7564 10.3848C31.7691 10.2146 31.6941 10.0497 31.5575 9.94741C31.4209 9.84512 31.2415 9.81958 31.0818 9.87967L31.2578 10.3477ZM31.1758 11.4492L31.4448 11.8707C31.5776 11.7859 31.6627 11.6435 31.6744 11.4863L31.1758 11.4492ZM29.8516 12L29.9711 12.4855L29.9763 12.4842L29.8516 12ZM24.5664 7.88672H24.0664C24.0664 8.16286 24.2903 8.38672 24.5664 8.38672V7.88672ZM24.5664 6.92578V6.42578C24.2903 6.42578 24.0664 6.64964 24.0664 6.92578H24.5664ZM31.293 6.92578L31.7837 6.83003C31.7379 6.59523 31.5322 6.42578 31.293 6.42578V6.92578ZM31.4805 7.88672V8.38672C31.6299 8.38672 31.7714 8.31992 31.8664 8.20462C31.9614 8.08932 31.9998 7.93758 31.9712 7.79096L31.4805 7.88672ZM28.2227 11.6875C26.899 11.6875 25.9524 11.3312 25.3067 10.6855L24.5996 11.3926C25.4851 12.2782 26.7182 12.6875 28.2227 12.6875V11.6875ZM25.3067 10.6855C24.6615 10.0403 24.3047 9.09022 24.3047 7.75781H23.3047C23.3047 9.26916 23.7135 10.5066 24.5996 11.3926L25.3067 10.6855ZM24.3047 7.75781C24.3047 6.39962 24.6555 5.38527 25.3034 4.6564L24.556 3.99204C23.7039 4.95067 23.3047 6.22538 23.3047 7.75781H24.3047ZM25.3049 4.65469C25.9478 3.92477 26.8154 3.54688 27.9648 3.54688V2.54688C26.5674 2.54688 25.4116 3.02054 24.5545 3.99375L25.3049 4.65469ZM27.9648 3.54688C28.9923 3.54688 29.7194 3.86515 30.2222 4.45074L30.9809 3.79926C30.2494 2.94735 29.2187 2.54688 27.9648 2.54688V3.54688ZM30.224 4.45278C30.7347 5.04108 31.0273 5.92989 31.0273 7.19531H32.0273C32.0273 5.78886 31.7028 4.6308 30.9791 3.79722L30.224 4.45278ZM31.0273 7.19531C31.0273 7.30138 31.0238 7.40747 31.0167 7.51362L32.0145 7.58013C32.0231 7.4519 32.0273 7.32362 32.0273 7.19531H31.0273ZM31.0167 7.51362C31.0097 7.61905 30.9992 7.71981 30.9855 7.81601L31.9754 7.95743C31.993 7.83488 32.0059 7.70907 32.0145 7.58013L31.0167 7.51362ZM31.574 7.39555L29.6053 7.02055L29.4182 8.00289L31.3869 8.37789L31.574 7.39555ZM30.0117 7.51172C30.0117 6.29951 29.8692 5.32952 29.5173 4.6829L28.6389 5.16085C28.8652 5.57673 29.0117 6.3333 29.0117 7.51172H30.0117ZM29.52 4.68793C29.3412 4.35021 29.0934 4.07672 28.7711 3.891C28.4506 3.7063 28.0854 3.625 27.6953 3.625V4.625C27.9459 4.625 28.1314 4.67652 28.2718 4.75743C28.4105 4.83734 28.5338 4.96229 28.6362 5.15582L29.52 4.68793ZM27.6953 3.625C26.9131 3.625 26.278 3.9483 25.8665 4.59896C25.4794 5.21098 25.3203 6.06499 25.3203 7.08984H26.3203C26.3203 6.13813 26.4737 5.50972 26.7116 5.13346C26.9252 4.79584 27.2276 4.625 27.6953 4.625V3.625ZM25.3203 7.08984C25.3203 8.38929 25.5778 9.45639 26.1768 10.2058C26.7929 10.9765 27.702 11.3281 28.8086 11.3281V10.3281C27.923 10.3281 27.3379 10.0567 26.9579 9.58136C26.5609 9.08463 26.3203 8.28258 26.3203 7.08984H25.3203ZM28.8086 11.3281C29.659 11.3281 30.5351 11.1537 31.4338 10.8156L31.0818 9.87967C30.2774 10.1822 29.5207 10.3281 28.8086 10.3281V11.3281ZM30.7592 10.3105L30.6772 11.4121L31.6744 11.4863L31.7564 10.3848L30.7592 10.3105ZM30.9068 11.0278C30.5927 11.2282 30.2023 11.3933 29.7268 11.5158L29.9763 12.4842C30.5321 12.341 31.0245 12.139 31.4448 11.8707L30.9068 11.0278ZM29.7321 11.5145C29.2672 11.6289 28.7647 11.6875 28.2227 11.6875V12.6875C28.8369 12.6875 29.4203 12.6211 29.9711 12.4855L29.7321 11.5145ZM25.0664 7.88672V6.92578H24.0664V7.88672H25.0664ZM24.5664 7.42578H31.293V6.42578H24.5664V7.42578ZM30.8022 7.02154L30.9897 7.98247L31.9712 7.79096L31.7837 6.83003L30.8022 7.02154ZM31.4805 7.38672H24.5664V8.38672H31.4805V7.38672ZM40.9141 12L40.5197 12.3074C40.6145 12.4289 40.76 12.5 40.9141 12.5V12ZM36.7305 6.63281H36.2305C36.2305 6.74418 36.2677 6.85236 36.3361 6.9402L36.7305 6.63281ZM36.7305 5.97656L36.3449 5.65826C36.2709 5.74785 36.2305 5.86039 36.2305 5.97656H36.7305ZM40.832 1.00781L41.2813 1.22723C41.3925 0.999538 41.3158 0.724661 41.1028 0.587454C40.8897 0.450248 40.6077 0.494097 40.4464 0.689513L40.832 1.00781ZM40.5859 1.51172L40.4802 2.00041C40.7051 2.04909 40.9342 1.93794 41.0352 1.73114L40.5859 1.51172ZM39.0156 1.17188L38.5171 1.1341C38.4982 1.38305 38.6659 1.60775 38.9099 1.66056L39.0156 1.17188ZM39.0742 0.398438V-0.101562C38.8127 -0.101562 38.5954 0.0999231 38.5756 0.360667L39.0742 0.398438ZM43.3516 0.398438L43.85 0.437381C43.8609 0.298429 43.8133 0.161252 43.7186 0.0589319C43.624 -0.0433878 43.4909 -0.101562 43.3516 -0.101562V0.398438ZM43.293 1.14844L43.5236 1.59205C43.6768 1.51242 43.778 1.35945 43.7914 1.18738L43.293 1.14844ZM42.6367 1.41797L42.7761 1.89814C42.7808 1.89677 42.7855 1.89533 42.7902 1.89382L42.6367 1.41797ZM41.8867 1.59375L41.5878 1.19294C41.4017 1.33172 41.3356 1.58033 41.4282 1.7932C41.5208 2.00607 41.7478 2.12721 41.9762 2.08568L41.8867 1.59375ZM42.5781 1.07812L42.9628 1.39754C43.1246 1.20269 43.1151 0.917622 42.9408 0.733918C42.7664 0.550213 42.4822 0.525898 42.2792 0.677311L42.5781 1.07812ZM38.2188 6.32812L37.7214 6.37979C37.7422 6.57994 37.881 6.74812 38.0735 6.80657C38.2661 6.86502 38.4749 6.80235 38.6034 6.64754L38.2188 6.32812ZM38.125 5.42578L38.5127 5.11001C38.3731 4.93861 38.1375 4.87923 37.9333 4.964C37.7291 5.04877 37.6048 5.25756 37.6277 5.47745L38.125 5.42578ZM42.8594 11.2383L42.6515 11.693C42.8628 11.7896 43.1129 11.7279 43.255 11.5441C43.3971 11.3602 43.3938 11.1027 43.247 10.9225L42.8594 11.2383ZM42.0391 10.8633L42.1378 10.3731C41.8889 10.323 41.6419 10.4674 41.5635 10.7089C41.4851 10.9505 41.6002 11.2124 41.8312 11.318L42.0391 10.8633ZM43.6094 11.1797L44.1081 11.2153C44.126 10.9644 43.9547 10.7392 43.7081 10.6895L43.6094 11.1797ZM43.5508 12V12.5C43.8131 12.5 44.0308 12.2973 44.0495 12.0356L43.5508 12ZM34.2109 11.8242H33.7109C33.7109 12.1004 33.9348 12.3242 34.2109 12.3242V11.8242ZM34.2109 0.585938V0.0859375C33.9348 0.0859375 33.7109 0.309795 33.7109 0.585938H34.2109ZM36.1797 0.585938H36.6797C36.6797 0.309795 36.4558 0.0859375 36.1797 0.0859375V0.585938ZM36.1797 11.8242V12.3242C36.4558 12.3242 36.6797 12.1004 36.6797 11.8242H36.1797ZM35.207 6.90234H34.707C34.707 7.17849 34.9309 7.40234 35.207 7.40234V6.90234ZM35.207 5.68359V5.18359C34.9309 5.18359 34.707 5.40745 34.707 5.68359H35.207ZM38.2773 5.68359H38.7773C38.7773 5.40745 38.5535 5.18359 38.2773 5.18359V5.68359ZM38.2773 6.90234V7.40234C38.5535 7.40234 38.7773 7.17849 38.7773 6.90234H38.2773ZM32.8984 12L32.4 11.9611C32.3891 12.1 32.4367 12.2372 32.5314 12.3395C32.626 12.4418 32.7591 12.5 32.8984 12.5V12ZM32.957 11.25L32.7698 10.7864C32.5939 10.8574 32.4733 11.0219 32.4586 11.2111L32.957 11.25ZM34.4453 10.793L34.9284 10.9218C34.9738 10.7516 34.9263 10.57 34.8033 10.4439C34.6803 10.3177 34.4999 10.2657 34.3286 10.3068L34.4453 10.793ZM34.2109 11.6719H33.7109C33.7109 11.9229 33.8971 12.135 34.146 12.1676C34.3949 12.2003 34.6294 12.0433 34.6941 11.8007L34.2109 11.6719ZM34.2109 10.0312V9.53125C33.9348 9.53125 33.7109 9.75511 33.7109 10.0312H34.2109ZM36.1797 10.0312H36.6797C36.6797 9.75511 36.4558 9.53125 36.1797 9.53125V10.0312ZM36.1797 11.6719L35.695 11.7948C35.7571 12.0393 35.9914 12.1993 36.2416 12.168C36.4919 12.1368 36.6797 11.9241 36.6797 11.6719H36.1797ZM35.9805 10.8867L36.087 10.3982C35.9177 10.3613 35.7414 10.4146 35.621 10.5392C35.5006 10.6637 35.4532 10.8418 35.4958 11.0097L35.9805 10.8867ZM37.5391 11.2266L38.0376 11.2643C38.0565 11.0157 37.8892 10.7912 37.6456 10.738L37.5391 11.2266ZM37.4805 12V12.5C37.742 12.5 37.9593 12.2985 37.979 12.0378L37.4805 12ZM37.4922 0.398438L37.9907 0.437381C38.0015 0.298429 37.9539 0.161252 37.8593 0.0589319C37.7646 -0.0433878 37.6316 -0.101562 37.4922 -0.101562V0.398438ZM37.4336 1.14844L37.6208 1.61206C37.7967 1.54101 37.9173 1.37653 37.9321 1.18738L37.4336 1.14844ZM35.9453 1.60547L35.4622 1.47664C35.4168 1.64687 35.4643 1.82843 35.5874 1.95456C35.7104 2.0807 35.8907 2.13278 36.062 2.09166L35.9453 1.60547ZM36.1797 0.726562H36.6797C36.6797 0.475533 36.4936 0.263418 36.2447 0.230801C35.9958 0.198184 35.7613 0.355178 35.6966 0.597731L36.1797 0.726562ZM36.1797 2.36719V2.86719C36.4558 2.86719 36.6797 2.64333 36.6797 2.36719H36.1797ZM34.2109 2.36719H33.7109C33.7109 2.64333 33.9348 2.86719 34.2109 2.86719V2.36719ZM34.2109 0.726562L34.6956 0.603593C34.6336 0.359156 34.3992 0.199165 34.149 0.230417C33.8987 0.261668 33.7109 0.47438 33.7109 0.726562H34.2109ZM34.4102 1.51172L34.3036 2.00024C34.4729 2.03715 34.6492 1.9838 34.7696 1.85925C34.8901 1.73469 34.9374 1.55668 34.8948 1.38875L34.4102 1.51172ZM32.8516 1.17188L32.353 1.1341C32.3342 1.38275 32.5014 1.60727 32.745 1.6604L32.8516 1.17188ZM32.9102 0.398438V-0.101562C32.6487 -0.101562 32.4313 0.0999231 32.4116 0.360667L32.9102 0.398438ZM41.3084 11.6926L37.1248 6.32543L36.3361 6.9402L40.5197 12.3074L41.3084 11.6926ZM37.2305 6.63281V5.97656H36.2305V6.63281H37.2305ZM37.1161 6.29486L41.2176 1.32611L40.4464 0.689513L36.3449 5.65826L37.1161 6.29486ZM40.3827 0.788395L40.1367 1.2923L41.0352 1.73114L41.2813 1.22723L40.3827 0.788395ZM40.6917 1.02303L39.1214 0.683188L38.9099 1.66056L40.4802 2.00041L40.6917 1.02303ZM39.5142 1.20965L39.5728 0.436208L38.5756 0.360667L38.5171 1.1341L39.5142 1.20965ZM39.0742 0.898438H43.3516V-0.101562H39.0742V0.898438ZM42.8531 0.359494L42.7945 1.10949L43.7914 1.18738L43.85 0.437381L42.8531 0.359494ZM43.0623 0.704829C42.8952 0.7917 42.7028 0.871272 42.4832 0.942114L42.7902 1.89382C43.055 1.80842 43.3001 1.7083 43.5236 1.59205L43.0623 0.704829ZM42.4973 0.937796C42.2722 1.00315 42.0389 1.05788 41.7973 1.10182L41.9762 2.08568C42.2502 2.03587 42.5169 1.97341 42.7761 1.89814L42.4973 0.937796ZM42.1856 1.99456L42.877 1.47894L42.2792 0.677311L41.5878 1.19294L42.1856 1.99456ZM42.1935 0.758709L37.8341 6.00871L38.6034 6.64754L42.9628 1.39754L42.1935 0.758709ZM38.7161 6.27646L38.6223 5.37411L37.6277 5.47745L37.7214 6.37979L38.7161 6.27646ZM37.7373 5.74155L42.4717 11.554L43.247 10.9225L38.5127 5.11001L37.7373 5.74155ZM43.0673 10.7835L42.2469 10.4085L41.8312 11.318L42.6515 11.693L43.0673 10.7835ZM41.9403 11.3534L43.5106 11.6698L43.7081 10.6895L42.1378 10.3731L41.9403 11.3534ZM43.1106 11.1441L43.0521 11.9644L44.0495 12.0356L44.1081 11.2153L43.1106 11.1441ZM43.5508 11.5H40.9141V12.5H43.5508V11.5ZM34.7109 11.8242V0.585938H33.7109V11.8242H34.7109ZM34.2109 1.08594H36.1797V0.0859375H34.2109V1.08594ZM35.6797 0.585938V11.8242H36.6797V0.585938H35.6797ZM36.1797 11.3242H34.2109V12.3242H36.1797V11.3242ZM35.707 6.90234V5.68359H34.707V6.90234H35.707ZM35.207 6.18359H38.2773V5.18359H35.207V6.18359ZM37.7773 5.68359V6.90234H38.7773V5.68359H37.7773ZM38.2773 6.40234H35.207V7.40234H38.2773V6.40234ZM33.3969 12.0389L33.4555 11.2889L32.4586 11.2111L32.4 11.9611L33.3969 12.0389ZM33.1443 11.7136C33.5209 11.5615 33.9919 11.416 34.562 11.2792L34.3286 10.3068C33.7269 10.4512 33.2057 10.6104 32.7698 10.7864L33.1443 11.7136ZM33.9622 10.6641L33.7278 11.543L34.6941 11.8007L34.9284 10.9218L33.9622 10.6641ZM34.7109 11.6719V10.0312H33.7109V11.6719H34.7109ZM34.2109 10.5312H36.1797V9.53125H34.2109V10.5312ZM35.6797 10.0312V11.6719H36.6797V10.0312H35.6797ZM36.6643 11.5489L36.4651 10.7637L35.4958 11.0097L35.695 11.7948L36.6643 11.5489ZM35.8739 11.3752L37.4325 11.7151L37.6456 10.738L36.087 10.3982L35.8739 11.3752ZM37.0405 11.1888L36.9819 11.9622L37.979 12.0378L38.0376 11.2643L37.0405 11.1888ZM37.4805 11.5H32.8984V12.5H37.4805V11.5ZM36.9937 0.359494L36.9351 1.10949L37.9321 1.18738L37.9907 0.437381L36.9937 0.359494ZM37.2464 0.684817C36.8697 0.836915 36.3988 0.982444 35.8286 1.11928L36.062 2.09166C36.6637 1.94724 37.185 1.78808 37.6208 1.61206L37.2464 0.684817ZM36.4284 1.7343L36.6628 0.855394L35.6966 0.597731L35.4622 1.47664L36.4284 1.7343ZM35.6797 0.726562V2.36719H36.6797V0.726562H35.6797ZM36.1797 1.86719H34.2109V2.86719H36.1797V1.86719ZM34.7109 2.36719V0.726562H33.7109V2.36719H34.7109ZM33.7263 0.849532L33.9255 1.63469L34.8948 1.38875L34.6956 0.603593L33.7263 0.849532ZM34.5167 1.0232L32.9581 0.683353L32.745 1.6604L34.3036 2.00024L34.5167 1.0232ZM33.3501 1.20965L33.4087 0.436208L32.4116 0.360667L32.353 1.1341L33.3501 1.20965ZM32.9102 0.898438H37.4922V-0.101562H32.9102V0.898438ZM47.5234 16.125L47.457 16.6206C47.6851 16.6512 47.9047 16.522 47.9889 16.3077L47.5234 16.125ZM45.7305 15.6094L45.2865 15.3793C45.2238 15.5004 45.2132 15.6418 45.2573 15.7708C45.3013 15.8999 45.3961 16.0053 45.5197 16.0628L45.7305 15.6094ZM47.7344 11.7422L47.4191 11.3541C47.3658 11.3974 47.322 11.4512 47.2904 11.5121L47.7344 11.7422ZM48.1094 11.4375L48.4247 11.8256C48.494 11.7692 48.547 11.6953 48.5781 11.6116L48.1094 11.4375ZM50.8516 4.05469L51.3397 3.94622C51.2916 3.7299 51.1069 3.57102 50.8858 3.55586C50.6647 3.5407 50.46 3.67286 50.3828 3.88059L50.8516 4.05469ZM50.9219 4.37109L50.7955 4.85486C50.9641 4.8989 51.1434 4.85201 51.2688 4.73111C51.3943 4.6102 51.4478 4.43271 51.41 4.26263L50.9219 4.37109ZM49.6211 4.03125L49.1225 3.99348C49.1043 4.23442 49.2609 4.45393 49.4947 4.51501L49.6211 4.03125ZM49.6797 3.25781V2.75781C49.4182 2.75781 49.2009 2.9593 49.1811 3.22004L49.6797 3.25781ZM53.0312 3.25781L53.5297 3.29676C53.5406 3.1578 53.493 3.02063 53.3983 2.91831C53.3037 2.81599 53.1706 2.75781 53.0312 2.75781V3.25781ZM52.9727 4.00781L53.2358 4.43295C53.3713 4.34907 53.4587 4.20563 53.4711 4.04676L52.9727 4.00781ZM52.3984 4.27734L52.5514 4.75336C52.5565 4.75172 52.5616 4.75001 52.5666 4.74821L52.3984 4.27734ZM51.7305 4.46484L51.4291 4.06591C51.24 4.20872 51.1772 4.46456 51.2785 4.67869C51.3798 4.89283 51.6175 5.00647 51.8478 4.95088L51.7305 4.46484ZM52.2578 4.06641L52.7232 4.24913C52.805 4.04073 52.7384 3.80335 52.56 3.66804C52.3816 3.53274 52.135 3.53251 51.9564 3.66747L52.2578 4.06641ZM47.6875 12.6094L47.2206 12.7882C47.2705 12.9185 47.3725 13.0219 47.502 13.0737C47.6315 13.1254 47.7767 13.1207 47.9026 13.0607L47.6875 12.6094ZM44.4062 4.04297L44.6704 3.61844C44.4881 3.50498 44.2536 3.52064 44.088 3.65734C43.9223 3.79405 43.8625 4.02126 43.9393 4.22182L44.4062 4.04297ZM44.9336 4.37109L44.818 4.85754C45.0564 4.91422 45.3008 4.78971 45.3951 4.56349C45.4894 4.33727 45.4058 4.07605 45.1977 3.94657L44.9336 4.37109ZM43.5039 4.03125L43.0053 3.99348C42.9868 4.23859 43.1491 4.46085 43.3883 4.5177L43.5039 4.03125ZM43.5625 3.25781V2.75781C43.301 2.75781 43.0837 2.9593 43.0639 3.22004L43.5625 3.25781ZM47.6406 3.25781L48.1392 3.29558C48.1497 3.15681 48.1019 3.01993 48.0073 2.91788C47.9127 2.81582 47.7798 2.75781 47.6406 2.75781V3.25781ZM47.582 4.03125L47.797 4.48268C47.9589 4.40561 48.0671 4.24778 48.0806 4.06902L47.582 4.03125ZM46.3164 4.44141L45.8656 4.22504C45.7821 4.3991 45.8062 4.60571 45.9276 4.75583C46.0491 4.90595 46.246 4.97275 46.4337 4.92745L46.3164 4.44141ZM46.457 4.14844L46.9291 3.98357C46.8623 3.79249 46.687 3.66049 46.4849 3.64921C46.2828 3.63794 46.0939 3.7496 46.0063 3.93207L46.457 4.14844ZM48.9414 11.2617H49.4414C49.4414 11.2056 49.432 11.1499 49.4134 11.0969L48.9414 11.2617ZM48.9414 12.0117L49.1565 12.4631C49.3306 12.3801 49.4414 12.2045 49.4414 12.0117H48.9414ZM47.5899 15.6294C46.9964 15.5498 46.4477 15.3914 45.9412 15.156L45.5197 16.0628C46.1226 16.343 46.7692 16.5283 47.457 16.6206L47.5899 15.6294ZM46.1744 15.8394L48.1783 11.9722L47.2904 11.5121L45.2865 15.3793L46.1744 15.8394ZM48.0497 12.1302L48.4247 11.8256L47.7941 11.0494L47.4191 11.3541L48.0497 12.1302ZM48.5781 11.6116L51.3203 4.22878L50.3828 3.88059L47.6407 11.2634L48.5781 11.6116ZM50.3635 4.16315L50.4338 4.47956L51.41 4.26263L51.3397 3.94622L50.3635 4.16315ZM51.0483 3.88733L49.7475 3.54749L49.4947 4.51501L50.7955 4.85486L51.0483 3.88733ZM50.1197 4.06902L50.1783 3.29558L49.1811 3.22004L49.1225 3.99348L50.1197 4.06902ZM49.6797 3.75781H53.0312V2.75781H49.6797V3.75781ZM52.5328 3.21887L52.4742 3.96887L53.4711 4.04676L53.5297 3.29676L52.5328 3.21887ZM52.7095 3.58268C52.5807 3.66239 52.4223 3.73789 52.2303 3.80647L52.5666 4.74821C52.8121 4.66055 53.0365 4.55636 53.2358 4.43295L52.7095 3.58268ZM52.2454 3.80133C52.0386 3.86781 51.8279 3.92697 51.6131 3.9788L51.8478 4.95088C52.0862 4.89334 52.3208 4.82751 52.5514 4.75336L52.2454 3.80133ZM52.0319 4.86378L52.5592 4.46534L51.9564 3.66747L51.4291 4.06591L52.0319 4.86378ZM51.7924 3.88368L47.058 15.9423L47.9889 16.3077L52.7232 4.24913L51.7924 3.88368ZM48.1544 12.4305L44.8732 3.86412L43.9393 4.22182L47.2206 12.7882L48.1544 12.4305ZM44.1421 4.4675L44.6694 4.79562L45.1977 3.94657L44.6704 3.61844L44.1421 4.4675ZM45.0492 3.88465L43.6195 3.5448L43.3883 4.5177L44.818 4.85754L45.0492 3.88465ZM44.0025 4.06902L44.0611 3.29558L43.0639 3.22004L43.0053 3.99348L44.0025 4.06902ZM43.5625 3.75781H47.6406V2.75781H43.5625V3.75781ZM47.1421 3.22004L47.0835 3.99348L48.0806 4.06902L48.1392 3.29558L47.1421 3.22004ZM47.3671 3.57982C47.23 3.6451 47.0581 3.71114 46.8479 3.77637L47.1443 4.73144C47.3872 4.65605 47.606 4.57365 47.797 4.48268L47.3671 3.57982ZM46.8479 3.77637C46.6314 3.84358 46.4151 3.90323 46.1991 3.95537L46.4337 4.92745C46.6709 4.87021 46.9077 4.80486 47.1443 4.73144L46.8479 3.77637ZM46.7672 4.65777L46.9078 4.3648L46.0063 3.93207L45.8656 4.22504L46.7672 4.65777ZM45.985 4.3133L48.4694 11.4266L49.4134 11.0969L46.9291 3.98357L45.985 4.3133ZM48.4414 11.2617V12.0117H49.4414V11.2617H48.4414ZM48.7263 11.5604L47.4724 12.158L47.9026 13.0607L49.1565 12.4631L48.7263 11.5604ZM54.4961 4.14844L54.5304 3.64961C54.3921 3.64011 54.2562 3.6884 54.1549 3.78296C54.0536 3.87752 53.9961 4.00987 53.9961 4.14844H54.4961ZM56.3711 4.27734H56.8711C56.8711 4.01451 56.6676 3.79655 56.4054 3.77852L56.3711 4.27734ZM56.7109 10.4414L56.3215 10.7551L56.3268 10.7615L56.7109 10.4414ZM60.3203 9.82031L60.7809 9.62583C60.72 9.48145 60.5948 9.374 60.4429 9.33558C60.291 9.29715 60.1298 9.33218 60.0075 9.43022L60.3203 9.82031ZM60.543 10.3477L60.9243 10.6711C61.0463 10.5272 61.077 10.3269 61.0036 10.1532L60.543 10.3477ZM54.4961 5.51953H53.9961C53.9961 5.67246 54.0661 5.81699 54.1861 5.91181C54.3061 6.00664 54.4628 6.04134 54.6116 6.006L54.4961 5.51953ZM54.4961 4.3125L54.9248 4.05525C54.8092 3.86254 54.5792 3.77065 54.3626 3.83064C54.146 3.89063 53.9961 4.08776 53.9961 4.3125H54.4961ZM54.7773 4.78125L54.5613 5.23219C54.7604 5.32754 54.9985 5.28108 55.1471 5.11785C55.2957 4.95463 55.3197 4.71328 55.2061 4.524L54.7773 4.78125ZM53.3828 4.11328L52.8853 4.06353C52.8643 4.27306 52.9769 4.47325 53.1668 4.56422L53.3828 4.11328ZM53.4414 3.52734L53.2849 3.05247C53.0972 3.11432 52.9636 3.28094 52.9439 3.47759L53.4414 3.52734ZM55.8555 3.15234V2.65218L55.8428 2.65251L55.8555 3.15234ZM56.3711 3.15234H56.8711C56.8711 2.8762 56.6472 2.65234 56.3711 2.65234V3.15234ZM56.3711 5.07422L56.4866 5.56069C56.712 5.50716 56.8711 5.30585 56.8711 5.07422H56.3711ZM61.5977 11.3086L61.4764 11.7937C61.6258 11.831 61.784 11.7975 61.9054 11.7027C62.0267 11.6079 62.0977 11.4626 62.0977 11.3086H61.5977ZM59.7227 10.8398H59.2227C59.2227 11.0693 59.3788 11.2693 59.6014 11.3249L59.7227 10.8398ZM59.7227 4.17188L59.7538 3.67285C59.6161 3.66424 59.4809 3.71296 59.3803 3.80746C59.2797 3.90197 59.2227 4.03385 59.2227 4.17188H59.7227ZM61.5977 4.28906H62.0977C62.0977 4.02503 61.8924 3.80651 61.6288 3.79004L61.5977 4.28906ZM59.7227 5.51953H59.2227C59.2227 5.6735 59.2936 5.81888 59.415 5.91363C59.5363 6.00839 59.6946 6.04195 59.8439 6.0046L59.7227 5.51953ZM59.7227 4.3125L60.1542 4.05991C60.0401 3.86509 59.8097 3.77085 59.5918 3.82993C59.3739 3.88901 59.2227 4.08675 59.2227 4.3125H59.7227ZM60.0039 4.79297L59.7888 5.24433C59.987 5.33879 60.2236 5.2929 60.3721 5.13121C60.5207 4.96951 60.5463 4.72985 60.4354 4.54038L60.0039 4.79297ZM58.5039 4.07812L58.006 4.03286C57.987 4.24128 58.0999 4.43945 58.2888 4.52949L58.5039 4.07812ZM58.5508 3.5625L58.3839 3.09119C58.1998 3.15638 58.0705 3.32276 58.0528 3.51723L58.5508 3.5625ZM59.7695 3.26953L59.8403 3.76458L59.8489 3.7632L59.7695 3.26953ZM61.082 3.15234V2.65226L61.0731 2.65242L61.082 3.15234ZM61.5977 3.15234H62.0977C62.0977 2.8762 61.8738 2.65234 61.5977 2.65234V3.15234ZM61.5977 5.05078L61.7189 5.53585C61.9415 5.48021 62.0977 5.28022 62.0977 5.05078H61.5977ZM60.2383 12.0352L59.7546 12.1617C59.8114 12.3789 60.006 12.5316 60.2305 12.5351L60.2383 12.0352ZM59.8398 10.5117L59.7021 10.0311C59.441 10.1059 59.2874 10.3755 59.3561 10.6382L59.8398 10.5117ZM61.5977 10.0078H62.0977C62.0977 9.85084 62.0239 9.70298 61.8986 9.60851C61.7732 9.51403 61.6108 9.48392 61.4599 9.52717L61.5977 10.0078ZM61.5977 11.2852L61.1595 11.5261C61.2695 11.7261 61.501 11.8262 61.722 11.7694C61.9431 11.7127 62.0977 11.5134 62.0977 11.2852H61.5977ZM61.3398 10.8164L61.4777 10.3358C61.2836 10.2801 61.0751 10.3467 60.9491 10.5045C60.8231 10.6623 60.8044 10.8804 60.9017 11.0574L61.3398 10.8164ZM62.7695 11.2266L63.2677 11.2695C63.2882 11.0313 63.1372 10.8119 62.9074 10.7459L62.7695 11.2266ZM62.7109 11.9062L62.7892 12.4001C63.0162 12.3641 63.1894 12.1781 63.2091 11.9492L62.7109 11.9062ZM56.9453 11.6992C56.2215 11.6992 55.7659 11.4992 55.4813 11.1806C55.1871 10.8512 54.9961 10.3071 54.9961 9.45703H53.9961C53.9961 10.4351 54.2133 11.2621 54.7355 11.8467C55.2673 12.4422 56.0363 12.6992 56.9453 12.6992V11.6992ZM54.9961 9.45703V4.14844H53.9961V9.45703H54.9961ZM54.4618 4.64726L56.3368 4.77617L56.4054 3.77852L54.5304 3.64961L54.4618 4.64726ZM55.8711 4.27734V9.08203H56.8711V4.27734H55.8711ZM55.8711 9.08203C55.8711 9.74587 55.9873 10.3401 56.3216 10.7551L57.1003 10.1277C56.9814 9.98017 56.8711 9.66819 56.8711 9.08203H55.8711ZM56.3268 10.7615C56.6876 11.1944 57.2214 11.3633 57.8125 11.3633V10.3633C57.4036 10.3633 57.203 10.2509 57.095 10.1213L56.3268 10.7615ZM57.8125 11.3633C58.7674 11.3633 59.7106 10.95 60.6331 10.2104L60.0075 9.43022C59.1956 10.0812 58.4669 10.3633 57.8125 10.3633V11.3633ZM59.8597 10.0148L60.0823 10.5421L61.0036 10.1532L60.7809 9.62583L59.8597 10.0148ZM60.1616 10.0243C59.1891 11.171 58.1208 11.6992 56.9453 11.6992V12.6992C58.4729 12.6992 59.8031 11.9931 60.9243 10.6711L60.1616 10.0243ZM54.9961 5.51953V4.3125H53.9961V5.51953H54.9961ZM54.0673 4.56975L54.3486 5.0385L55.2061 4.524L54.9248 4.05525L54.0673 4.56975ZM54.9933 4.33031L53.5988 3.66234L53.1668 4.56422L54.5613 5.23219L54.9933 4.33031ZM53.8803 4.16303L53.9389 3.5771L52.9439 3.47759L52.8853 4.06353L53.8803 4.16303ZM53.5979 4.00222C54.2283 3.79449 54.9825 3.6747 55.8682 3.65218L55.8428 2.65251C54.8847 2.67686 54.0295 2.80707 53.2849 3.05247L53.5979 4.00222ZM55.8555 3.65234H56.3711V2.65234H55.8555V3.65234ZM55.8711 3.15234V5.07422H56.8711V3.15234H55.8711ZM56.2556 4.58775L54.3806 5.03306L54.6116 6.006L56.4866 5.56069L56.2556 4.58775ZM61.7189 10.8235L59.8439 10.3548L59.6014 11.3249L61.4764 11.7937L61.7189 10.8235ZM60.2227 10.8398V4.17188H59.2227V10.8398H60.2227ZM59.6915 4.6709L61.5665 4.78809L61.6288 3.79004L59.7538 3.67285L59.6915 4.6709ZM61.0977 4.28906V11.3086H62.0977V4.28906H61.0977ZM60.2227 5.51953V4.3125H59.2227V5.51953H60.2227ZM59.2911 4.56509L59.5724 5.04556L60.4354 4.54038L60.1542 4.05991L59.2911 4.56509ZM60.219 4.3416L58.719 3.62676L58.2888 4.52949L59.7888 5.24433L60.219 4.3416ZM59.0019 4.12339L59.0487 3.60777L58.0528 3.51723L58.006 4.03286L59.0019 4.12339ZM58.7177 4.03381C59.0583 3.91319 59.432 3.82283 59.8402 3.76451L59.6988 2.77456C59.2321 2.84123 58.7933 2.94618 58.3839 3.09119L58.7177 4.03381ZM59.8489 3.7632C60.2634 3.69658 60.6773 3.65965 61.091 3.65226L61.0731 2.65242C60.6117 2.66066 60.1507 2.70186 59.6902 2.77587L59.8489 3.7632ZM61.082 3.65234H61.5977V2.65234H61.082V3.65234ZM61.0977 3.15234V5.05078H62.0977V3.15234H61.0977ZM61.4764 4.56571L59.6014 5.03446L59.8439 6.0046L61.7189 5.53585L61.4764 4.56571ZM60.722 11.9086L60.3236 10.3852L59.3561 10.6382L59.7546 12.1617L60.722 11.9086ZM59.9776 10.9924L61.7354 10.4885L61.4599 9.52717L59.7021 10.0311L59.9776 10.9924ZM61.0977 10.0078V11.2852H62.0977V10.0078H61.0977ZM62.0358 11.0442L61.778 10.5754L60.9017 11.0574L61.1595 11.5261L62.0358 11.0442ZM61.202 11.297L62.6317 11.7072L62.9074 10.7459L61.4777 10.3358L61.202 11.297ZM62.2714 11.1836L62.2128 11.8633L63.2091 11.9492L63.2677 11.2695L62.2714 11.1836ZM62.6326 11.4124C62.0315 11.5077 61.239 11.5506 60.246 11.5352L60.2305 12.5351C61.2532 12.551 62.1091 12.5079 62.7892 12.4001L62.6326 11.4124ZM70.5391 11.9297H70.0391C70.0391 12.2058 70.2629 12.4297 70.5391 12.4297V11.9297ZM66.5312 5.40234L66.067 5.58804C66.1257 5.73464 66.2501 5.84492 66.4027 5.88553C66.5552 5.92613 66.718 5.89228 66.8418 5.79422L66.5312 5.40234ZM66.2969 4.81641L65.9154 4.4932C65.7957 4.63444 65.7639 4.83023 65.8326 5.0021L66.2969 4.81641ZM71.7578 3.73828L71.3981 4.08559L71.4011 4.08869L71.7578 3.73828ZM72.4141 11.9297V12.4297C72.6902 12.4297 72.9141 12.2058 72.9141 11.9297H72.4141ZM65.2422 11.9297H64.7422C64.7422 12.2058 64.966 12.4297 65.2422 12.4297V11.9297ZM65.2422 4.10156L65.3691 3.61795C65.2192 3.57859 65.0595 3.61099 64.9368 3.70566C64.8141 3.80033 64.7422 3.94656 64.7422 4.10156H65.2422ZM67.1172 4.59375H67.6172C67.6172 4.3665 67.4639 4.16783 67.2441 4.11013L67.1172 4.59375ZM67.1172 11.9297V12.4297C67.3933 12.4297 67.6172 12.2058 67.6172 11.9297H67.1172ZM64.0469 12L63.5486 11.9585C63.537 12.0978 63.5843 12.2357 63.6789 12.3386C63.7736 12.4415 63.907 12.5 64.0469 12.5V12ZM64.1055 11.2969L63.8881 10.8466C63.7287 10.9235 63.6219 11.079 63.6072 11.2554L64.1055 11.2969ZM65.4648 10.8398L65.9491 10.9642C65.9928 10.7942 65.9441 10.6138 65.8209 10.4889C65.6978 10.3639 65.5181 10.3126 65.3475 10.3538L65.4648 10.8398ZM65.2422 11.707H64.7422C64.7422 11.9589 64.9296 12.1715 65.1795 12.2031C65.4294 12.2347 65.6638 12.0754 65.7265 11.8314L65.2422 11.707ZM65.2422 10.1016V9.60156C64.966 9.60156 64.7422 9.82542 64.7422 10.1016H65.2422ZM67.1172 10.1016H67.6172C67.6172 9.82542 67.3933 9.60156 67.1172 9.60156V10.1016ZM67.1172 11.707L66.6313 11.8248C66.6909 12.0709 66.9251 12.2335 67.1765 12.2035C67.4279 12.1735 67.6172 11.9602 67.6172 11.707H67.1172ZM66.9297 10.9336L67.0453 10.4471C66.8761 10.4069 66.6981 10.4575 66.5753 10.5808C66.4526 10.7041 66.4028 10.8823 66.4438 11.0514L66.9297 10.9336ZM68.3594 11.2734L68.8578 11.3136C68.8776 11.0677 68.7151 10.8441 68.475 10.787L68.3594 11.2734ZM68.3008 12V12.5C68.5613 12.5 68.7782 12.2999 68.7992 12.0402L68.3008 12ZM69.5547 12L69.0562 11.9611C69.0454 12.1 69.093 12.2372 69.1876 12.3395C69.2823 12.4418 69.4153 12.5 69.5547 12.5V12ZM69.6133 11.25L69.3813 10.8071C69.2289 10.8869 69.1282 11.0395 69.1148 11.2111L69.6133 11.25ZM70.1406 11.0273L70.2987 11.5017C70.3046 11.4997 70.3104 11.4977 70.3162 11.4955L70.1406 11.0273ZM70.7617 10.8398L71.246 10.9642C71.2896 10.7942 71.241 10.6138 71.1178 10.4889C70.9946 10.3639 70.815 10.3126 70.6444 10.3538L70.7617 10.8398ZM70.5391 11.707H70.0391C70.0391 11.9589 70.2265 12.1715 70.4764 12.2031C70.7263 12.2347 70.9607 12.0754 71.0234 11.8314L70.5391 11.707ZM70.5391 10.1016V9.60156C70.2629 9.60156 70.0391 9.82542 70.0391 10.1016H70.5391ZM72.4141 10.1016H72.9141C72.9141 9.82542 72.6902 9.60156 72.4141 9.60156V10.1016ZM72.4141 11.707L71.9281 11.8248C71.9878 12.0709 72.222 12.2335 72.4734 12.2035C72.7248 12.1735 72.9141 11.9602 72.9141 11.707H72.4141ZM72.2266 10.9336L72.3422 10.4471C72.1729 10.4069 71.995 10.4575 71.8722 10.5808C71.7495 10.7041 71.6997 10.8823 71.7406 11.0514L72.2266 10.9336ZM73.6562 11.2734L74.1546 11.3136C74.1745 11.0677 74.0119 10.8441 73.7719 10.787L73.6562 11.2734ZM73.5977 12V12.5C73.8582 12.5 74.0751 12.2999 74.096 12.0402L73.5977 12ZM65.2422 6.03516H64.7422C64.7422 6.21295 64.8366 6.37738 64.9902 6.46699C65.1437 6.55661 65.3333 6.55794 65.4881 6.47049L65.2422 6.03516ZM65.2422 4.53516L65.6811 4.29573C65.5717 4.09508 65.3401 3.99419 65.1186 4.05066C64.8972 4.10713 64.7422 4.3066 64.7422 4.53516H65.2422ZM65.5234 5.05078L65.3077 5.50185C65.5034 5.59543 65.7371 5.55219 65.8863 5.3948C66.0355 5.23741 66.0662 5.00176 65.9624 4.81136L65.5234 5.05078ZM63.9062 4.27734L63.4085 4.22994C63.3886 4.43881 63.5012 4.63788 63.6905 4.72841L63.9062 4.27734ZM63.9531 3.78516L63.7462 3.32997C63.5833 3.40404 63.4723 3.55956 63.4554 3.73775L63.9531 3.78516ZM66.6016 3.15234L67.0879 3.03612C67.0301 2.79449 66.8037 2.6319 66.5563 2.6544L66.6016 3.15234ZM67.0469 5.01562L67.2928 5.45096C67.487 5.34128 67.585 5.11628 67.5332 4.8994L67.0469 5.01562ZM71.0391 11.9297V6.02344H70.0391V11.9297H71.0391ZM71.0391 6.02344C71.0391 5.41577 70.8929 4.86736 70.5124 4.47241C70.1285 4.07401 69.5897 3.91797 68.9922 3.91797V4.91797C69.4259 4.91797 69.6605 5.02951 69.7923 5.16626C69.9274 5.30647 70.0391 5.5608 70.0391 6.02344H71.0391ZM68.9922 3.91797C68.037 3.91797 67.1104 4.30542 66.2207 5.01047L66.8418 5.79422C67.6083 5.18677 68.3224 4.91797 68.9922 4.91797V3.91797ZM66.9955 5.21665L66.7611 4.63071L65.8326 5.0021L66.067 5.58804L66.9955 5.21665ZM66.6784 5.13961C67.1139 4.62559 67.6073 4.23624 68.1588 3.96397L67.7162 3.06728C67.0333 3.40439 66.433 3.88223 65.9154 4.4932L66.6784 5.13961ZM68.1588 3.96397C68.7081 3.69282 69.2809 3.55859 69.8828 3.55859V2.55859C69.1254 2.55859 68.4013 2.72906 67.7162 3.06728L68.1588 3.96397ZM69.8828 3.55859C70.601 3.55859 71.0801 3.75624 71.3981 4.08558L72.1175 3.39098C71.5605 2.81407 70.7896 2.55859 69.8828 2.55859V3.55859ZM71.4011 4.08869C71.7191 4.41229 71.9141 4.90957 71.9141 5.66016H72.9141C72.9141 4.73886 72.6716 3.95489 72.1145 3.38787L71.4011 4.08869ZM71.9141 5.66016V11.9297H72.9141V5.66016H71.9141ZM72.4141 11.4297H70.5391V12.4297H72.4141V11.4297ZM65.7422 11.9297V4.10156H64.7422V11.9297H65.7422ZM65.1152 4.58518L66.9902 5.07737L67.2441 4.11013L65.3691 3.61795L65.1152 4.58518ZM66.6172 4.59375V11.9297H67.6172V4.59375H66.6172ZM67.1172 11.4297H65.2422V12.4297H67.1172V11.4297ZM64.5451 12.0415L64.6037 11.3384L63.6072 11.2554L63.5486 11.9585L64.5451 12.0415ZM64.3228 11.7472C64.5284 11.6479 64.7319 11.5674 64.9334 11.5049L64.637 10.5498C64.3853 10.6279 64.1357 10.7271 63.8881 10.8466L64.3228 11.7472ZM64.9334 11.5049C65.1499 11.4377 65.3662 11.378 65.5822 11.3259L65.3475 10.3538C65.1104 10.411 64.8735 10.4764 64.637 10.5498L64.9334 11.5049ZM64.9806 10.7155L64.7579 11.5827L65.7265 11.8314L65.9491 10.9642L64.9806 10.7155ZM65.7422 11.707V10.1016H64.7422V11.707H65.7422ZM65.2422 10.6016H67.1172V9.60156H65.2422V10.6016ZM66.6172 10.1016V11.707H67.6172V10.1016H66.6172ZM67.6031 11.5892L67.4156 10.8158L66.4438 11.0514L66.6313 11.8248L67.6031 11.5892ZM66.8141 11.42L68.2437 11.7599L68.475 10.787L67.0453 10.4471L66.8141 11.42ZM67.861 11.2332L67.8024 11.9598L68.7992 12.0402L68.8578 11.3136L67.861 11.2332ZM68.3008 11.5H64.0469V12.5H68.3008V11.5ZM70.0532 12.0389L70.1118 11.2889L69.1148 11.2111L69.0562 11.9611L70.0532 12.0389ZM69.8453 11.6929C69.9841 11.6202 70.135 11.5563 70.2987 11.5017L69.9825 10.553C69.7713 10.6234 69.5706 10.7079 69.3813 10.8071L69.8453 11.6929ZM70.3162 11.4955C70.4819 11.4334 70.6691 11.3766 70.879 11.3259L70.6444 10.3538C70.4012 10.4125 70.1744 10.4807 69.9651 10.5592L70.3162 11.4955ZM70.2774 10.7155L70.0548 11.5827L71.0234 11.8314L71.246 10.9642L70.2774 10.7155ZM71.0391 11.707V10.1016H70.0391V11.707H71.0391ZM70.5391 10.6016H72.4141V9.60156H70.5391V10.6016ZM71.9141 10.1016V11.707H72.9141V10.1016H71.9141ZM72.9 11.5892L72.7125 10.8158L71.7406 11.0514L71.9281 11.8248L72.9 11.5892ZM72.1109 11.42L73.5406 11.7599L73.7719 10.787L72.3422 10.4471L72.1109 11.42ZM73.1579 11.2332L73.0993 11.9598L74.096 12.0402L74.1546 11.3136L73.1579 11.2332ZM73.5977 11.5H69.5547V12.5H73.5977V11.5ZM65.7422 6.03516V4.53516H64.7422V6.03516H65.7422ZM64.8032 4.77458L65.0845 5.29021L65.9624 4.81136L65.6811 4.29573L64.8032 4.77458ZM65.7392 4.59971L64.122 3.82628L63.6905 4.72841L65.3077 5.50185L65.7392 4.59971ZM64.404 4.32475L64.4509 3.83256L63.4554 3.73775L63.4085 4.22994L64.404 4.32475ZM64.16 4.24034C64.4692 4.09981 64.8366 3.97636 65.2658 3.87276L65.0311 2.90068C64.5541 3.01583 64.1246 3.158 63.7462 3.32997L64.16 4.24034ZM65.2658 3.87276C65.6928 3.76969 66.1529 3.6952 66.6468 3.65029L66.5563 2.6544C66.019 2.70324 65.5104 2.785 65.0311 2.90068L65.2658 3.87276ZM66.1153 3.26857L66.5606 5.13185L67.5332 4.8994L67.0879 3.03612L66.1153 3.26857ZM66.8009 4.58029L64.9963 5.59982L65.4881 6.47049L67.2928 5.45096L66.8009 4.58029ZM75.8594 3.90234L76.1913 4.27631L76.1916 4.27605L75.8594 3.90234ZM80.1016 3.45703L79.8726 3.90153L79.8753 3.90291L80.1016 3.45703ZM77.2422 7.66406L76.8412 7.96283L76.845 7.96779L77.2422 7.66406ZM82.7852 4.45312L82.759 4.95244C83.0273 4.9665 83.2588 4.76598 83.2831 4.49839L82.7852 4.45312ZM80.1016 4.3125L79.8047 4.71482C79.8835 4.77296 79.9776 4.80669 80.0754 4.81181L80.1016 4.3125ZM78.4023 3.05859V2.55859C78.1864 2.55859 77.9949 2.69721 77.9274 2.90232C77.8599 3.10744 77.9317 3.3327 78.1055 3.46091L78.4023 3.05859ZM79.2578 3.12891L79.1454 3.6161C79.1514 3.61748 79.1574 3.61875 79.1634 3.61991L79.2578 3.12891ZM81.4023 3.29297L81.4306 3.79225L81.4393 3.7916L81.4023 3.29297ZM82.9023 3.16406L83.4003 3.20933C83.4138 3.06123 83.3606 2.91482 83.2553 2.80986C83.1499 2.7049 83.0033 2.65228 82.8553 2.66628L82.9023 3.16406ZM75.5195 15.457L75.7867 15.0344L75.7854 15.0336L75.5195 15.457ZM76.2109 11.5898L76.459 11.1557C76.3151 11.0735 76.1399 11.0679 75.9911 11.1408L76.2109 11.5898ZM76.8672 11.9648L77.1772 12.3571C77.3075 12.2541 77.3782 12.0931 77.3658 11.9275C77.3534 11.7618 77.2595 11.6131 77.1153 11.5307L76.8672 11.9648ZM80.6289 14.5781L80.3687 14.1511L80.3609 14.156L80.6289 14.5781ZM76.0352 12.0469L76.3592 11.6661L76.3544 11.6621L76.0352 12.0469ZM77.0547 8.54297L77.1356 8.04955C77.0317 8.03253 76.9252 8.0487 76.8311 8.09576L77.0547 8.54297ZM77.7695 8.66016L78.0678 9.06145C78.2289 8.9417 78.3028 8.73719 78.2554 8.54211C78.208 8.34703 78.0485 8.19922 77.8504 8.16674L77.7695 8.66016ZM82.4688 11.3555L82.1537 11.7438L82.1618 11.7501L82.4688 11.3555ZM82.4688 14.4961L82.0866 14.1736L82.0837 14.1772L82.4688 14.4961ZM80.7461 15.668L80.5673 15.201L80.5613 15.2034L80.7461 15.668ZM78.3789 8.74609C77.4134 8.74609 76.7027 8.49399 76.1913 8.0401L75.5275 8.78802C76.2661 9.44351 77.2351 9.74609 78.3789 9.74609V8.74609ZM76.1913 8.0401C75.6878 7.59332 75.4219 6.98727 75.4219 6.16406H74.4219C74.4219 7.23148 74.7809 8.12543 75.5275 8.78802L76.1913 8.0401ZM75.4219 6.16406C75.4219 5.33161 75.6888 4.72226 76.1913 4.27631L75.5275 3.52838C74.78 4.19181 74.4219 5.09026 74.4219 6.16406H75.4219ZM76.1916 4.27605C76.7112 3.8141 77.4299 3.55859 78.4023 3.55859V2.55859C77.2497 2.55859 76.2731 2.86559 75.5272 3.52864L76.1916 4.27605ZM78.4023 3.55859C78.9451 3.55859 79.4323 3.6747 79.8726 3.90152L80.3305 3.01254C79.7396 2.70811 79.0939 2.55859 78.4023 2.55859V3.55859ZM79.8753 3.90291C80.3284 4.13286 80.6857 4.44235 80.9566 4.8322L81.7778 4.26155C81.4081 3.72952 80.9216 3.31245 80.3278 3.01116L79.8753 3.90291ZM80.9566 4.8322C81.2144 5.20326 81.3477 5.63336 81.3477 6.14062H82.3477C82.3477 5.44477 82.1606 4.81236 81.7778 4.26155L80.9566 4.8322ZM81.3477 6.14062C81.3477 6.96375 81.0816 7.57536 80.5757 8.0307L81.2446 8.77399C81.9887 8.10433 82.3477 7.20812 82.3477 6.14062H81.3477ZM80.5757 8.0307C80.0648 8.49048 79.3516 8.74609 78.3789 8.74609V9.74609C79.5312 9.74609 80.5055 9.43921 81.2446 8.77399L80.5757 8.0307ZM78.5312 8.76172C79.1314 8.76172 79.6556 8.55692 80.0105 8.08946C80.3457 7.648 80.4727 7.04514 80.4727 6.36328H79.4727C79.4727 6.94705 79.3594 7.2934 79.2141 7.48475C79.0885 7.65011 78.892 7.76172 78.5312 7.76172V8.76172ZM80.4727 6.36328C80.4727 5.54203 80.3217 4.83501 79.9395 4.32369C79.5369 3.78504 78.939 3.54297 78.2383 3.54297V4.54297C78.6938 4.54297 78.9631 4.68761 79.1386 4.9224C79.3345 5.18452 79.4727 5.63766 79.4727 6.36328H80.4727ZM78.2383 3.54297C77.637 3.54297 77.1126 3.74957 76.7581 4.21933C76.4236 4.66257 76.2969 5.26785 76.2969 5.95312H77.2969C77.2969 5.36497 77.4103 5.01516 77.5563 4.82168C77.6823 4.65473 77.8787 4.54297 78.2383 4.54297V3.54297ZM76.2969 5.95312C76.2969 6.7524 76.4553 7.4448 76.8412 7.9628L77.6431 7.36532C77.4353 7.08645 77.2969 6.63822 77.2969 5.95312H76.2969ZM76.845 7.96779C77.2552 8.50424 77.8398 8.76172 78.5312 8.76172V7.76172C78.1134 7.76172 77.8385 7.62076 77.6394 7.36034L76.845 7.96779ZM82.8113 3.95381L80.1277 3.81319L80.0754 4.81181L82.759 4.95244L82.8113 3.95381ZM80.3984 3.91018L78.6992 2.65628L78.1055 3.46091L79.8047 4.71482L80.3984 3.91018ZM78.4023 3.55859C78.7557 3.55859 78.9968 3.58182 79.1454 3.6161L79.3702 2.64171C79.1126 2.58224 78.7834 2.55859 78.4023 2.55859V3.55859ZM79.1634 3.61991C79.356 3.65694 79.5309 3.69714 79.6888 3.74019L79.9519 2.77543C79.766 2.72473 79.5659 2.67899 79.3522 2.6379L79.1634 3.61991ZM79.6888 3.74019C79.9199 3.80323 80.1914 3.82812 80.4883 3.82812V2.82812C80.2383 2.82812 80.0645 2.80614 79.9519 2.77543L79.6888 3.74019ZM80.4883 3.82812C80.6986 3.82812 81.0151 3.81569 81.4306 3.79217L81.3741 2.79377C80.9614 2.81712 80.6686 2.82812 80.4883 2.82812V3.82812ZM81.4393 3.7916C81.8655 3.76003 82.3691 3.71674 82.9494 3.66184L82.8553 2.66628C82.2794 2.72076 81.7829 2.76341 81.3654 2.79433L81.4393 3.7916ZM82.4044 3.11879L82.2872 4.40786L83.2831 4.49839L83.4003 3.20933L82.4044 3.11879ZM78.2383 15.6016C77.1631 15.6016 76.3601 15.3969 75.7867 15.0344L75.2524 15.8797C76.0383 16.3766 77.0478 16.6016 78.2383 16.6016V15.6016ZM75.7854 15.0336C75.2412 14.6919 75.0117 14.2726 75.0117 13.7461H74.0117C74.0117 14.6571 74.4541 15.3784 75.2536 15.8805L75.7854 15.0336ZM75.0117 13.7461C75.0117 13.1326 75.3854 12.5508 76.4308 12.0389L75.9911 11.1408C74.7708 11.7383 74.0117 12.594 74.0117 13.7461H75.0117ZM75.9629 12.024L76.6191 12.399L77.1153 11.5307L76.459 11.1557L75.9629 12.024ZM76.5572 11.5726C75.9704 12.0363 75.6406 12.6385 75.6406 13.3594H76.6406C76.6406 12.9865 76.7953 12.659 77.1772 12.3571L76.5572 11.5726ZM75.6406 13.3594C75.6406 14.0616 75.9293 14.6401 76.5061 15.0281L77.0642 14.1984C76.7816 14.0083 76.6406 13.7509 76.6406 13.3594H75.6406ZM76.5061 15.0281C77.0517 15.3952 77.7785 15.5469 78.625 15.5469V14.5469C77.8777 14.5469 77.378 14.4095 77.0642 14.1984L76.5061 15.0281ZM78.625 15.5469C79.5235 15.5469 80.2963 15.3815 80.8969 15.0002L80.3609 14.156C79.9771 14.3997 79.414 14.5469 78.625 14.5469V15.5469ZM80.8891 15.0051C81.5169 14.6225 81.8789 14.0571 81.8789 13.3359H80.8789C80.8789 13.6616 80.7409 13.9244 80.3687 14.1512L80.8891 15.0051ZM81.8789 13.3359C81.8789 12.9392 81.7379 12.5697 81.4021 12.3197C81.0941 12.0903 80.6921 12.0156 80.2773 12.0156V13.0156C80.597 13.0156 80.7458 13.0777 80.8049 13.1217C80.8363 13.1452 80.8789 13.1858 80.8789 13.3359H81.8789ZM80.2773 12.0156H77.6055V13.0156H80.2773V12.0156ZM77.6055 12.0156C76.9964 12.0156 76.6051 11.8753 76.3592 11.6661L75.7111 12.4276C76.1996 12.8434 76.8551 13.0156 77.6055 13.0156V12.0156ZM76.3544 11.6621C76.1243 11.4712 75.9844 11.188 75.9844 10.7344H74.9844C74.9844 11.4213 75.2116 12.0132 75.7159 12.4317L76.3544 11.6621ZM75.9844 10.7344C75.9844 10.0367 76.3504 9.45412 77.2783 8.99018L76.8311 8.09576C75.6652 8.67869 74.9844 9.55704 74.9844 10.7344H75.9844ZM76.9738 9.03638L77.6886 9.15357L77.8504 8.16674L77.1356 8.04955L76.9738 9.03638ZM77.4713 8.25886C76.8252 8.73902 76.4023 9.33518 76.4023 10.0547H77.4023C77.4023 9.7742 77.5576 9.44066 78.0678 9.06145L77.4713 8.25886ZM76.4023 10.0547C76.4023 10.4492 76.5475 10.8136 76.8847 11.0575C77.1918 11.2796 77.5914 11.3516 78.0039 11.3516V10.3516C77.6821 10.3516 77.5309 10.2907 77.4708 10.2472C77.4407 10.2255 77.4023 10.1914 77.4023 10.0547H76.4023ZM78.0039 11.3516H80.6758V10.3516H78.0039V11.3516ZM80.6758 11.3516C81.394 11.3516 81.862 11.507 82.1537 11.7437L82.7838 10.9672C82.2474 10.532 81.5201 10.3516 80.6758 10.3516V11.3516ZM82.1618 11.7501C82.4404 11.9668 82.6016 12.285 82.6016 12.7852H83.6016C83.6016 12.0353 83.3409 11.4004 82.7757 10.9608L82.1618 11.7501ZM82.6016 12.7852C82.6016 13.3051 82.4341 13.7618 82.0866 14.1737L82.8509 14.8185C83.3471 14.2304 83.6016 13.5465 83.6016 12.7852H82.6016ZM82.0837 14.1772C81.735 14.5982 81.2382 14.9441 80.5673 15.201L80.9249 16.1349C81.7227 15.8294 82.3744 15.3939 82.8538 14.815L82.0837 14.1772ZM80.5613 15.2034C79.9044 15.4647 79.1332 15.6016 78.2383 15.6016V16.6016C79.234 16.6016 80.1347 16.4493 80.9309 16.1326L80.5613 15.2034Z" fill="#56C1C8" mask="url(#path-1-outside-1_3_6)"/>
</g>
<defs>
<filter id="filter0_d_3_6" x="0.432812" y="0.398438" width="82.6688" height="16.9266" filterUnits="userSpaceOnUse" color-interpolation-filters="sRGB">
<feFlood flood-opacity="0" result="BackgroundImageFix"/>
<feColorMatrix in="SourceAlpha" type="matrix" values="0 0 0 0 0 0 0 0 0 0 0 0 0 0 0 0 0 0 127 0" result="hardAlpha"/>
<feOffset dx="-1" dy="1"/>
<feGaussianBlur stdDeviation="0.1"/>
<feComposite in2="hardAlpha" operator="out"/>
<feColorMatrix type="matrix" values="0 0 0 0 0 0 0 0 0 0 0 0 0 0 0 0 0 0 0.26 0"/>
<feBlend mode="normal" in2="BackgroundImageFix" result="effect1_dropShadow_3_6"/>
<feBlend mode="normal" in="SourceGraphic" in2="effect1_dropShadow_3_6" result="shape"/>
</filter>
</defs>
</svg>
