<svg width="125" height="26" viewBox="0 0 125 26" fill="none" xmlns="http://www.w3.org/2000/svg">
<g filter="url(#filter0_d_3_6)">
<mask id="path-1-outside-1_3_6" maskUnits="userSpaceOnUse" x="1" y="0" width="124" height="25" fill="black">
<rect fill="white" x="1" width="124" height="25"/>
<path d="M14.2539 17.7363V0.84375H17.207V17.7363H14.2539ZM3.98828 17.7363V0.84375H6.94141V17.7363H3.98828ZM5.28906 10.0898V8.36719H15.7832V10.0898H5.28906ZM2.01953 18L2.10742 16.875C2.7168 16.6289 3.46094 16.4004 4.33984 16.1895L3.98828 17.5078V15.0469H6.94141V17.5078L6.64258 16.3301L8.98047 16.8398L8.89258 18H2.01953ZM12.2852 18L12.373 16.875C12.9824 16.6289 13.7266 16.4004 14.6055 16.1895L14.2539 17.5078V15.0469H17.207V17.5078L16.9082 16.3301L19.2461 16.8398L19.1582 18H12.2852ZM19.1758 0.597656L19.0879 1.72266C18.4785 1.96875 17.7344 2.19727 16.8555 2.4082L17.207 1.08984V3.55078H14.2539V1.08984L14.5527 2.26758L12.2148 1.75781L12.3027 0.597656H19.1758ZM8.91016 0.597656L8.82227 1.72266C8.21289 1.96875 7.46875 2.19727 6.58984 2.4082L6.94141 1.08984V3.55078H3.98828V1.08984L4.28711 2.26758L1.94922 1.75781L2.03711 0.597656H8.91016ZM26.3477 24.1875C25.3867 24.0586 24.4902 23.8008 23.6582 23.4141L26.6641 17.6133L27.2266 17.1562L31.3398 6.08203L31.4453 6.55664L29.4941 6.04688L29.582 4.88672H34.6094L34.5215 6.01172C34.2754 6.16406 33.9883 6.29883 33.6602 6.41602C33.332 6.52148 32.998 6.61523 32.6582 6.69727L33.4492 6.09961L26.3477 24.1875ZM26.5938 18.9141L21.6719 6.06445L22.4629 6.55664L20.3184 6.04688L20.4062 4.88672H26.5234L26.4355 6.04688C26.1895 6.16406 25.8965 6.27539 25.5566 6.38086C25.2168 6.48633 24.877 6.58008 24.5371 6.66211L24.748 6.22266L28.4746 16.8926V18.0176L26.5938 18.9141ZM41.834 18.2812C39.7129 18.2812 38.0781 17.707 36.9297 16.5586C35.7812 15.4102 35.207 13.7695 35.207 11.6367C35.207 9.46875 35.7695 7.75195 36.8945 6.48633C38.0195 5.20898 39.5371 4.57031 41.4473 4.57031C43.1582 4.57031 44.4766 5.10938 45.4023 6.1875C46.3281 7.25391 46.791 8.78906 46.791 10.793C46.791 10.9688 46.7852 11.1445 46.7734 11.3203C46.7617 11.4961 46.7441 11.666 46.7207 11.8301L43.7676 11.2676C43.7676 9.47461 43.5508 8.17969 43.1172 7.38281C42.6953 6.58594 42.0039 6.1875 41.043 6.1875C39.168 6.1875 38.2305 7.66992 38.2305 10.6348C38.2305 14.373 39.7246 16.2422 42.7129 16.2422C43.8848 16.2422 45.1094 16.002 46.3867 15.5215L46.2637 17.1738C45.7129 17.5254 45.0508 17.8008 44.2773 18C43.5156 18.1875 42.7012 18.2812 41.834 18.2812ZM36.3496 11.8301V10.3887H46.4395L46.7207 11.8301H36.3496ZM60.8711 18L54.5957 9.94922V8.96484L60.748 1.51172L60.3789 2.26758L58.0234 1.75781L58.1113 0.597656H64.5273L64.4395 1.72266C64.1465 1.875 63.8184 2.00977 63.4551 2.12695C63.0918 2.23242 62.7168 2.32031 62.3301 2.39062L63.3672 1.61719L56.8281 9.49219L56.6875 8.13867L63.7891 16.8574L62.5586 16.2949L64.9141 16.7695L64.8262 18H60.8711ZM50.8164 17.7363V0.878906H53.7695V17.7363H50.8164ZM52.3105 10.3535V8.52539H56.916V10.3535H52.3105ZM48.8477 18L48.9355 16.875C49.5449 16.6289 50.2891 16.4004 51.168 16.1895L50.8164 17.5078V15.0469H53.7695V17.5078L53.4707 16.3301L55.8086 16.8398L55.7207 18H48.8477ZM55.7383 0.597656L55.6504 1.72266C55.041 1.96875 54.2969 2.19727 53.418 2.4082L53.7695 1.08984V3.55078H50.8164V1.08984L51.1152 2.26758L48.7773 1.75781L48.8652 0.597656H55.7383ZM70.7852 24.1875C69.8242 24.0586 68.9277 23.8008 68.0957 23.4141L71.1016 17.6133L71.6641 17.1562L75.7773 6.08203L75.8828 6.55664L73.9316 6.04688L74.0195 4.88672H79.0469L78.959 6.01172C78.7129 6.16406 78.4258 6.29883 78.0977 6.41602C77.7695 6.52148 77.4355 6.61523 77.0957 6.69727L77.8867 6.09961L70.7852 24.1875ZM71.0312 18.9141L66.1094 6.06445L66.9004 6.55664L64.7559 6.04688L64.8438 4.88672H70.9609L70.873 6.04688C70.627 6.16406 70.334 6.27539 69.9941 6.38086C69.6543 6.48633 69.3145 6.58008 68.9746 6.66211L69.1855 6.22266L72.9121 16.8926V18.0176L71.0312 18.9141ZM84.918 18.2988C82.4688 18.2988 81.2441 16.9277 81.2441 14.1855V6.22266L84.0566 6.41602V13.623C84.0566 14.5605 84.2266 15.2402 84.5664 15.6621C84.918 16.084 85.4688 16.2949 86.2188 16.2949C87.4258 16.2949 88.6797 15.7734 89.9805 14.7305L90.3145 15.5215C88.7441 17.373 86.9453 18.2988 84.918 18.2988ZM81.2441 8.2793V6.46875L81.666 7.17188L79.5742 6.16992L79.6621 5.29102C80.6934 4.95117 81.9004 4.76367 83.2832 4.72852H84.0566V7.61133L81.2441 8.2793ZM91.8965 16.9629L89.084 16.2598V6.25781L91.8965 6.43359V16.9629ZM89.084 8.2793V6.46875L89.5059 7.18945L87.2559 6.11719L87.3262 5.34375C87.8887 5.14453 88.498 4.99805 89.1543 4.9043C89.8105 4.79883 90.4668 4.74023 91.123 4.72852H91.8965V7.57617L89.084 8.2793ZM89.8574 18.0527L89.2598 15.7676L91.8965 15.0117V16.9277L91.5098 16.2246L93.6543 16.8398L93.5664 17.8594C92.6055 18.0117 91.3691 18.0762 89.8574 18.0527ZM105.309 17.8945V9.03516C105.309 7.42969 104.535 6.62695 102.988 6.62695C101.77 6.62695 100.539 7.11914 99.2969 8.10352L98.9453 7.22461C99.6602 6.38086 100.48 5.73047 101.406 5.27344C102.332 4.81641 103.305 4.58789 104.324 4.58789C105.543 4.58789 106.48 4.92773 107.137 5.60742C107.793 6.27539 108.121 7.23633 108.121 8.49023V17.8945H105.309ZM97.3633 17.8945V6.15234L100.176 6.89062V17.8945H97.3633ZM95.5703 18L95.6582 16.9453C95.998 16.7812 96.3379 16.6465 96.6777 16.541C97.0176 16.4355 97.3574 16.3418 97.6973 16.2598L97.3633 17.5605V15.1523H100.176V17.5605L99.8945 16.4004L102.039 16.9102L101.951 18H95.5703ZM103.832 18L103.92 16.875C104.166 16.7461 104.43 16.6348 104.711 16.541C104.992 16.4355 105.303 16.3418 105.643 16.2598L105.309 17.5605V15.1523H108.121V17.5605L107.84 16.4004L109.984 16.9102L109.896 18H103.832ZM97.3633 9.05273V6.80273L97.7852 7.57617L95.3594 6.41602L95.4297 5.67773C95.9453 5.44336 96.543 5.24414 97.2227 5.08008C97.9023 4.91602 98.6289 4.79883 99.4023 4.72852L100.07 7.52344L97.3633 9.05273ZM117.068 13.8691C115.486 13.8691 114.227 13.4531 113.289 12.6211C112.352 11.7891 111.883 10.6641 111.883 9.24609C111.883 7.81641 112.352 6.68555 113.289 5.85352C114.238 5.00977 115.51 4.58789 117.104 4.58789C118.029 4.58789 118.879 4.78711 119.652 5.18555C120.438 5.58398 121.07 6.12891 121.551 6.82031C122.031 7.51172 122.271 8.30859 122.271 9.21094C122.271 10.6289 121.803 11.7598 120.865 12.6035C119.928 13.4473 118.662 13.8691 117.068 13.8691ZM117.297 12.3926C118.738 12.3926 119.459 11.4434 119.459 9.54492C119.459 7.22461 118.592 6.06445 116.857 6.06445C115.416 6.06445 114.695 7.01953 114.695 8.92969C114.695 10.043 114.918 10.8984 115.363 11.4961C115.82 12.0938 116.465 12.3926 117.297 12.3926ZM123.678 6.67969L119.652 6.46875L117.104 4.58789C117.654 4.58789 118.082 4.62305 118.387 4.69336C118.691 4.75195 118.973 4.81641 119.23 4.88672C119.488 4.95703 119.822 4.99219 120.232 4.99219C120.525 4.99219 120.982 4.97461 121.604 4.93945C122.236 4.89258 122.986 4.82812 123.854 4.74609L123.678 6.67969ZM116.857 24.1523C115.158 24.1523 113.799 23.8301 112.779 23.1855C111.771 22.5527 111.268 21.6973 111.268 20.6191C111.268 19.2949 112.117 18.2168 113.816 17.3848L114.801 17.9473C114.074 18.5215 113.711 19.2188 113.711 20.0391C113.711 20.8594 114.033 21.4863 114.678 21.9199C115.322 22.3535 116.242 22.5703 117.438 22.5703C118.703 22.5703 119.705 22.3359 120.443 21.8672C121.193 21.4102 121.568 20.7891 121.568 20.0039C121.568 19.1836 121.018 18.7734 119.916 18.7734H115.908C114.889 18.7734 114.104 18.5391 113.553 18.0703C113.002 17.6133 112.727 16.957 112.727 16.1016C112.727 14.6953 113.512 13.5996 115.082 12.8145L116.154 12.9902C115.287 13.6348 114.854 14.332 114.854 15.082C114.854 15.8789 115.404 16.2773 116.506 16.2773H120.514C121.686 16.2773 122.582 16.5293 123.203 17.0332C123.836 17.5254 124.152 18.2402 124.152 19.1777C124.152 20.1387 123.836 20.9941 123.203 21.7441C122.582 22.4941 121.721 23.0801 120.619 23.502C119.529 23.9355 118.275 24.1523 116.857 24.1523Z"/>
</mask>
<path d="M14.2539 17.7363V0.84375H17.207V17.7363H14.2539ZM3.98828 17.7363V0.84375H6.94141V17.7363H3.98828ZM5.28906 10.0898V8.36719H15.7832V10.0898H5.28906ZM2.01953 18L2.10742 16.875C2.7168 16.6289 3.46094 16.4004 4.33984 16.1895L3.98828 17.5078V15.0469H6.94141V17.5078L6.64258 16.3301L8.98047 16.8398L8.89258 18H2.01953ZM12.2852 18L12.373 16.875C12.9824 16.6289 13.7266 16.4004 14.6055 16.1895L14.2539 17.5078V15.0469H17.207V17.5078L16.9082 16.3301L19.2461 16.8398L19.1582 18H12.2852ZM19.1758 0.597656L19.0879 1.72266C18.4785 1.96875 17.7344 2.19727 16.8555 2.4082L17.207 1.08984V3.55078H14.2539V1.08984L14.5527 2.26758L12.2148 1.75781L12.3027 0.597656H19.1758ZM8.91016 0.597656L8.82227 1.72266C8.21289 1.96875 7.46875 2.19727 6.58984 2.4082L6.94141 1.08984V3.55078H3.98828V1.08984L4.28711 2.26758L1.94922 1.75781L2.03711 0.597656H8.91016ZM26.3477 24.1875C25.3867 24.0586 24.4902 23.8008 23.6582 23.4141L26.6641 17.6133L27.2266 17.1562L31.3398 6.08203L31.4453 6.55664L29.4941 6.04688L29.582 4.88672H34.6094L34.5215 6.01172C34.2754 6.16406 33.9883 6.29883 33.6602 6.41602C33.332 6.52148 32.998 6.61523 32.6582 6.69727L33.4492 6.09961L26.3477 24.1875ZM26.5938 18.9141L21.6719 6.06445L22.4629 6.55664L20.3184 6.04688L20.4062 4.88672H26.5234L26.4355 6.04688C26.1895 6.16406 25.8965 6.27539 25.5566 6.38086C25.2168 6.48633 24.877 6.58008 24.5371 6.66211L24.748 6.22266L28.4746 16.8926V18.0176L26.5938 18.9141ZM41.834 18.2812C39.7129 18.2812 38.0781 17.707 36.9297 16.5586C35.7812 15.4102 35.207 13.7695 35.207 11.6367C35.207 9.46875 35.7695 7.75195 36.8945 6.48633C38.0195 5.20898 39.5371 4.57031 41.4473 4.57031C43.1582 4.57031 44.4766 5.10938 45.4023 6.1875C46.3281 7.25391 46.791 8.78906 46.791 10.793C46.791 10.9688 46.7852 11.1445 46.7734 11.3203C46.7617 11.4961 46.7441 11.666 46.7207 11.8301L43.7676 11.2676C43.7676 9.47461 43.5508 8.17969 43.1172 7.38281C42.6953 6.58594 42.0039 6.1875 41.043 6.1875C39.168 6.1875 38.2305 7.66992 38.2305 10.6348C38.2305 14.373 39.7246 16.2422 42.7129 16.2422C43.8848 16.2422 45.1094 16.002 46.3867 15.5215L46.2637 17.1738C45.7129 17.5254 45.0508 17.8008 44.2773 18C43.5156 18.1875 42.7012 18.2812 41.834 18.2812ZM36.3496 11.8301V10.3887H46.4395L46.7207 11.8301H36.3496ZM60.8711 18L54.5957 9.94922V8.96484L60.748 1.51172L60.3789 2.26758L58.0234 1.75781L58.1113 0.597656H64.5273L64.4395 1.72266C64.1465 1.875 63.8184 2.00977 63.4551 2.12695C63.0918 2.23242 62.7168 2.32031 62.3301 2.39062L63.3672 1.61719L56.8281 9.49219L56.6875 8.13867L63.7891 16.8574L62.5586 16.2949L64.9141 16.7695L64.8262 18H60.8711ZM50.8164 17.7363V0.878906H53.7695V17.7363H50.8164ZM52.3105 10.3535V8.52539H56.916V10.3535H52.3105ZM48.8477 18L48.9355 16.875C49.5449 16.6289 50.2891 16.4004 51.168 16.1895L50.8164 17.5078V15.0469H53.7695V17.5078L53.4707 16.3301L55.8086 16.8398L55.7207 18H48.8477ZM55.7383 0.597656L55.6504 1.72266C55.041 1.96875 54.2969 2.19727 53.418 2.4082L53.7695 1.08984V3.55078H50.8164V1.08984L51.1152 2.26758L48.7773 1.75781L48.8652 0.597656H55.7383ZM70.7852 24.1875C69.8242 24.0586 68.9277 23.8008 68.0957 23.4141L71.1016 17.6133L71.6641 17.1562L75.7773 6.08203L75.8828 6.55664L73.9316 6.04688L74.0195 4.88672H79.0469L78.959 6.01172C78.7129 6.16406 78.4258 6.29883 78.0977 6.41602C77.7695 6.52148 77.4355 6.61523 77.0957 6.69727L77.8867 6.09961L70.7852 24.1875ZM71.0312 18.9141L66.1094 6.06445L66.9004 6.55664L64.7559 6.04688L64.8438 4.88672H70.9609L70.873 6.04688C70.627 6.16406 70.334 6.27539 69.9941 6.38086C69.6543 6.48633 69.3145 6.58008 68.9746 6.66211L69.1855 6.22266L72.9121 16.8926V18.0176L71.0312 18.9141ZM84.918 18.2988C82.4688 18.2988 81.2441 16.9277 81.2441 14.1855V6.22266L84.0566 6.41602V13.623C84.0566 14.5605 84.2266 15.2402 84.5664 15.6621C84.918 16.084 85.4688 16.2949 86.2188 16.2949C87.4258 16.2949 88.6797 15.7734 89.9805 14.7305L90.3145 15.5215C88.7441 17.373 86.9453 18.2988 84.918 18.2988ZM81.2441 8.2793V6.46875L81.666 7.17188L79.5742 6.16992L79.6621 5.29102C80.6934 4.95117 81.9004 4.76367 83.2832 4.72852H84.0566V7.61133L81.2441 8.2793ZM91.8965 16.9629L89.084 16.2598V6.25781L91.8965 6.43359V16.9629ZM89.084 8.2793V6.46875L89.5059 7.18945L87.2559 6.11719L87.3262 5.34375C87.8887 5.14453 88.498 4.99805 89.1543 4.9043C89.8105 4.79883 90.4668 4.74023 91.123 4.72852H91.8965V7.57617L89.084 8.2793ZM89.8574 18.0527L89.2598 15.7676L91.8965 15.0117V16.9277L91.5098 16.2246L93.6543 16.8398L93.5664 17.8594C92.6055 18.0117 91.3691 18.0762 89.8574 18.0527ZM105.309 17.8945V9.03516C105.309 7.42969 104.535 6.62695 102.988 6.62695C101.77 6.62695 100.539 7.11914 99.2969 8.10352L98.9453 7.22461C99.6602 6.38086 100.48 5.73047 101.406 5.27344C102.332 4.81641 103.305 4.58789 104.324 4.58789C105.543 4.58789 106.48 4.92773 107.137 5.60742C107.793 6.27539 108.121 7.23633 108.121 8.49023V17.8945H105.309ZM97.3633 17.8945V6.15234L100.176 6.89062V17.8945H97.3633ZM95.5703 18L95.6582 16.9453C95.998 16.7812 96.3379 16.6465 96.6777 16.541C97.0176 16.4355 97.3574 16.3418 97.6973 16.2598L97.3633 17.5605V15.1523H100.176V17.5605L99.8945 16.4004L102.039 16.9102L101.951 18H95.5703ZM103.832 18L103.92 16.875C104.166 16.7461 104.43 16.6348 104.711 16.541C104.992 16.4355 105.303 16.3418 105.643 16.2598L105.309 17.5605V15.1523H108.121V17.5605L107.84 16.4004L109.984 16.9102L109.896 18H103.832ZM97.3633 9.05273V6.80273L97.7852 7.57617L95.3594 6.41602L95.4297 5.67773C95.9453 5.44336 96.543 5.24414 97.2227 5.08008C97.9023 4.91602 98.6289 4.79883 99.4023 4.72852L100.07 7.52344L97.3633 9.05273ZM117.068 13.8691C115.486 13.8691 114.227 13.4531 113.289 12.6211C112.352 11.7891 111.883 10.6641 111.883 9.24609C111.883 7.81641 112.352 6.68555 113.289 5.85352C114.238 5.00977 115.51 4.58789 117.104 4.58789C118.029 4.58789 118.879 4.78711 119.652 5.18555C120.438 5.58398 121.07 6.12891 121.551 6.82031C122.031 7.51172 122.271 8.30859 122.271 9.21094C122.271 10.6289 121.803 11.7598 120.865 12.6035C119.928 13.4473 118.662 13.8691 117.068 13.8691ZM117.297 12.3926C118.738 12.3926 119.459 11.4434 119.459 9.54492C119.459 7.22461 118.592 6.06445 116.857 6.06445C115.416 6.06445 114.695 7.01953 114.695 8.92969C114.695 10.043 114.918 10.8984 115.363 11.4961C115.82 12.0938 116.465 12.3926 117.297 12.3926ZM123.678 6.67969L119.652 6.46875L117.104 4.58789C117.654 4.58789 118.082 4.62305 118.387 4.69336C118.691 4.75195 118.973 4.81641 119.23 4.88672C119.488 4.95703 119.822 4.99219 120.232 4.99219C120.525 4.99219 120.982 4.97461 121.604 4.93945C122.236 4.89258 122.986 4.82812 123.854 4.74609L123.678 6.67969ZM116.857 24.1523C115.158 24.1523 113.799 23.8301 112.779 23.1855C111.771 22.5527 111.268 21.6973 111.268 20.6191C111.268 19.2949 112.117 18.2168 113.816 17.3848L114.801 17.9473C114.074 18.5215 113.711 19.2188 113.711 20.0391C113.711 20.8594 114.033 21.4863 114.678 21.9199C115.322 22.3535 116.242 22.5703 117.438 22.5703C118.703 22.5703 119.705 22.3359 120.443 21.8672C121.193 21.4102 121.568 20.7891 121.568 20.0039C121.568 19.1836 121.018 18.7734 119.916 18.7734H115.908C114.889 18.7734 114.104 18.5391 113.553 18.0703C113.002 17.6133 112.727 16.957 112.727 16.1016C112.727 14.6953 113.512 13.5996 115.082 12.8145L116.154 12.9902C115.287 13.6348 114.854 14.332 114.854 15.082C114.854 15.8789 115.404 16.2773 116.506 16.2773H120.514C121.686 16.2773 122.582 16.5293 123.203 17.0332C123.836 17.5254 124.152 18.2402 124.152 19.1777C124.152 20.1387 123.836 20.9941 123.203 21.7441C122.582 22.4941 121.721 23.0801 120.619 23.502C119.529 23.9355 118.275 24.1523 116.857 24.1523Z" fill="#00D1FF"/>
<path d="M14.2539 17.7363H13.7539C13.7539 18.0125 13.9778 18.2363 14.2539 18.2363V17.7363ZM14.2539 0.84375V0.34375C13.9778 0.34375 13.7539 0.567608 13.7539 0.84375H14.2539ZM17.207 0.84375H17.707C17.707 0.567608 17.4832 0.34375 17.207 0.34375V0.84375ZM17.207 17.7363V18.2363C17.4832 18.2363 17.707 18.0125 17.707 17.7363H17.207ZM3.98828 17.7363H3.48828C3.48828 18.0125 3.71214 18.2363 3.98828 18.2363V17.7363ZM3.98828 0.84375V0.34375C3.71214 0.34375 3.48828 0.567608 3.48828 0.84375H3.98828ZM6.94141 0.84375H7.44141C7.44141 0.567608 7.21755 0.34375 6.94141 0.34375V0.84375ZM6.94141 17.7363V18.2363C7.21755 18.2363 7.44141 18.0125 7.44141 17.7363H6.94141ZM5.28906 10.0898H4.78906C4.78906 10.366 5.01292 10.5898 5.28906 10.5898V10.0898ZM5.28906 8.36719V7.86719C5.01292 7.86719 4.78906 8.09105 4.78906 8.36719H5.28906ZM15.7832 8.36719H16.2832C16.2832 8.09105 16.0593 7.86719 15.7832 7.86719V8.36719ZM15.7832 10.0898V10.5898C16.0593 10.5898 16.2832 10.366 16.2832 10.0898H15.7832ZM2.01953 18L1.52105 17.9611C1.51019 18.1 1.55783 18.2372 1.65247 18.3395C1.74711 18.4418 1.88016 18.5 2.01953 18.5V18ZM2.10742 16.875L1.92019 16.4114C1.74427 16.4824 1.62372 16.6469 1.60894 16.8361L2.10742 16.875ZM4.33984 16.1895L4.82296 16.3183C4.86836 16.1481 4.82081 15.9665 4.6978 15.8404C4.57479 15.7142 4.39448 15.6621 4.22316 15.7033L4.33984 16.1895ZM3.98828 17.5078H3.48828C3.48828 17.7588 3.67441 17.971 3.92331 18.0036C4.17222 18.0362 4.40672 17.8792 4.4714 17.6366L3.98828 17.5078ZM3.98828 15.0469V14.5469C3.71214 14.5469 3.48828 14.7707 3.48828 15.0469H3.98828ZM6.94141 15.0469H7.44141C7.44141 14.7707 7.21755 14.5469 6.94141 14.5469V15.0469ZM6.94141 17.5078L6.45676 17.6308C6.51878 17.8752 6.75313 18.0352 7.00337 18.004C7.25361 17.9727 7.44141 17.76 7.44141 17.5078H6.94141ZM6.64258 16.3301L6.7491 15.8416C6.57983 15.8046 6.40352 15.858 6.2831 15.9826C6.16268 16.1071 6.11533 16.2851 6.15794 16.453L6.64258 16.3301ZM8.98047 16.8398L9.47904 16.8776C9.49788 16.629 9.33063 16.4044 9.08699 16.3513L8.98047 16.8398ZM8.89258 18V18.5C9.15407 18.5 9.3714 18.2985 9.39115 18.0378L8.89258 18ZM12.2852 18L11.7867 17.9611C11.7758 18.1 11.8235 18.2372 11.9181 18.3395C12.0127 18.4418 12.1458 18.5 12.2852 18.5V18ZM12.373 16.875L12.1858 16.4114C12.0099 16.4824 11.8893 16.6469 11.8746 16.8361L12.373 16.875ZM14.6055 16.1895L15.0886 16.3183C15.134 16.1481 15.0864 15.9665 14.9634 15.8404C14.8404 15.7142 14.6601 15.6621 14.4888 15.7033L14.6055 16.1895ZM14.2539 17.5078H13.7539C13.7539 17.7588 13.94 17.971 14.1889 18.0036C14.4378 18.0362 14.6723 17.8792 14.737 17.6366L14.2539 17.5078ZM14.2539 15.0469V14.5469C13.9778 14.5469 13.7539 14.7707 13.7539 15.0469H14.2539ZM17.207 15.0469H17.707C17.707 14.7707 17.4832 14.5469 17.207 14.5469V15.0469ZM17.207 17.5078L16.7224 17.6308C16.7844 17.8752 17.0188 18.0352 17.269 18.004C17.5192 17.9727 17.707 17.76 17.707 17.5078H17.207ZM16.9082 16.3301L17.0147 15.8416C16.8455 15.8046 16.6691 15.858 16.5487 15.9826C16.4283 16.1071 16.381 16.2851 16.4236 16.453L16.9082 16.3301ZM19.2461 16.8398L19.7447 16.8776C19.7635 16.629 19.5963 16.4044 19.3526 16.3513L19.2461 16.8398ZM19.1582 18V18.5C19.4197 18.5 19.637 18.2985 19.6568 18.0378L19.1582 18ZM19.1758 0.597656L19.6743 0.6366C19.6851 0.497648 19.6375 0.36047 19.5428 0.258151C19.4482 0.155831 19.3152 0.0976562 19.1758 0.0976562V0.597656ZM19.0879 1.72266L19.2751 2.18628C19.451 2.11523 19.5716 1.95075 19.5864 1.7616L19.0879 1.72266ZM16.8555 2.4082L16.3724 2.27937C16.327 2.44961 16.3745 2.63117 16.4975 2.7573C16.6205 2.88343 16.8008 2.93551 16.9722 2.8944L16.8555 2.4082ZM17.207 1.08984H17.707C17.707 0.838814 17.5209 0.626699 17.272 0.594082C17.0231 0.561465 16.7886 0.718459 16.7239 0.961012L17.207 1.08984ZM17.207 3.55078V4.05078C17.4832 4.05078 17.707 3.82692 17.707 3.55078H17.207ZM14.2539 3.55078H13.7539C13.7539 3.82692 13.9778 4.05078 14.2539 4.05078V3.55078ZM14.2539 1.08984L14.7385 0.966875C14.6765 0.722438 14.4422 0.562446 14.1919 0.593698C13.9417 0.624949 13.7539 0.837661 13.7539 1.08984H14.2539ZM14.5527 2.26758L14.4462 2.7561C14.6155 2.79301 14.7918 2.73966 14.9122 2.61511C15.0326 2.49055 15.08 2.31253 15.0374 2.14461L14.5527 2.26758ZM12.2148 1.75781L11.7163 1.72004C11.6974 1.96869 11.8647 2.19321 12.1083 2.24633L12.2148 1.75781ZM12.3027 0.597656V0.0976562C12.0412 0.0976562 11.8239 0.299142 11.8042 0.559886L12.3027 0.597656ZM8.91016 0.597656L9.40864 0.6366C9.41949 0.497648 9.37186 0.36047 9.27722 0.258151C9.18258 0.155831 9.04953 0.0976562 8.91016 0.0976562V0.597656ZM8.82227 1.72266L9.0095 2.18628C9.18542 2.11523 9.30597 1.95075 9.32075 1.7616L8.82227 1.72266ZM6.58984 2.4082L6.10673 2.27937C6.06133 2.44961 6.10888 2.63117 6.23189 2.7573C6.3549 2.88343 6.53521 2.93551 6.70653 2.8944L6.58984 2.4082ZM6.94141 1.08984H7.44141C7.44141 0.838814 7.25527 0.626699 7.00637 0.594082C6.75747 0.561465 6.52297 0.718459 6.45829 0.961012L6.94141 1.08984ZM6.94141 3.55078V4.05078C7.21755 4.05078 7.44141 3.82692 7.44141 3.55078H6.94141ZM3.98828 3.55078H3.48828C3.48828 3.82692 3.71214 4.05078 3.98828 4.05078V3.55078ZM3.98828 1.08984L4.47292 0.966875C4.4109 0.722438 4.17656 0.562446 3.92632 0.593698C3.67608 0.624949 3.48828 0.837661 3.48828 1.08984H3.98828ZM4.28711 2.26758L4.18059 2.7561C4.34986 2.79301 4.52617 2.73966 4.64659 2.61511C4.767 2.49055 4.81436 2.31253 4.77175 2.14461L4.28711 2.26758ZM1.94922 1.75781L1.45065 1.72004C1.43181 1.96869 1.59906 2.19321 1.8427 2.24633L1.94922 1.75781ZM2.03711 0.597656V0.0976562C1.77562 0.0976562 1.55829 0.299142 1.53854 0.559886L2.03711 0.597656ZM14.7539 17.7363V0.84375H13.7539V17.7363H14.7539ZM14.2539 1.34375H17.207V0.34375H14.2539V1.34375ZM16.707 0.84375V17.7363H17.707V0.84375H16.707ZM17.207 17.2363H14.2539V18.2363H17.207V17.2363ZM4.48828 17.7363V0.84375H3.48828V17.7363H4.48828ZM3.98828 1.34375H6.94141V0.34375H3.98828V1.34375ZM6.44141 0.84375V17.7363H7.44141V0.84375H6.44141ZM6.94141 17.2363H3.98828V18.2363H6.94141V17.2363ZM5.78906 10.0898V8.36719H4.78906V10.0898H5.78906ZM5.28906 8.86719H15.7832V7.86719H5.28906V8.86719ZM15.2832 8.36719V10.0898H16.2832V8.36719H15.2832ZM15.7832 9.58984H5.28906V10.5898H15.7832V9.58984ZM2.51801 18.0389L2.6059 16.9139L1.60894 16.8361L1.52105 17.9611L2.51801 18.0389ZM2.29465 17.3386C2.8744 17.1045 3.59343 16.8828 4.45653 16.6756L4.22316 15.7033C3.32844 15.918 2.55919 16.1533 1.92019 16.4114L2.29465 17.3386ZM3.85673 16.0606L3.50516 17.379L4.4714 17.6366L4.82296 16.3183L3.85673 16.0606ZM4.48828 17.5078V15.0469H3.48828V17.5078H4.48828ZM3.98828 15.5469H6.94141V14.5469H3.98828V15.5469ZM6.44141 15.0469V17.5078H7.44141V15.0469H6.44141ZM7.42605 17.3848L7.12722 16.2071L6.15794 16.453L6.45676 17.6308L7.42605 17.3848ZM6.53606 16.8186L8.87395 17.3284L9.08699 16.3513L6.7491 15.8416L6.53606 16.8186ZM8.4819 16.8021L8.39401 17.9622L9.39115 18.0378L9.47904 16.8776L8.4819 16.8021ZM8.89258 17.5H2.01953V18.5H8.89258V17.5ZM12.7836 18.0389L12.8715 16.9139L11.8746 16.8361L11.7867 17.9611L12.7836 18.0389ZM12.5603 17.3386C13.14 17.1045 13.8591 16.8828 14.7222 16.6756L14.4888 15.7033C13.5941 15.918 12.8248 16.1533 12.1858 16.4114L12.5603 17.3386ZM14.1224 16.0606L13.7708 17.379L14.737 17.6366L15.0886 16.3183L14.1224 16.0606ZM14.7539 17.5078V15.0469H13.7539V17.5078H14.7539ZM14.2539 15.5469H17.207V14.5469H14.2539V15.5469ZM16.707 15.0469V17.5078H17.707V15.0469H16.707ZM17.6917 17.3848L17.3928 16.2071L16.4236 16.453L16.7224 17.6308L17.6917 17.3848ZM16.8017 16.8186L19.1396 17.3284L19.3526 16.3513L17.0147 15.8416L16.8017 16.8186ZM18.7475 16.8021L18.6596 17.9622L19.6568 18.0378L19.7447 16.8776L18.7475 16.8021ZM19.1582 17.5H12.2852V18.5H19.1582V17.5ZM18.6773 0.558712L18.5894 1.68371L19.5864 1.7616L19.6743 0.6366L18.6773 0.558712ZM18.9007 1.25904C18.3209 1.49317 17.6019 1.71487 16.7388 1.92201L16.9722 2.8944C17.8669 2.67967 18.6361 2.44433 19.2751 2.18628L18.9007 1.25904ZM17.3386 2.53703L17.6901 1.21868L16.7239 0.961012L16.3724 2.27937L17.3386 2.53703ZM16.707 1.08984V3.55078H17.707V1.08984H16.707ZM17.207 3.05078H14.2539V4.05078H17.207V3.05078ZM14.7539 3.55078V1.08984H13.7539V3.55078H14.7539ZM13.7693 1.21281L14.0681 2.39055L15.0374 2.14461L14.7385 0.966875L13.7693 1.21281ZM14.6593 1.77906L12.3214 1.26929L12.1083 2.24633L14.4462 2.7561L14.6593 1.77906ZM12.7134 1.79558L12.8013 0.635427L11.8042 0.559886L11.7163 1.72004L12.7134 1.79558ZM12.3027 1.09766H19.1758V0.0976562H12.3027V1.09766ZM8.41168 0.558712L8.32378 1.68371L9.32075 1.7616L9.40864 0.6366L8.41168 0.558712ZM8.63503 1.25904C8.05528 1.49317 7.33625 1.71487 6.47316 1.92201L6.70653 2.8944C7.60125 2.67967 8.3705 2.44433 9.0095 2.18628L8.63503 1.25904ZM7.07296 2.53703L7.42452 1.21868L6.45829 0.961012L6.10673 2.27937L7.07296 2.53703ZM6.44141 1.08984V3.55078H7.44141V1.08984H6.44141ZM6.94141 3.05078H3.98828V4.05078H6.94141V3.05078ZM4.48828 3.55078V1.08984H3.48828V3.55078H4.48828ZM3.50364 1.21281L3.80247 2.39055L4.77175 2.14461L4.47292 0.966875L3.50364 1.21281ZM4.39363 1.77906L2.05574 1.26929L1.8427 2.24633L4.18059 2.7561L4.39363 1.77906ZM2.44779 1.79558L2.53568 0.635427L1.53854 0.559886L1.45065 1.72004L2.44779 1.79558ZM2.03711 1.09766H8.91016V0.0976562H2.03711V1.09766ZM26.3477 24.1875L26.2812 24.6831C26.5094 24.7137 26.7289 24.5845 26.8131 24.3702L26.3477 24.1875ZM23.6582 23.4141L23.2143 23.184C23.1515 23.3051 23.141 23.4465 23.185 23.5755C23.229 23.7046 23.3238 23.81 23.4475 23.8675L23.6582 23.4141ZM26.6641 17.6133L26.3488 17.2252C26.2955 17.2685 26.2517 17.3223 26.2201 17.3832L26.6641 17.6133ZM27.2266 17.1562L27.5419 17.5443C27.6112 17.488 27.6642 17.4141 27.6953 17.3303L27.2266 17.1562ZM31.3398 6.08203L31.8279 5.97357C31.7799 5.75724 31.5951 5.59837 31.3741 5.5832C31.153 5.56804 30.9483 5.7002 30.8711 5.90794L31.3398 6.08203ZM31.4453 6.55664L31.3189 7.0404C31.4875 7.08444 31.6668 7.03756 31.7923 6.91665C31.9177 6.79575 31.9712 6.61826 31.9334 6.44818L31.4453 6.55664ZM29.4941 6.04688L28.9956 6.0091C28.9773 6.25004 29.134 6.46956 29.3678 6.53064L29.4941 6.04688ZM29.582 4.88672V4.38672C29.3205 4.38672 29.1032 4.5882 29.0835 4.84895L29.582 4.88672ZM34.6094 4.88672L35.1079 4.92566C35.1187 4.78671 35.0711 4.64953 34.9764 4.54721C34.8818 4.44489 34.7488 4.38672 34.6094 4.38672V4.88672ZM34.5215 6.01172L34.7847 6.43685C34.9202 6.35297 35.0076 6.20953 35.02 6.05066L34.5215 6.01172ZM33.6602 6.41602L33.8132 6.89203C33.8182 6.8904 33.8233 6.88868 33.8283 6.88689L33.6602 6.41602ZM32.6582 6.69727L32.3568 6.29833C32.1678 6.44114 32.1049 6.69698 32.2062 6.91112C32.3076 7.12525 32.5452 7.23889 32.7755 7.18331L32.6582 6.69727ZM33.4492 6.09961L33.9146 6.28234C33.9965 6.07394 33.9298 5.83655 33.7514 5.70125C33.573 5.56594 33.3264 5.56571 33.1478 5.70068L33.4492 6.09961ZM26.5938 18.9141L26.1268 19.0929C26.1767 19.2231 26.2787 19.3266 26.4082 19.3784C26.5377 19.4301 26.683 19.4254 26.8089 19.3654L26.5938 18.9141ZM21.6719 6.06445L21.936 5.63992C21.7537 5.52646 21.5192 5.54212 21.3536 5.67883C21.188 5.81553 21.1281 6.04274 21.205 6.2433L21.6719 6.06445ZM22.4629 6.55664L22.3473 7.04309C22.5857 7.09977 22.8301 6.97526 22.9244 6.74904C23.0187 6.52282 22.9351 6.26159 22.727 6.13211L22.4629 6.55664ZM20.3184 6.04688L19.8198 6.0091C19.8012 6.25422 19.9636 6.47647 20.2027 6.53332L20.3184 6.04688ZM20.4062 4.88672V4.38672C20.1448 4.38672 19.9274 4.5882 19.9077 4.84895L20.4062 4.88672ZM26.5234 4.88672L27.022 4.92449C27.0325 4.78572 26.9847 4.64884 26.8901 4.54678C26.7955 4.44472 26.6626 4.38672 26.5234 4.38672V4.88672ZM26.4355 6.04688L26.6505 6.49831C26.8124 6.42123 26.9206 6.2634 26.9341 6.08465L26.4355 6.04688ZM24.5371 6.66211L24.0863 6.44574C24.0028 6.6198 24.0269 6.82641 24.1483 6.97653C24.2698 7.12665 24.4667 7.19345 24.6544 7.14815L24.5371 6.66211ZM24.748 6.22266L25.2201 6.05779C25.1533 5.86671 24.978 5.73471 24.7759 5.72343C24.5738 5.71215 24.3849 5.82382 24.2973 6.00629L24.748 6.22266ZM28.4746 16.8926H28.9746C28.9746 16.8364 28.9652 16.7807 28.9466 16.7277L28.4746 16.8926ZM28.4746 18.0176L28.6897 18.4689C28.8638 18.386 28.9746 18.2104 28.9746 18.0176H28.4746ZM26.4141 23.6919C25.5003 23.5694 24.6528 23.325 23.8689 22.9606L23.4475 23.8675C24.3277 24.2766 25.2731 24.5478 26.2812 24.6831L26.4141 23.6919ZM24.1021 23.6441L27.108 17.8433L26.2201 17.3832L23.2143 23.184L24.1021 23.6441ZM26.9794 18.0013L27.5419 17.5443L26.9113 16.7682L26.3488 17.2252L26.9794 18.0013ZM27.6953 17.3303L31.8086 6.25612L30.8711 5.90794L26.7578 16.9822L27.6953 17.3303ZM30.8518 6.1905L30.9572 6.66511L31.9334 6.44818L31.8279 5.97357L30.8518 6.1905ZM31.5717 6.07288L29.6205 5.56311L29.3678 6.53064L31.3189 7.0404L31.5717 6.07288ZM29.9927 6.08465L30.0806 4.92449L29.0835 4.84895L28.9956 6.0091L29.9927 6.08465ZM29.582 5.38672H34.6094V4.38672H29.582V5.38672ZM34.1109 4.84777L34.023 5.97277L35.02 6.05066L35.1079 4.92566L34.1109 4.84777ZM34.2583 5.58659C34.0475 5.71708 33.7934 5.8375 33.492 5.94514L33.8283 6.88689C34.1832 6.76016 34.5033 6.61105 34.7847 6.43685L34.2583 5.58659ZM33.5072 5.94C33.191 6.04163 32.8689 6.13205 32.5409 6.21122L32.7755 7.18331C33.1272 7.09842 33.4731 7.00133 33.8132 6.89203L33.5072 5.94ZM32.9596 7.0962L33.7506 6.49854L33.1478 5.70068L32.3568 6.29833L32.9596 7.0962ZM32.9838 5.91688L25.8822 24.0048L26.8131 24.3702L33.9146 6.28234L32.9838 5.91688ZM27.0607 18.7352L22.1388 5.88561L21.205 6.2433L26.1268 19.0929L27.0607 18.7352ZM21.4077 6.48898L22.1987 6.98117L22.727 6.13211L21.936 5.63992L21.4077 6.48898ZM22.5785 6.07019L20.434 5.56043L20.2027 6.53332L22.3473 7.04309L22.5785 6.07019ZM20.8169 6.08465L20.9048 4.92449L19.9077 4.84895L19.8198 6.0091L20.8169 6.08465ZM20.4062 5.38672H26.5234V4.38672H20.4062V5.38672ZM26.0249 4.84895L25.937 6.0091L26.9341 6.08465L27.022 4.92449L26.0249 4.84895ZM26.2206 5.59544C26.0015 5.69979 25.7319 5.80294 25.4084 5.90333L25.7048 6.85839C26.0611 6.74784 26.3775 6.62833 26.6505 6.49831L26.2206 5.59544ZM25.4084 5.90333C25.0786 6.00569 24.7491 6.09659 24.4198 6.17607L24.6544 7.14815C25.0048 7.06357 25.355 6.96697 25.7048 6.85839L25.4084 5.90333ZM24.9879 6.87847L25.1988 6.43902L24.2973 6.00629L24.0863 6.44574L24.9879 6.87847ZM24.276 6.38752L28.0026 17.0574L28.9466 16.7277L25.2201 6.05779L24.276 6.38752ZM27.9746 16.8926V18.0176H28.9746V16.8926H27.9746ZM28.2595 17.5662L26.3786 18.4627L26.8089 19.3654L28.6897 18.4689L28.2595 17.5662ZM36.8945 6.48633L37.2682 6.81851L37.2698 6.8168L36.8945 6.48633ZM45.4023 6.1875L45.023 6.51324L45.0248 6.51528L45.4023 6.1875ZM46.7207 11.8301L46.6271 12.3212C46.7614 12.3468 46.9002 12.3163 47.0114 12.2369C47.1225 12.1575 47.1964 12.036 47.2157 11.9008L46.7207 11.8301ZM43.7676 11.2676H43.2676C43.2676 11.5076 43.4382 11.7138 43.674 11.7587L43.7676 11.2676ZM43.1172 7.38281L42.6753 7.61677L42.678 7.62179L43.1172 7.38281ZM46.3867 15.5215L46.8853 15.5586C46.898 15.3884 46.823 15.2235 46.6864 15.1212C46.5498 15.019 46.3704 14.9934 46.2107 15.0535L46.3867 15.5215ZM46.2637 17.1738L46.5327 17.5953C46.6655 17.5105 46.7506 17.3681 46.7623 17.211L46.2637 17.1738ZM44.2773 18L44.3969 18.4855L44.4021 18.4842L44.2773 18ZM36.3496 11.8301H35.8496C35.8496 12.1062 36.0735 12.3301 36.3496 12.3301V11.8301ZM36.3496 10.3887V9.88867C36.0735 9.88867 35.8496 10.1125 35.8496 10.3887H36.3496ZM46.4395 10.3887L46.9302 10.2929C46.8844 10.0581 46.6787 9.88867 46.4395 9.88867V10.3887ZM46.7207 11.8301V12.3301C46.8701 12.3301 47.0116 12.2633 47.1066 12.148C47.2016 12.0327 47.2401 11.8809 47.2114 11.7343L46.7207 11.8301ZM41.834 17.7812C39.8033 17.7812 38.3118 17.2336 37.2832 16.205L36.5761 16.9121C37.8445 18.1805 39.6225 18.7812 41.834 18.7812V17.7812ZM37.2832 16.205C36.2552 15.177 35.707 13.6801 35.707 11.6367H34.707C34.707 13.859 35.3073 15.6433 36.5761 16.9121L37.2832 16.205ZM35.707 11.6367C35.707 9.55587 36.2454 7.96925 37.2682 6.81851L36.5208 6.15415C35.2937 7.53465 34.707 9.38163 34.707 11.6367H35.707ZM37.2698 6.8168C38.2876 5.6611 39.6611 5.07031 41.4473 5.07031V4.07031C39.4131 4.07031 37.7514 4.75687 36.5193 6.15586L37.2698 6.8168ZM41.4473 5.07031C43.045 5.07031 44.2116 5.56828 45.023 6.51324L45.7817 5.86176C44.7415 4.65047 43.2714 4.07031 41.4473 4.07031V5.07031ZM45.0248 6.51528C45.8441 7.45904 46.291 8.85958 46.291 10.793H47.291C47.291 8.71854 46.8122 7.04877 45.7799 5.85972L45.0248 6.51528ZM46.291 10.793C46.291 10.9576 46.2855 11.1223 46.2745 11.2871L47.2723 11.3536C47.2848 11.1667 47.291 10.9799 47.291 10.793H46.291ZM46.2745 11.2871C46.2636 11.4511 46.2473 11.6085 46.2257 11.7594L47.2157 11.9008C47.241 11.7235 47.2598 11.5411 47.2723 11.3536L46.2745 11.2871ZM46.8143 11.3389L43.8611 10.7764L43.674 11.7587L46.6271 12.3212L46.8143 11.3389ZM44.2676 11.2676C44.2676 9.45771 44.0527 8.05608 43.5564 7.14384L42.678 7.62179C43.0488 8.3033 43.2676 9.49151 43.2676 11.2676H44.2676ZM43.5591 7.14887C43.31 6.67834 42.9694 6.30524 42.5319 6.05311C42.0961 5.802 41.5932 5.6875 41.043 5.6875V6.6875C41.4537 6.6875 41.7769 6.77222 42.0326 6.91954C42.2865 7.06586 42.5025 7.29041 42.6753 7.61676L43.5591 7.14887ZM41.043 5.6875C39.9482 5.6875 39.0787 6.13434 38.511 7.03207C37.9677 7.89116 37.7305 9.11577 37.7305 10.6348H38.7305C38.7305 9.18892 38.962 8.1899 39.3562 7.56656C39.7259 6.98187 40.2627 6.6875 41.043 6.6875V5.6875ZM37.7305 10.6348C37.7305 12.5573 38.1125 14.0916 38.9605 15.1525C39.8257 16.2348 41.1083 16.7422 42.7129 16.7422V15.7422C41.3292 15.7422 40.3706 15.315 39.7416 14.5281C39.0955 13.7199 38.7305 12.4506 38.7305 10.6348H37.7305ZM42.7129 16.7422C43.9539 16.7422 45.2382 16.4877 46.5628 15.9895L46.2107 15.0535C44.9805 15.5162 43.8156 15.7422 42.7129 15.7422V16.7422ZM45.8881 15.4844L45.7651 17.1367L46.7623 17.211L46.8853 15.5586L45.8881 15.4844ZM45.9947 16.7524C45.497 17.07 44.8859 17.3269 44.1526 17.5158L44.4021 18.4842C45.2157 18.2746 45.9288 17.9807 46.5327 17.5953L45.9947 16.7524ZM44.1578 17.5145C43.4391 17.6914 42.6651 17.7812 41.834 17.7812V18.7812C42.7373 18.7812 43.5922 18.6836 44.3969 18.4855L44.1578 17.5145ZM36.8496 11.8301V10.3887H35.8496V11.8301H36.8496ZM36.3496 10.8887H46.4395V9.88867H36.3496V10.8887ZM45.9487 10.4844L46.23 11.9258L47.2114 11.7343L46.9302 10.2929L45.9487 10.4844ZM46.7207 11.3301H36.3496V12.3301H46.7207V11.3301ZM60.8711 18L60.4767 18.3074C60.5715 18.4289 60.717 18.5 60.8711 18.5V18ZM54.5957 9.94922H54.0957C54.0957 10.0606 54.1329 10.1688 54.2014 10.2566L54.5957 9.94922ZM54.5957 8.96484L54.2101 8.64654C54.1362 8.73613 54.0957 8.84868 54.0957 8.96484H54.5957ZM60.748 1.51172L61.1973 1.73114C61.3085 1.50344 61.2318 1.22857 61.0188 1.09136C60.8058 0.954154 60.5238 0.998003 60.3624 1.19342L60.748 1.51172ZM60.3789 2.26758L60.2731 2.75626C60.4981 2.80495 60.7272 2.6938 60.8282 2.487L60.3789 2.26758ZM58.0234 1.75781L57.5249 1.72004C57.506 1.96899 57.6737 2.19369 57.9177 2.2465L58.0234 1.75781ZM58.1113 0.597656V0.0976562C57.8498 0.0976562 57.6325 0.299142 57.6128 0.559886L58.1113 0.597656ZM64.5273 0.597656L65.0258 0.6366C65.0367 0.497648 64.989 0.36047 64.8944 0.258151C64.7998 0.155831 64.6667 0.0976562 64.5273 0.0976562V0.597656ZM64.4395 1.72266L64.6701 2.16626C64.8233 2.08664 64.9245 1.93367 64.9379 1.7616L64.4395 1.72266ZM63.4551 2.12695L63.5945 2.60713C63.5992 2.60576 63.6039 2.60432 63.6086 2.60281L63.4551 2.12695ZM62.3301 2.39062L62.0312 1.98981C61.8451 2.12859 61.779 2.3772 61.8716 2.59008C61.9642 2.80295 62.1911 2.92409 62.4195 2.88256L62.3301 2.39062ZM63.3672 1.61719L63.7519 1.9366C63.9137 1.74175 63.9042 1.45668 63.7298 1.27298C63.5555 1.08928 63.2713 1.06496 63.0683 1.21637L63.3672 1.61719ZM56.8281 9.49219L56.3308 9.54386C56.3516 9.744 56.4903 9.91218 56.6829 9.97063C56.8754 10.0291 57.0843 9.96641 57.2128 9.8116L56.8281 9.49219ZM56.6875 8.13867L57.0752 7.8229C56.9356 7.6515 56.7 7.59212 56.4958 7.67689C56.2916 7.76166 56.1673 7.97045 56.1902 8.19034L56.6875 8.13867ZM63.7891 16.8574L63.5812 17.3122C63.7925 17.4088 64.0426 17.3471 64.1847 17.1632C64.3268 16.9793 64.3235 16.7218 64.1767 16.5417L63.7891 16.8574ZM62.5586 16.2949L62.6574 15.8048C62.4084 15.7546 62.1614 15.899 62.083 16.1406C62.0046 16.3821 62.1198 16.6441 62.3507 16.7497L62.5586 16.2949ZM64.9141 16.7695L65.4128 16.8052C65.4307 16.5542 65.2594 16.3291 65.0128 16.2794L64.9141 16.7695ZM64.8262 18V18.5C65.0885 18.5 65.3062 18.2973 65.3249 18.0356L64.8262 18ZM50.8164 17.7363H50.3164C50.3164 18.0125 50.5403 18.2363 50.8164 18.2363V17.7363ZM50.8164 0.878906V0.378906C50.5403 0.378906 50.3164 0.602764 50.3164 0.878906H50.8164ZM53.7695 0.878906H54.2695C54.2695 0.602764 54.0457 0.378906 53.7695 0.378906V0.878906ZM53.7695 17.7363V18.2363C54.0457 18.2363 54.2695 18.0125 54.2695 17.7363H53.7695ZM52.3105 10.3535H51.8105C51.8105 10.6297 52.0344 10.8535 52.3105 10.8535V10.3535ZM52.3105 8.52539V8.02539C52.0344 8.02539 51.8105 8.24925 51.8105 8.52539H52.3105ZM56.916 8.52539H57.416C57.416 8.24925 57.1922 8.02539 56.916 8.02539V8.52539ZM56.916 10.3535V10.8535C57.1922 10.8535 57.416 10.6297 57.416 10.3535H56.916ZM48.8477 18L48.3492 17.9611C48.3383 18.1 48.386 18.2372 48.4806 18.3395C48.5752 18.4418 48.7083 18.5 48.8477 18.5V18ZM48.9355 16.875L48.7483 16.4114C48.5724 16.4824 48.4518 16.6469 48.4371 16.8361L48.9355 16.875ZM51.168 16.1895L51.6511 16.3183C51.6965 16.1481 51.6489 15.9665 51.5259 15.8404C51.4029 15.7142 51.2226 15.6621 51.0513 15.7033L51.168 16.1895ZM50.8164 17.5078H50.3164C50.3164 17.7588 50.5025 17.971 50.7514 18.0036C51.0003 18.0362 51.2348 17.8792 51.2995 17.6366L50.8164 17.5078ZM50.8164 15.0469V14.5469C50.5403 14.5469 50.3164 14.7707 50.3164 15.0469H50.8164ZM53.7695 15.0469H54.2695C54.2695 14.7707 54.0457 14.5469 53.7695 14.5469V15.0469ZM53.7695 17.5078L53.2849 17.6308C53.3469 17.8752 53.5813 18.0352 53.8315 18.004C54.0817 17.9727 54.2695 17.76 54.2695 17.5078H53.7695ZM53.4707 16.3301L53.5772 15.8416C53.408 15.8046 53.2316 15.858 53.1112 15.9826C52.9908 16.1071 52.9435 16.2851 52.9861 16.453L53.4707 16.3301ZM55.8086 16.8398L56.3072 16.8776C56.326 16.629 56.1588 16.4044 55.9151 16.3513L55.8086 16.8398ZM55.7207 18V18.5C55.9822 18.5 56.1995 18.2985 56.2193 18.0378L55.7207 18ZM55.7383 0.597656L56.2368 0.6366C56.2476 0.497648 56.2 0.36047 56.1053 0.258151C56.0107 0.155831 55.8777 0.0976562 55.7383 0.0976562V0.597656ZM55.6504 1.72266L55.8376 2.18628C56.0135 2.11523 56.1341 1.95075 56.1489 1.7616L55.6504 1.72266ZM53.418 2.4082L52.9349 2.27937C52.8895 2.44961 52.937 2.63117 53.06 2.7573C53.183 2.88343 53.3633 2.93551 53.5347 2.8944L53.418 2.4082ZM53.7695 1.08984H54.2695C54.2695 0.838814 54.0834 0.626699 53.8345 0.594082C53.5856 0.561465 53.3511 0.718459 53.2864 0.961012L53.7695 1.08984ZM53.7695 3.55078V4.05078C54.0457 4.05078 54.2695 3.82692 54.2695 3.55078H53.7695ZM50.8164 3.55078H50.3164C50.3164 3.82692 50.5403 4.05078 50.8164 4.05078V3.55078ZM50.8164 1.08984L51.301 0.966875C51.239 0.722438 51.0047 0.562446 50.7544 0.593698C50.5042 0.624949 50.3164 0.837661 50.3164 1.08984H50.8164ZM51.1152 2.26758L51.0087 2.7561C51.178 2.79301 51.3543 2.73966 51.4747 2.61511C51.5951 2.49055 51.6425 2.31253 51.5999 2.14461L51.1152 2.26758ZM48.7773 1.75781L48.2788 1.72004C48.2599 1.96869 48.4272 2.19321 48.6708 2.24633L48.7773 1.75781ZM48.8652 0.597656V0.0976562C48.6037 0.0976562 48.3864 0.299142 48.3667 0.559886L48.8652 0.597656ZM61.2654 17.6926L54.9901 9.64183L54.2014 10.2566L60.4767 18.3074L61.2654 17.6926ZM55.0957 9.94922V8.96484H54.0957V9.94922H55.0957ZM54.9813 9.28314L61.1336 1.83002L60.3624 1.19342L54.2101 8.64654L54.9813 9.28314ZM60.2988 1.2923L59.9296 2.04816L60.8282 2.487L61.1973 1.73114L60.2988 1.2923ZM60.4847 1.77889L58.1292 1.26913L57.9177 2.2465L60.2731 2.75626L60.4847 1.77889ZM58.522 1.79558L58.6099 0.635427L57.6128 0.559886L57.5249 1.72004L58.522 1.79558ZM58.1113 1.09766H64.5273V0.0976562H58.1113V1.09766ZM64.0289 0.558712L63.941 1.68371L64.9379 1.7616L65.0258 0.6366L64.0289 0.558712ZM64.2088 1.27905C63.9441 1.4167 63.6423 1.54119 63.3016 1.6511L63.6086 2.60281C63.9944 2.47834 64.3489 2.3333 64.6701 2.16626L64.2088 1.27905ZM63.3157 1.64678C62.9695 1.74729 62.6112 1.83132 62.2406 1.89869L62.4195 2.88256C62.8224 2.8093 63.2141 2.71755 63.5945 2.60713L63.3157 1.64678ZM62.629 2.79144L63.6661 2.018L63.0683 1.21637L62.0312 1.98981L62.629 2.79144ZM62.9825 1.29777L56.4435 9.17277L57.2128 9.8116L63.7519 1.9366L62.9825 1.29777ZM57.3254 9.44052L57.1848 8.087L56.1902 8.19034L56.3308 9.54386L57.3254 9.44052ZM56.2998 8.45444L63.4014 17.1732L64.1767 16.5417L57.0752 7.8229L56.2998 8.45444ZM63.9969 16.4027L62.7665 15.8402L62.3507 16.7497L63.5812 17.3122L63.9969 16.4027ZM62.4598 16.7851L64.8153 17.2597L65.0128 16.2794L62.6574 15.8048L62.4598 16.7851ZM64.4153 16.7339L64.3274 17.9644L65.3249 18.0356L65.4128 16.8052L64.4153 16.7339ZM64.8262 17.5H60.8711V18.5H64.8262V17.5ZM51.3164 17.7363V0.878906H50.3164V17.7363H51.3164ZM50.8164 1.37891H53.7695V0.378906H50.8164V1.37891ZM53.2695 0.878906V17.7363H54.2695V0.878906H53.2695ZM53.7695 17.2363H50.8164V18.2363H53.7695V17.2363ZM52.8105 10.3535V8.52539H51.8105V10.3535H52.8105ZM52.3105 9.02539H56.916V8.02539H52.3105V9.02539ZM56.416 8.52539V10.3535H57.416V8.52539H56.416ZM56.916 9.85352H52.3105V10.8535H56.916V9.85352ZM49.3461 18.0389L49.434 16.9139L48.4371 16.8361L48.3492 17.9611L49.3461 18.0389ZM49.1228 17.3386C49.7025 17.1045 50.4216 16.8828 51.2847 16.6756L51.0513 15.7033C50.1566 15.918 49.3873 16.1533 48.7483 16.4114L49.1228 17.3386ZM50.6849 16.0606L50.3333 17.379L51.2995 17.6366L51.6511 16.3183L50.6849 16.0606ZM51.3164 17.5078V15.0469H50.3164V17.5078H51.3164ZM50.8164 15.5469H53.7695V14.5469H50.8164V15.5469ZM53.2695 15.0469V17.5078H54.2695V15.0469H53.2695ZM54.2542 17.3848L53.9553 16.2071L52.9861 16.453L53.2849 17.6308L54.2542 17.3848ZM53.3642 16.8186L55.7021 17.3284L55.9151 16.3513L53.5772 15.8416L53.3642 16.8186ZM55.31 16.8021L55.2221 17.9622L56.2193 18.0378L56.3072 16.8776L55.31 16.8021ZM55.7207 17.5H48.8477V18.5H55.7207V17.5ZM55.2398 0.558712L55.1519 1.68371L56.1489 1.7616L56.2368 0.6366L55.2398 0.558712ZM55.4632 1.25904C54.8834 1.49317 54.1644 1.71487 53.3013 1.92201L53.5347 2.8944C54.4294 2.67967 55.1986 2.44433 55.8376 2.18628L55.4632 1.25904ZM53.9011 2.53703L54.2526 1.21868L53.2864 0.961012L52.9349 2.27937L53.9011 2.53703ZM53.2695 1.08984V3.55078H54.2695V1.08984H53.2695ZM53.7695 3.05078H50.8164V4.05078H53.7695V3.05078ZM51.3164 3.55078V1.08984H50.3164V3.55078H51.3164ZM50.3318 1.21281L50.6306 2.39055L51.5999 2.14461L51.301 0.966875L50.3318 1.21281ZM51.2218 1.77906L48.8839 1.26929L48.6708 2.24633L51.0087 2.7561L51.2218 1.77906ZM49.2759 1.79558L49.3638 0.635427L48.3667 0.559886L48.2788 1.72004L49.2759 1.79558ZM48.8652 1.09766H55.7383V0.0976562H48.8652V1.09766ZM70.7852 24.1875L70.7187 24.6831C70.9469 24.7137 71.1664 24.5845 71.2506 24.3702L70.7852 24.1875ZM68.0957 23.4141L67.6518 23.184C67.589 23.3051 67.5785 23.4465 67.6225 23.5755C67.6665 23.7046 67.7613 23.81 67.885 23.8675L68.0957 23.4141ZM71.1016 17.6133L70.7863 17.2252C70.733 17.2685 70.6892 17.3223 70.6576 17.3832L71.1016 17.6133ZM71.6641 17.1562L71.9794 17.5443C72.0487 17.488 72.1017 17.4141 72.1328 17.3303L71.6641 17.1562ZM75.7773 6.08203L76.2654 5.97357C76.2174 5.75724 76.0326 5.59837 75.8116 5.5832C75.5905 5.56804 75.3858 5.7002 75.3086 5.90794L75.7773 6.08203ZM75.8828 6.55664L75.7564 7.0404C75.925 7.08444 76.1043 7.03756 76.2298 6.91665C76.3552 6.79575 76.4087 6.61826 76.3709 6.44818L75.8828 6.55664ZM73.9316 6.04688L73.4331 6.0091C73.4148 6.25004 73.5715 6.46956 73.8053 6.53064L73.9316 6.04688ZM74.0195 4.88672V4.38672C73.758 4.38672 73.5407 4.5882 73.521 4.84895L74.0195 4.88672ZM79.0469 4.88672L79.5454 4.92566C79.5562 4.78671 79.5086 4.64953 79.4139 4.54721C79.3193 4.44489 79.1863 4.38672 79.0469 4.38672V4.88672ZM78.959 6.01172L79.2222 6.43685C79.3577 6.35297 79.4451 6.20953 79.4575 6.05066L78.959 6.01172ZM78.0977 6.41602L78.2507 6.89203C78.2557 6.8904 78.2608 6.88868 78.2658 6.88689L78.0977 6.41602ZM77.0957 6.69727L76.7943 6.29833C76.6053 6.44114 76.5424 6.69698 76.6437 6.91112C76.7451 7.12525 76.9827 7.23889 77.213 7.18331L77.0957 6.69727ZM77.8867 6.09961L78.3521 6.28234C78.434 6.07394 78.3673 5.83655 78.1889 5.70125C78.0105 5.56594 77.7639 5.56571 77.5853 5.70068L77.8867 6.09961ZM71.0312 18.9141L70.5643 19.0929C70.6142 19.2231 70.7162 19.3266 70.8457 19.3784C70.9752 19.4301 71.1205 19.4254 71.2464 19.3654L71.0312 18.9141ZM66.1094 6.06445L66.3735 5.63992C66.1912 5.52646 65.9567 5.54212 65.7911 5.67883C65.6255 5.81553 65.5656 6.04274 65.6425 6.2433L66.1094 6.06445ZM66.9004 6.55664L66.7848 7.04309C67.0232 7.09977 67.2676 6.97526 67.3619 6.74904C67.4562 6.52282 67.3726 6.26159 67.1645 6.13211L66.9004 6.55664ZM64.7559 6.04688L64.2573 6.0091C64.2387 6.25422 64.4011 6.47647 64.6402 6.53332L64.7559 6.04688ZM64.8438 4.88672V4.38672C64.5823 4.38672 64.3649 4.5882 64.3452 4.84895L64.8438 4.88672ZM70.9609 4.88672L71.4595 4.92449C71.47 4.78572 71.4222 4.64884 71.3276 4.54678C71.233 4.44472 71.1001 4.38672 70.9609 4.38672V4.88672ZM70.873 6.04688L71.088 6.49831C71.2499 6.42123 71.3581 6.2634 71.3716 6.08465L70.873 6.04688ZM68.9746 6.66211L68.5238 6.44574C68.4403 6.6198 68.4644 6.82641 68.5858 6.97653C68.7073 7.12665 68.9042 7.19345 69.0919 7.14815L68.9746 6.66211ZM69.1855 6.22266L69.6576 6.05779C69.5908 5.86671 69.4155 5.73471 69.2134 5.72343C69.0113 5.71215 68.8224 5.82382 68.7348 6.00629L69.1855 6.22266ZM72.9121 16.8926H73.4121C73.4121 16.8364 73.4027 16.7807 73.3841 16.7277L72.9121 16.8926ZM72.9121 18.0176L73.1272 18.4689C73.3013 18.386 73.4121 18.2104 73.4121 18.0176H72.9121ZM70.8516 23.6919C69.9378 23.5694 69.0903 23.325 68.3064 22.9606L67.885 23.8675C68.7652 24.2766 69.7106 24.5478 70.7187 24.6831L70.8516 23.6919ZM68.5396 23.6441L71.5455 17.8433L70.6576 17.3832L67.6518 23.184L68.5396 23.6441ZM71.4169 18.0013L71.9794 17.5443L71.3488 16.7682L70.7863 17.2252L71.4169 18.0013ZM72.1328 17.3303L76.2461 6.25612L75.3086 5.90794L71.1953 16.9822L72.1328 17.3303ZM75.2893 6.1905L75.3947 6.66511L76.3709 6.44818L76.2654 5.97357L75.2893 6.1905ZM76.0092 6.07288L74.058 5.56311L73.8053 6.53064L75.7564 7.0404L76.0092 6.07288ZM74.4302 6.08465L74.5181 4.92449L73.521 4.84895L73.4331 6.0091L74.4302 6.08465ZM74.0195 5.38672H79.0469V4.38672H74.0195V5.38672ZM78.5484 4.84777L78.4605 5.97277L79.4575 6.05066L79.5454 4.92566L78.5484 4.84777ZM78.6958 5.58659C78.485 5.71708 78.2309 5.8375 77.9295 5.94514L78.2658 6.88689C78.6207 6.76016 78.9408 6.61105 79.2222 6.43685L78.6958 5.58659ZM77.9447 5.94C77.6285 6.04163 77.3064 6.13205 76.9784 6.21122L77.213 7.18331C77.5647 7.09842 77.9106 7.00133 78.2507 6.89203L77.9447 5.94ZM77.3971 7.0962L78.1881 6.49854L77.5853 5.70068L76.7943 6.29833L77.3971 7.0962ZM77.4213 5.91688L70.3197 24.0048L71.2506 24.3702L78.3521 6.28234L77.4213 5.91688ZM71.4982 18.7352L66.5763 5.88561L65.6425 6.2433L70.5643 19.0929L71.4982 18.7352ZM65.8452 6.48898L66.6362 6.98117L67.1645 6.13211L66.3735 5.63992L65.8452 6.48898ZM67.016 6.07019L64.8715 5.56043L64.6402 6.53332L66.7848 7.04309L67.016 6.07019ZM65.2544 6.08465L65.3423 4.92449L64.3452 4.84895L64.2573 6.0091L65.2544 6.08465ZM64.8438 5.38672H70.9609V4.38672H64.8438V5.38672ZM70.4624 4.84895L70.3745 6.0091L71.3716 6.08465L71.4595 4.92449L70.4624 4.84895ZM70.6581 5.59544C70.439 5.69979 70.1694 5.80294 69.8459 5.90333L70.1423 6.85839C70.4986 6.74784 70.815 6.62833 71.088 6.49831L70.6581 5.59544ZM69.8459 5.90333C69.5161 6.00569 69.1866 6.09659 68.8573 6.17607L69.0919 7.14815C69.4423 7.06357 69.7925 6.96697 70.1423 6.85839L69.8459 5.90333ZM69.4254 6.87847L69.6363 6.43902L68.7348 6.00629L68.5238 6.44574L69.4254 6.87847ZM68.7135 6.38752L72.4401 17.0574L73.3841 16.7277L69.6576 6.05779L68.7135 6.38752ZM72.4121 16.8926V18.0176H73.4121V16.8926H72.4121ZM72.697 17.5662L70.8161 18.4627L71.2464 19.3654L73.1272 18.4689L72.697 17.5662ZM81.2441 6.22266L81.2784 5.72383C81.1402 5.71433 81.0042 5.76262 80.9029 5.85718C80.8016 5.95174 80.7441 6.08409 80.7441 6.22266H81.2441ZM84.0566 6.41602H84.5566C84.5566 6.15318 84.3531 5.93522 84.0909 5.91719L84.0566 6.41602ZM84.5664 15.6621L84.177 15.9758L84.1823 15.9822L84.5664 15.6621ZM89.9805 14.7305L90.4411 14.536C90.3801 14.3916 90.255 14.2842 90.1031 14.2457C89.9511 14.2073 89.79 14.2423 89.6677 14.3404L89.9805 14.7305ZM90.3145 15.5215L90.6958 15.8449C90.8178 15.701 90.8484 15.5008 90.7751 15.327L90.3145 15.5215ZM81.2441 8.2793H80.7441C80.7441 8.43223 80.8141 8.57675 80.9341 8.67158C81.0541 8.7664 81.2109 8.8011 81.3597 8.76577L81.2441 8.2793ZM81.2441 6.46875L81.6729 6.2115C81.5573 6.01879 81.3273 5.9269 81.1107 5.98689C80.8941 6.04688 80.7441 6.24401 80.7441 6.46875H81.2441ZM81.666 7.17188L81.45 7.62281C81.6491 7.71817 81.8871 7.6717 82.0357 7.50848C82.1843 7.34526 82.2083 7.1039 82.0948 6.91463L81.666 7.17188ZM79.5742 6.16992L79.0767 6.12017C79.0557 6.3297 79.1683 6.5299 79.3582 6.62086L79.5742 6.16992ZM79.6621 5.29102L79.5056 4.81614C79.3179 4.87799 79.1843 5.04461 79.1646 5.24126L79.6621 5.29102ZM83.2832 4.72852V4.22835L83.2705 4.22868L83.2832 4.72852ZM84.0566 4.72852H84.5566C84.5566 4.45237 84.3328 4.22852 84.0566 4.22852V4.72852ZM84.0566 7.61133L84.1722 8.0978C84.3975 8.04427 84.5566 7.84296 84.5566 7.61133H84.0566ZM91.8965 16.9629L91.7752 17.448C91.9246 17.4853 92.0828 17.4517 92.2042 17.357C92.3255 17.2622 92.3965 17.1169 92.3965 16.9629H91.8965ZM89.084 16.2598H88.584C88.584 16.4892 88.7401 16.6892 88.9627 16.7448L89.084 16.2598ZM89.084 6.25781L89.1152 5.75879C88.9774 5.75018 88.8422 5.79889 88.7416 5.8934C88.641 5.9879 88.584 6.11979 88.584 6.25781H89.084ZM91.8965 6.43359H92.3965C92.3965 6.16956 92.1912 5.95104 91.9277 5.93457L91.8965 6.43359ZM89.084 8.2793H88.584C88.584 8.43326 88.6549 8.57865 88.7763 8.6734C88.8976 8.76815 89.0559 8.80171 89.2053 8.76437L89.084 8.2793ZM89.084 6.46875L89.5155 6.21616C89.4014 6.02134 89.171 5.9271 88.9531 5.98618C88.7353 6.04526 88.584 6.243 88.584 6.46875H89.084ZM89.5059 7.18945L89.2908 7.64082C89.4889 7.73527 89.7256 7.68938 89.8741 7.52769C90.0226 7.366 90.0483 7.12634 89.9374 6.93686L89.5059 7.18945ZM87.2559 6.11719L86.7579 6.07192C86.739 6.28034 86.8518 6.47852 87.0408 6.56855L87.2559 6.11719ZM87.3262 5.34375L87.1592 4.87244C86.9752 4.93763 86.8459 5.10401 86.8282 5.29848L87.3262 5.34375ZM89.1543 4.9043L89.225 5.39935L89.2336 5.39796L89.1543 4.9043ZM91.123 4.72852V4.22844L91.1141 4.2286L91.123 4.72852ZM91.8965 4.72852H92.3965C92.3965 4.45237 92.1726 4.22852 91.8965 4.22852V4.72852ZM91.8965 7.57617L92.0178 8.06124C92.2403 8.0056 92.3965 7.80561 92.3965 7.57617H91.8965ZM89.8574 18.0527L89.3737 18.1792C89.4305 18.3965 89.6252 18.5492 89.8497 18.5527L89.8574 18.0527ZM89.2598 15.7676L89.122 15.2869C88.8609 15.3618 88.7073 15.6313 88.776 15.8941L89.2598 15.7676ZM91.8965 15.0117H92.3965C92.3965 14.8547 92.3228 14.7069 92.1974 14.6124C92.072 14.5179 91.9096 14.4878 91.7587 14.5311L91.8965 15.0117ZM91.8965 16.9277L91.4584 17.1687C91.5684 17.3687 91.7998 17.4688 92.0209 17.412C92.2419 17.3552 92.3965 17.156 92.3965 16.9277H91.8965ZM91.5098 16.2246L91.6476 15.744C91.4535 15.6883 91.245 15.7549 91.119 15.9127C90.993 16.0705 90.9743 16.2886 91.0717 16.4656L91.5098 16.2246ZM93.6543 16.8398L94.1524 16.8828C94.173 16.6446 94.022 16.4252 93.7922 16.3592L93.6543 16.8398ZM93.5664 17.8594L93.6447 18.3532C93.8716 18.3172 94.0448 18.1312 94.0646 17.9023L93.5664 17.8594ZM84.918 17.7988C83.786 17.7988 83.0242 17.4846 82.5355 16.9374C82.0372 16.3795 81.7441 15.4926 81.7441 14.1855H80.7441C80.7441 15.6207 81.0634 16.7904 81.7897 17.6036C82.5256 18.4275 83.6008 18.7988 84.918 18.7988V17.7988ZM81.7441 14.1855V6.22266H80.7441V14.1855H81.7441ZM81.2098 6.72148L84.0223 6.91484L84.0909 5.91719L81.2784 5.72383L81.2098 6.72148ZM83.5566 6.41602V13.623H84.5566V6.41602H83.5566ZM83.5566 13.623C83.5566 14.5994 83.7295 15.4202 84.177 15.9758L84.9558 15.3484C84.7236 15.0603 84.5566 14.5217 84.5566 13.623H83.5566ZM84.1823 15.9822C84.6603 16.5558 85.3776 16.7949 86.2188 16.7949V15.7949C85.5599 15.7949 85.1757 15.6122 84.9505 15.342L84.1823 15.9822ZM86.2188 16.7949C87.576 16.7949 88.9372 16.2078 90.2932 15.1206L89.6677 14.3404C88.4222 15.339 87.2755 15.7949 86.2188 15.7949V16.7949ZM89.5198 14.925L89.8538 15.716L90.7751 15.327L90.4411 14.536L89.5198 14.925ZM89.9331 15.1981C88.4372 16.962 86.7693 17.7988 84.918 17.7988V18.7988C87.1214 18.7988 89.0511 17.7841 90.6958 15.8449L89.9331 15.1981ZM81.7441 8.2793V6.46875H80.7441V8.2793H81.7441ZM80.8154 6.726L81.2373 7.42912L82.0948 6.91463L81.6729 6.2115L80.8154 6.726ZM81.882 6.72094L79.7902 5.71898L79.3582 6.62086L81.45 7.62281L81.882 6.72094ZM80.0717 6.21967L80.1596 5.34077L79.1646 5.24126L79.0767 6.12017L80.0717 6.21967ZM79.8186 5.76589C80.7927 5.44488 81.9493 5.26259 83.2959 5.22835L83.2705 4.22868C81.8515 4.26475 80.594 4.45746 79.5056 4.81614L79.8186 5.76589ZM83.2832 5.22852H84.0566V4.22852H83.2832V5.22852ZM83.5566 4.72852V7.61133H84.5566V4.72852H83.5566ZM83.9411 7.12486L81.1286 7.79283L81.3597 8.76577L84.1722 8.0978L83.9411 7.12486ZM92.0178 16.4778L89.2053 15.7747L88.9627 16.7448L91.7752 17.448L92.0178 16.4778ZM89.584 16.2598V6.25781H88.584V16.2598H89.584ZM89.0528 6.75684L91.8653 6.93262L91.9277 5.93457L89.1152 5.75879L89.0528 6.75684ZM91.3965 6.43359V16.9629H92.3965V6.43359H91.3965ZM89.584 8.2793V6.46875H88.584V8.2793H89.584ZM88.6525 6.72134L89.0744 7.44204L89.9374 6.93686L89.5155 6.21616L88.6525 6.72134ZM89.721 6.73809L87.471 5.66582L87.0408 6.56855L89.2908 7.64082L89.721 6.73809ZM87.7538 6.16246L87.8241 5.38902L86.8282 5.29848L86.7579 6.07192L87.7538 6.16246ZM87.4931 5.81506C88.0212 5.62804 88.598 5.48885 89.225 5.39927L89.0836 4.40932C88.3981 4.50725 87.7562 4.66103 87.1592 4.87244L87.4931 5.81506ZM89.2336 5.39796C89.8669 5.29619 90.4996 5.23973 91.132 5.22844L91.1141 4.2286C90.434 4.24074 89.7542 4.30147 89.075 4.41063L89.2336 5.39796ZM91.123 5.22852H91.8965V4.22852H91.123V5.22852ZM91.3965 4.72852V7.57617H92.3965V4.72852H91.3965ZM91.7752 7.0911L88.9627 7.79423L89.2053 8.76437L92.0178 8.06124L91.7752 7.0911ZM90.3412 17.9262L89.7435 15.6411L88.776 15.8941L89.3737 18.1792L90.3412 17.9262ZM89.3975 16.2482L92.0343 15.4924L91.7587 14.5311L89.122 15.2869L89.3975 16.2482ZM91.3965 15.0117V16.9277H92.3965V15.0117H91.3965ZM92.3346 16.6868L91.9479 15.9837L91.0717 16.4656L91.4584 17.1687L92.3346 16.6868ZM91.3719 16.7052L93.5164 17.3205L93.7922 16.3592L91.6476 15.744L91.3719 16.7052ZM93.1561 16.7969L93.0683 17.8164L94.0646 17.9023L94.1524 16.8828L93.1561 16.7969ZM93.4881 17.3655C92.5667 17.5116 91.362 17.576 89.8652 17.5528L89.8497 18.5527C91.3763 18.5763 92.6442 18.5118 93.6447 18.3532L93.4881 17.3655ZM105.309 17.8945H104.809C104.809 18.1707 105.032 18.3945 105.309 18.3945V17.8945ZM99.2969 8.10352L98.8326 8.28921C98.8913 8.43581 99.0157 8.5461 99.1683 8.5867C99.3209 8.6273 99.4837 8.59345 99.6074 8.49539L99.2969 8.10352ZM98.9453 7.22461L98.5638 6.9014C98.4442 7.04264 98.4123 7.23843 98.4811 7.4103L98.9453 7.22461ZM107.137 5.60742L106.777 5.95473L106.78 5.95783L107.137 5.60742ZM108.121 17.8945V18.3945C108.397 18.3945 108.621 18.1707 108.621 17.8945H108.121ZM97.3633 17.8945H96.8633C96.8633 18.1707 97.0871 18.3945 97.3633 18.3945V17.8945ZM97.3633 6.15234L97.4902 5.66873C97.3403 5.62937 97.1806 5.66177 97.0579 5.75644C96.9352 5.85111 96.8633 5.99735 96.8633 6.15234H97.3633ZM100.176 6.89062H100.676C100.676 6.66338 100.523 6.46471 100.303 6.40701L100.176 6.89062ZM100.176 17.8945V18.3945C100.452 18.3945 100.676 18.1707 100.676 17.8945H100.176ZM95.5703 18L95.072 17.9585C95.0604 18.0978 95.1077 18.2357 95.2024 18.3386C95.297 18.4415 95.4305 18.5 95.5703 18.5V18ZM95.6582 16.9453L95.4408 16.495C95.2815 16.572 95.1746 16.7274 95.1599 16.9038L95.6582 16.9453ZM97.6973 16.2598L98.1816 16.3841C98.2252 16.2142 98.1765 16.0338 98.0534 15.9088C97.9302 15.7838 97.7505 15.7326 97.5799 15.7737L97.6973 16.2598ZM97.3633 17.5605H96.8633C96.8633 17.8125 97.0507 18.025 97.3006 18.0566C97.5505 18.0882 97.7849 17.9289 97.8476 17.6849L97.3633 17.5605ZM97.3633 15.1523V14.6523C97.0871 14.6523 96.8633 14.8762 96.8633 15.1523H97.3633ZM100.176 15.1523H100.676C100.676 14.8762 100.452 14.6523 100.176 14.6523V15.1523ZM100.176 17.5605L99.6899 17.6783C99.7495 17.9244 99.9837 18.0871 100.235 18.057C100.487 18.027 100.676 17.8137 100.676 17.5605H100.176ZM99.8945 16.4004L100.01 15.9139C99.8409 15.8737 99.6629 15.9243 99.5402 16.0476C99.4175 16.1709 99.3676 16.3491 99.4086 16.5182L99.8945 16.4004ZM102.039 16.9102L102.537 16.9503C102.557 16.7044 102.395 16.4808 102.155 16.4237L102.039 16.9102ZM101.951 18V18.5C102.212 18.5 102.429 18.2999 102.45 18.0402L101.951 18ZM103.832 18L103.334 17.9611C103.323 18.1 103.37 18.2372 103.465 18.3395C103.56 18.4418 103.693 18.5 103.832 18.5V18ZM103.92 16.875L103.688 16.4321C103.536 16.5119 103.435 16.6645 103.421 16.8361L103.92 16.875ZM104.711 16.541L104.869 17.0154C104.875 17.0134 104.881 17.0113 104.886 17.0092L104.711 16.541ZM105.643 16.2598L106.127 16.3841C106.171 16.2142 106.122 16.0338 105.999 15.9088C105.876 15.7838 105.696 15.7326 105.525 15.7737L105.643 16.2598ZM105.309 17.5605H104.809C104.809 17.8125 104.996 18.025 105.246 18.0566C105.496 18.0882 105.73 17.9289 105.793 17.6849L105.309 17.5605ZM105.309 15.1523V14.6523C105.032 14.6523 104.809 14.8762 104.809 15.1523H105.309ZM108.121 15.1523H108.621C108.621 14.8762 108.397 14.6523 108.121 14.6523V15.1523ZM108.121 17.5605L107.635 17.6783C107.695 17.9244 107.929 18.0871 108.18 18.057C108.432 18.027 108.621 17.8137 108.621 17.5605H108.121ZM107.84 16.4004L107.955 15.9139C107.786 15.8737 107.608 15.9243 107.486 16.0476C107.363 16.1709 107.313 16.3491 107.354 16.5182L107.84 16.4004ZM109.984 16.9102L110.483 16.9503C110.503 16.7044 110.34 16.4808 110.1 16.4237L109.984 16.9102ZM109.896 18V18.5C110.157 18.5 110.374 18.2999 110.395 18.0402L109.896 18ZM97.3633 9.05273H96.8633C96.8633 9.23053 96.9577 9.39495 97.1113 9.48457C97.2648 9.57419 97.4544 9.57552 97.6092 9.48807L97.3633 9.05273ZM97.3633 6.80273L97.8022 6.56331C97.6928 6.36266 97.4612 6.26176 97.2397 6.31824C97.0183 6.37471 96.8633 6.57418 96.8633 6.80273H97.3633ZM97.7852 7.57617L97.5694 8.02724C97.7651 8.12082 97.9988 8.07758 98.148 7.92019C98.2972 7.7628 98.328 7.52715 98.2241 7.33675L97.7852 7.57617ZM95.3594 6.41602L94.8616 6.36861C94.8417 6.57748 94.9544 6.77656 95.1436 6.86708L95.3594 6.41602ZM95.4297 5.67773L95.2228 5.22255C95.0598 5.29662 94.9489 5.45214 94.9319 5.63033L95.4297 5.67773ZM99.4023 4.72852L99.8886 4.61229C99.8309 4.37066 99.6045 4.20808 99.3571 4.23057L99.4023 4.72852ZM100.07 7.52344L100.316 7.95877C100.51 7.84909 100.608 7.6241 100.557 7.40721L100.07 7.52344ZM105.809 17.8945V9.03516H104.809V17.8945H105.809ZM105.809 9.03516C105.809 8.15991 105.598 7.41081 105.089 6.88208C104.576 6.34989 103.844 6.12695 102.988 6.12695V7.12695C103.68 7.12695 104.108 7.30539 104.368 7.57593C104.632 7.84993 104.809 8.30494 104.809 9.03516H105.809ZM102.988 6.12695C101.627 6.12695 100.29 6.67846 98.9863 7.71164L99.6074 8.49539C100.788 7.55982 101.912 7.12695 102.988 7.12695V6.12695ZM99.7611 7.91782L99.4096 7.03891L98.4811 7.4103L98.8326 8.28921L99.7611 7.91782ZM99.3268 7.54782C100.001 6.75254 100.767 6.14639 101.628 5.72178L101.185 4.82509C100.193 5.31454 99.3197 6.00918 98.5638 6.9014L99.3268 7.54782ZM101.628 5.72178C102.485 5.29828 103.382 5.08789 104.324 5.08789V4.08789C103.227 4.08789 102.179 4.33453 101.185 4.82509L101.628 5.72178ZM104.324 5.08789C105.449 5.08789 106.24 5.39882 106.777 5.95472L107.496 5.26012C106.721 4.45665 105.637 4.08789 104.324 4.08789V5.08789ZM106.78 5.95783C107.317 6.50409 107.621 7.32168 107.621 8.49023H108.621C108.621 7.15097 108.269 6.04669 107.493 5.25701L106.78 5.95783ZM107.621 8.49023V17.8945H108.621V8.49023H107.621ZM108.121 17.3945H105.309V18.3945H108.121V17.3945ZM97.8633 17.8945V6.15234H96.8633V17.8945H97.8633ZM97.2363 6.63596L100.049 7.37424L100.303 6.40701L97.4902 5.66873L97.2363 6.63596ZM99.6758 6.89062V17.8945H100.676V6.89062H99.6758ZM100.176 17.3945H97.3633V18.3945H100.176V17.3945ZM96.0686 18.0415L96.1565 16.9868L95.1599 16.9038L95.072 17.9585L96.0686 18.0415ZM95.8756 17.3956C96.1944 17.2417 96.5112 17.1162 96.8259 17.0185L96.5295 16.0635C96.1646 16.1767 95.8017 16.3208 95.4408 16.495L95.8756 17.3956ZM96.8259 17.0185C97.1558 16.9162 97.4853 16.8253 97.8146 16.7458L97.5799 15.7737C97.2295 15.8583 96.8794 15.9549 96.5295 16.0635L96.8259 17.0185ZM97.213 16.1354L96.879 17.4362L97.8476 17.6849L98.1816 16.3841L97.213 16.1354ZM97.8633 17.5605V15.1523H96.8633V17.5605H97.8633ZM97.3633 15.6523H100.176V14.6523H97.3633V15.6523ZM99.6758 15.1523V17.5605H100.676V15.1523H99.6758ZM100.662 17.4427L100.38 16.2826L99.4086 16.5182L99.6899 17.6783L100.662 17.4427ZM99.7789 16.8868L101.923 17.3966L102.155 16.4237L100.01 15.9139L99.7789 16.8868ZM101.541 16.87L101.453 17.9598L102.45 18.0402L102.537 16.9503L101.541 16.87ZM101.951 17.5H95.5703V18.5H101.951V17.5ZM104.331 18.0389L104.418 16.9139L103.421 16.8361L103.334 17.9611L104.331 18.0389ZM104.152 17.3179C104.373 17.2022 104.612 17.1012 104.869 17.0154L104.553 16.0667C104.248 16.1683 103.959 16.2899 103.688 16.4321L104.152 17.3179ZM104.886 17.0092C105.146 16.9119 105.437 16.8238 105.76 16.7458L105.525 15.7737C105.169 15.8598 104.838 15.9592 104.535 16.0729L104.886 17.0092ZM105.158 16.1354L104.824 17.4362L105.793 17.6849L106.127 16.3841L105.158 16.1354ZM105.809 17.5605V15.1523H104.809V17.5605H105.809ZM105.309 15.6523H108.121V14.6523H105.309V15.6523ZM107.621 15.1523V17.5605H108.621V15.1523H107.621ZM108.607 17.4427L108.326 16.2826L107.354 16.5182L107.635 17.6783L108.607 17.4427ZM107.724 16.8868L109.869 17.3966L110.1 16.4237L107.955 15.9139L107.724 16.8868ZM109.486 16.87L109.398 17.9598L110.395 18.0402L110.483 16.9503L109.486 16.87ZM109.896 17.5H103.832V18.5H109.896V17.5ZM97.8633 9.05273V6.80273H96.8633V9.05273H97.8633ZM96.9243 7.04216L97.3462 7.8156L98.2241 7.33675L97.8022 6.56331L96.9243 7.04216ZM98.0009 7.1251L95.5751 5.96495L95.1436 6.86708L97.5694 8.02724L98.0009 7.1251ZM95.8571 6.46342L95.9274 5.72514L94.9319 5.63033L94.8616 6.36861L95.8571 6.46342ZM95.6366 6.13292C96.1176 5.91426 96.6842 5.72441 97.34 5.56612L97.1053 4.59404C96.4017 4.76388 95.773 4.97246 95.2228 5.22255L95.6366 6.13292ZM97.34 5.56612C97.9935 5.40836 98.6958 5.29481 99.4476 5.22646L99.3571 4.23057C98.562 4.30285 97.8111 4.42367 97.1053 4.59404L97.34 5.56612ZM98.916 4.84474L99.584 7.63966L100.557 7.40721L99.8886 4.61229L98.916 4.84474ZM99.8244 7.0881L97.1173 8.6174L97.6092 9.48807L100.316 7.95877L99.8244 7.0881ZM113.289 5.85352L113.621 6.22748L113.621 6.22722L113.289 5.85352ZM119.652 5.18555L119.423 5.63004L119.426 5.63142L119.652 5.18555ZM115.363 11.4961L114.962 11.7949L114.966 11.7998L115.363 11.4961ZM123.678 6.67969L123.652 7.179C123.92 7.19306 124.151 6.99254 124.176 6.72496L123.678 6.67969ZM119.652 6.46875L119.355 6.87107C119.434 6.92921 119.528 6.96294 119.626 6.96806L119.652 6.46875ZM117.104 4.58789V4.08789C116.888 4.08789 116.696 4.22651 116.629 4.43162C116.561 4.63673 116.633 4.862 116.807 4.99021L117.104 4.58789ZM118.387 4.69336L118.274 5.18055C118.28 5.18193 118.286 5.1832 118.292 5.18436L118.387 4.69336ZM121.604 4.93945L121.632 5.43873L121.64 5.43809L121.604 4.93945ZM123.854 4.74609L124.351 4.79136C124.365 4.64326 124.312 4.49686 124.206 4.39189C124.101 4.28693 123.954 4.23431 123.806 4.24832L123.854 4.74609ZM112.779 23.1855L113.046 22.7629L113.045 22.7621L112.779 23.1855ZM113.816 17.3848L114.064 16.9506C113.921 16.8684 113.745 16.8628 113.597 16.9357L113.816 17.3848ZM114.801 17.9473L115.111 18.3395C115.241 18.2365 115.312 18.0755 115.299 17.9099C115.287 17.7442 115.193 17.5956 115.049 17.5131L114.801 17.9473ZM120.443 21.8672L120.183 21.4401L120.175 21.4451L120.443 21.8672ZM113.553 18.0703L113.877 17.6895L113.872 17.6855L113.553 18.0703ZM115.082 12.8145L115.163 12.321C115.059 12.304 114.953 12.3202 114.858 12.3672L115.082 12.8145ZM116.154 12.9902L116.453 13.3915C116.614 13.2718 116.688 13.0673 116.64 12.8722C116.593 12.6771 116.433 12.5293 116.235 12.4968L116.154 12.9902ZM123.203 17.0332L122.888 17.4216L122.896 17.4279L123.203 17.0332ZM123.203 21.7441L122.821 21.4217L122.818 21.4252L123.203 21.7441ZM120.619 23.502L120.44 23.035L120.434 23.0374L120.619 23.502ZM117.068 13.3691C115.575 13.3691 114.445 12.9784 113.621 12.2471L112.957 12.9951C114.008 13.9279 115.397 14.3691 117.068 14.3691V13.3691ZM113.621 12.2471C112.805 11.523 112.383 10.542 112.383 9.24609H111.383C111.383 10.7862 111.898 12.0551 112.957 12.9951L113.621 12.2471ZM112.383 9.24609C112.383 7.93708 112.806 6.95077 113.621 6.22748L112.957 5.47955C111.897 6.42032 111.383 7.69573 111.383 9.24609H112.383ZM113.621 6.22722C114.457 5.48402 115.6 5.08789 117.104 5.08789V4.08789C115.42 4.08789 114.019 4.53551 112.957 5.47981L113.621 6.22722ZM117.104 5.08789C117.955 5.08789 118.725 5.2704 119.423 5.63003L119.881 4.74106C119.033 4.30381 118.104 4.08789 117.104 4.08789V5.08789ZM119.426 5.63142C120.141 5.99419 120.709 6.48532 121.14 7.10564L121.961 6.53498C121.432 5.77249 120.734 5.17378 119.879 4.73967L119.426 5.63142ZM121.14 7.10564C121.558 7.70717 121.771 8.40289 121.771 9.21094H122.771C122.771 8.2143 122.504 7.31627 121.961 6.53498L121.14 7.10564ZM121.771 9.21094C121.771 10.5067 121.349 11.4953 120.531 12.2319L121.2 12.9752C122.256 12.0243 122.771 10.7511 122.771 9.21094H121.771ZM120.531 12.2319C119.707 12.9729 118.572 13.3691 117.068 13.3691V14.3691C118.752 14.3691 120.148 13.9216 121.2 12.9752L120.531 12.2319ZM117.297 12.8926C118.137 12.8926 118.842 12.6087 119.317 11.983C119.772 11.3834 119.959 10.5432 119.959 9.54492H118.959C118.959 10.4451 118.786 11.0288 118.52 11.3783C118.275 11.7019 117.898 11.8926 117.297 11.8926V12.8926ZM119.959 9.54492C119.959 8.33695 119.736 7.33989 119.209 6.63522C118.662 5.90321 117.847 5.56445 116.857 5.56445V6.56445C117.602 6.56445 118.088 6.80578 118.408 7.23392C118.749 7.6894 118.959 8.43258 118.959 9.54492H119.959ZM116.857 5.56445C116.016 5.56445 115.311 5.85064 114.837 6.47959C114.382 7.082 114.195 7.92605 114.195 8.92969H115.195C115.195 8.02317 115.369 7.4346 115.635 7.08194C115.881 6.7558 116.258 6.56445 116.857 6.56445V5.56445ZM114.195 8.92969C114.195 10.1001 114.428 11.0776 114.962 11.7948L115.764 11.1974C115.408 10.7193 115.195 9.98588 115.195 8.92969H114.195ZM114.966 11.7998C115.529 12.5355 116.328 12.8926 117.297 12.8926V11.8926C116.602 11.8926 116.112 11.652 115.76 11.1924L114.966 11.7998ZM123.704 6.18037L119.679 5.96944L119.626 6.96806L123.652 7.179L123.704 6.18037ZM119.949 6.06643L117.4 4.18557L116.807 4.99021L119.355 6.87107L119.949 6.06643ZM117.104 5.08789C117.64 5.08789 118.024 5.12283 118.274 5.18055L118.499 4.20616C118.14 4.12326 117.668 4.08789 117.104 4.08789V5.08789ZM118.292 5.18436C118.586 5.24093 118.855 5.30261 119.099 5.3691L119.362 4.40434C119.09 4.3302 118.796 4.26298 118.481 4.20236L118.292 5.18436ZM119.099 5.3691C119.416 5.45558 119.799 5.49219 120.232 5.49219V4.49219C119.846 4.49219 119.561 4.45848 119.362 4.40434L119.099 5.3691ZM120.232 5.49219C120.54 5.49219 121.009 5.47389 121.632 5.43865L121.575 4.44025C120.956 4.47533 120.51 4.49219 120.232 4.49219V5.49219ZM121.64 5.43809C122.278 5.39089 123.031 5.32611 123.901 5.24387L123.806 4.24832C122.941 4.33014 122.195 4.39427 121.567 4.44082L121.64 5.43809ZM123.356 4.70083L123.18 6.63442L124.176 6.72496L124.351 4.79136L123.356 4.70083ZM116.857 23.6523C115.216 23.6523 113.96 23.3402 113.046 22.7629L112.512 23.6082C113.638 24.3199 115.101 24.6523 116.857 24.6523V23.6523ZM113.045 22.7621C112.165 22.2094 111.768 21.505 111.768 20.6191H110.768C110.768 21.8895 111.378 22.896 112.513 23.609L113.045 22.7621ZM111.768 20.6191C111.768 19.5642 112.424 18.6231 114.036 17.8338L113.597 16.9357C111.81 17.8105 110.768 19.0256 110.768 20.6191H111.768ZM113.568 17.8189L114.553 18.3814L115.049 17.5131L114.064 16.9506L113.568 17.8189ZM114.491 17.555C113.662 18.2102 113.211 19.0448 113.211 20.0391H114.211C114.211 19.3927 114.487 18.8328 115.111 18.3395L114.491 17.555ZM113.211 20.0391C113.211 21.0147 113.607 21.8023 114.399 22.3348L114.957 21.5051C114.459 21.1704 114.211 20.704 114.211 20.0391H113.211ZM114.399 22.3348C115.159 22.8463 116.193 23.0703 117.438 23.0703V22.0703C116.292 22.0703 115.485 21.8607 114.957 21.5051L114.399 22.3348ZM117.438 23.0703C118.758 23.0703 119.865 22.8269 120.711 22.2893L120.175 21.4451C119.545 21.845 118.648 22.0703 117.438 22.0703V23.0703ZM120.704 22.2942C121.581 21.7592 122.068 20.9868 122.068 20.0039H121.068C121.068 20.5913 120.805 21.0611 120.183 21.4402L120.704 22.2942ZM122.068 20.0039C122.068 19.4704 121.881 18.9984 121.454 18.68C121.054 18.3823 120.514 18.2734 119.916 18.2734V19.2734C120.419 19.2734 120.706 19.3697 120.857 19.4821C120.98 19.5739 121.068 19.7171 121.068 20.0039H122.068ZM119.916 18.2734H115.908V19.2734H119.916V18.2734ZM115.908 18.2734C114.959 18.2734 114.306 18.055 113.877 17.6895L113.229 18.4511C113.901 19.0231 114.818 19.2734 115.908 19.2734V18.2734ZM113.872 17.6855C113.458 17.3423 113.227 16.8404 113.227 16.1016H112.227C112.227 17.0737 112.546 17.8843 113.233 18.4551L113.872 17.6855ZM113.227 16.1016C113.227 14.9352 113.854 13.9873 115.306 13.2617L114.858 12.3672C113.169 13.2119 112.227 14.4555 112.227 16.1016H113.227ZM115.001 13.3079L116.073 13.4836L116.235 12.4968L115.163 12.321L115.001 13.3079ZM115.856 12.5889C114.921 13.2839 114.354 14.1125 114.354 15.082H115.354C115.354 14.5515 115.653 13.9856 116.453 13.3915L115.856 12.5889ZM114.354 15.082C114.354 15.6094 114.545 16.0733 114.974 16.3836C115.372 16.6722 115.91 16.7773 116.506 16.7773V15.7773C116 15.7773 115.712 15.6833 115.56 15.5734C115.438 15.4853 115.354 15.3516 115.354 15.082H114.354ZM116.506 16.7773H120.514V15.7773H116.506V16.7773ZM120.514 16.7773C121.623 16.7773 122.389 17.0168 122.888 17.4215L123.518 16.6449C122.775 16.0418 121.749 15.7773 120.514 15.7773V16.7773ZM122.896 17.4279C123.386 17.8086 123.652 18.3651 123.652 19.1777H124.652C124.652 18.1154 124.286 17.2422 123.51 16.6385L122.896 17.4279ZM123.652 19.1777C123.652 20.0179 123.379 20.7598 122.821 21.4217L123.585 22.0666C124.292 21.2285 124.652 20.2594 124.652 19.1777H123.652ZM122.818 21.4252C122.262 22.0963 121.478 22.6374 120.44 23.035L120.798 23.9689C121.963 23.5227 122.902 22.892 123.588 22.063L122.818 21.4252ZM120.434 23.0374C119.414 23.4432 118.225 23.6523 116.857 23.6523V24.6523C118.326 24.6523 119.644 24.4279 120.804 23.9665L120.434 23.0374Z" fill="#00A3FF" mask="url(#path-1-outside-1_3_6)"/>
</g>
<defs>
<filter id="filter0_d_3_6" x="0.949219" y="0.597656" width="123.203" height="24.5898" filterUnits="userSpaceOnUse" color-interpolation-filters="sRGB">
<feFlood flood-opacity="0" result="BackgroundImageFix"/>
<feColorMatrix in="SourceAlpha" type="matrix" values="0 0 0 0 0 0 0 0 0 0 0 0 0 0 0 0 0 0 127 0" result="hardAlpha"/>
<feOffset dx="-1" dy="1"/>
<feComposite in2="hardAlpha" operator="out"/>
<feColorMatrix type="matrix" values="0 0 0 0 0 0 0 0 0 0 0 0 0 0 0 0 0 0 0.9 0"/>
<feBlend mode="normal" in2="BackgroundImageFix" result="effect1_dropShadow_3_6"/>
<feBlend mode="normal" in="SourceGraphic" in2="effect1_dropShadow_3_6" result="shape"/>
</filter>
</defs>
</svg>
